%TF.GenerationSoftware,KiCad,Pcbnew,7.0.11+dfsg-1build4*%
%TF.CreationDate,2024-05-02T22:23:34+02:00*%
%TF.ProjectId,X1-01M-carrier,58312d30-314d-42d6-9361-72726965722e,rev?*%
%TF.SameCoordinates,Original*%
%TF.FileFunction,Legend,Top*%
%TF.FilePolarity,Positive*%
%FSLAX46Y46*%
G04 Gerber Fmt 4.6, Leading zero omitted, Abs format (unit mm)*
G04 Created by KiCad (PCBNEW 7.0.11+dfsg-1build4) date 2024-05-02 22:23:34*
%MOMM*%
%LPD*%
G01*
G04 APERTURE LIST*
%ADD10C,0.150000*%
%ADD11C,0.120000*%
G04 APERTURE END LIST*
D10*
X129800778Y-94924119D02*
X129800778Y-95638404D01*
X129800778Y-95638404D02*
X129753159Y-95781261D01*
X129753159Y-95781261D02*
X129657921Y-95876500D01*
X129657921Y-95876500D02*
X129515064Y-95924119D01*
X129515064Y-95924119D02*
X129419826Y-95924119D01*
X130229350Y-95019357D02*
X130276969Y-94971738D01*
X130276969Y-94971738D02*
X130372207Y-94924119D01*
X130372207Y-94924119D02*
X130610302Y-94924119D01*
X130610302Y-94924119D02*
X130705540Y-94971738D01*
X130705540Y-94971738D02*
X130753159Y-95019357D01*
X130753159Y-95019357D02*
X130800778Y-95114595D01*
X130800778Y-95114595D02*
X130800778Y-95209833D01*
X130800778Y-95209833D02*
X130753159Y-95352690D01*
X130753159Y-95352690D02*
X130181731Y-95924119D01*
X130181731Y-95924119D02*
X130800778Y-95924119D01*
X128697445Y-116021880D02*
X128649826Y-116069500D01*
X128649826Y-116069500D02*
X128506969Y-116117119D01*
X128506969Y-116117119D02*
X128411731Y-116117119D01*
X128411731Y-116117119D02*
X128268874Y-116069500D01*
X128268874Y-116069500D02*
X128173636Y-115974261D01*
X128173636Y-115974261D02*
X128126017Y-115879023D01*
X128126017Y-115879023D02*
X128078398Y-115688547D01*
X128078398Y-115688547D02*
X128078398Y-115545690D01*
X128078398Y-115545690D02*
X128126017Y-115355214D01*
X128126017Y-115355214D02*
X128173636Y-115259976D01*
X128173636Y-115259976D02*
X128268874Y-115164738D01*
X128268874Y-115164738D02*
X128411731Y-115117119D01*
X128411731Y-115117119D02*
X128506969Y-115117119D01*
X128506969Y-115117119D02*
X128649826Y-115164738D01*
X128649826Y-115164738D02*
X128697445Y-115212357D01*
X129078398Y-115212357D02*
X129126017Y-115164738D01*
X129126017Y-115164738D02*
X129221255Y-115117119D01*
X129221255Y-115117119D02*
X129459350Y-115117119D01*
X129459350Y-115117119D02*
X129554588Y-115164738D01*
X129554588Y-115164738D02*
X129602207Y-115212357D01*
X129602207Y-115212357D02*
X129649826Y-115307595D01*
X129649826Y-115307595D02*
X129649826Y-115402833D01*
X129649826Y-115402833D02*
X129602207Y-115545690D01*
X129602207Y-115545690D02*
X129030779Y-116117119D01*
X129030779Y-116117119D02*
X129649826Y-116117119D01*
X116211778Y-130865119D02*
X116211778Y-131579404D01*
X116211778Y-131579404D02*
X116164159Y-131722261D01*
X116164159Y-131722261D02*
X116068921Y-131817500D01*
X116068921Y-131817500D02*
X115926064Y-131865119D01*
X115926064Y-131865119D02*
X115830826Y-131865119D01*
X117211778Y-131865119D02*
X116640350Y-131865119D01*
X116926064Y-131865119D02*
X116926064Y-130865119D01*
X116926064Y-130865119D02*
X116830826Y-131007976D01*
X116830826Y-131007976D02*
X116735588Y-131103214D01*
X116735588Y-131103214D02*
X116640350Y-131150833D01*
X136293779Y-128134500D02*
X136436636Y-128182119D01*
X136436636Y-128182119D02*
X136674731Y-128182119D01*
X136674731Y-128182119D02*
X136769969Y-128134500D01*
X136769969Y-128134500D02*
X136817588Y-128086880D01*
X136817588Y-128086880D02*
X136865207Y-127991642D01*
X136865207Y-127991642D02*
X136865207Y-127896404D01*
X136865207Y-127896404D02*
X136817588Y-127801166D01*
X136817588Y-127801166D02*
X136769969Y-127753547D01*
X136769969Y-127753547D02*
X136674731Y-127705928D01*
X136674731Y-127705928D02*
X136484255Y-127658309D01*
X136484255Y-127658309D02*
X136389017Y-127610690D01*
X136389017Y-127610690D02*
X136341398Y-127563071D01*
X136341398Y-127563071D02*
X136293779Y-127467833D01*
X136293779Y-127467833D02*
X136293779Y-127372595D01*
X136293779Y-127372595D02*
X136341398Y-127277357D01*
X136341398Y-127277357D02*
X136389017Y-127229738D01*
X136389017Y-127229738D02*
X136484255Y-127182119D01*
X136484255Y-127182119D02*
X136722350Y-127182119D01*
X136722350Y-127182119D02*
X136865207Y-127229738D01*
X137198541Y-127182119D02*
X137436636Y-128182119D01*
X137436636Y-128182119D02*
X137627112Y-127467833D01*
X137627112Y-127467833D02*
X137817588Y-128182119D01*
X137817588Y-128182119D02*
X138055684Y-127182119D01*
X138960445Y-128182119D02*
X138389017Y-128182119D01*
X138674731Y-128182119D02*
X138674731Y-127182119D01*
X138674731Y-127182119D02*
X138579493Y-127324976D01*
X138579493Y-127324976D02*
X138484255Y-127420214D01*
X138484255Y-127420214D02*
X138389017Y-127467833D01*
X142937445Y-108455619D02*
X142461255Y-108455619D01*
X142461255Y-108455619D02*
X142461255Y-107455619D01*
X143794588Y-108455619D02*
X143223160Y-108455619D01*
X143508874Y-108455619D02*
X143508874Y-107455619D01*
X143508874Y-107455619D02*
X143413636Y-107598476D01*
X143413636Y-107598476D02*
X143318398Y-107693714D01*
X143318398Y-107693714D02*
X143223160Y-107741333D01*
X151094707Y-126039119D02*
X151094707Y-126848642D01*
X151094707Y-126848642D02*
X151142326Y-126943880D01*
X151142326Y-126943880D02*
X151189945Y-126991500D01*
X151189945Y-126991500D02*
X151285183Y-127039119D01*
X151285183Y-127039119D02*
X151475659Y-127039119D01*
X151475659Y-127039119D02*
X151570897Y-126991500D01*
X151570897Y-126991500D02*
X151618516Y-126943880D01*
X151618516Y-126943880D02*
X151666135Y-126848642D01*
X151666135Y-126848642D02*
X151666135Y-126039119D01*
X152666135Y-127039119D02*
X152094707Y-127039119D01*
X152380421Y-127039119D02*
X152380421Y-126039119D01*
X152380421Y-126039119D02*
X152285183Y-126181976D01*
X152285183Y-126181976D02*
X152189945Y-126277214D01*
X152189945Y-126277214D02*
X152094707Y-126324833D01*
X146157333Y-123854380D02*
X146109714Y-123902000D01*
X146109714Y-123902000D02*
X145966857Y-123949619D01*
X145966857Y-123949619D02*
X145871619Y-123949619D01*
X145871619Y-123949619D02*
X145728762Y-123902000D01*
X145728762Y-123902000D02*
X145633524Y-123806761D01*
X145633524Y-123806761D02*
X145585905Y-123711523D01*
X145585905Y-123711523D02*
X145538286Y-123521047D01*
X145538286Y-123521047D02*
X145538286Y-123378190D01*
X145538286Y-123378190D02*
X145585905Y-123187714D01*
X145585905Y-123187714D02*
X145633524Y-123092476D01*
X145633524Y-123092476D02*
X145728762Y-122997238D01*
X145728762Y-122997238D02*
X145871619Y-122949619D01*
X145871619Y-122949619D02*
X145966857Y-122949619D01*
X145966857Y-122949619D02*
X146109714Y-122997238D01*
X146109714Y-122997238D02*
X146157333Y-123044857D01*
X147014476Y-123282952D02*
X147014476Y-123949619D01*
X146776381Y-122902000D02*
X146538286Y-123616285D01*
X146538286Y-123616285D02*
X147157333Y-123616285D01*
X139254445Y-123981380D02*
X139206826Y-124029000D01*
X139206826Y-124029000D02*
X139063969Y-124076619D01*
X139063969Y-124076619D02*
X138968731Y-124076619D01*
X138968731Y-124076619D02*
X138825874Y-124029000D01*
X138825874Y-124029000D02*
X138730636Y-123933761D01*
X138730636Y-123933761D02*
X138683017Y-123838523D01*
X138683017Y-123838523D02*
X138635398Y-123648047D01*
X138635398Y-123648047D02*
X138635398Y-123505190D01*
X138635398Y-123505190D02*
X138683017Y-123314714D01*
X138683017Y-123314714D02*
X138730636Y-123219476D01*
X138730636Y-123219476D02*
X138825874Y-123124238D01*
X138825874Y-123124238D02*
X138968731Y-123076619D01*
X138968731Y-123076619D02*
X139063969Y-123076619D01*
X139063969Y-123076619D02*
X139206826Y-123124238D01*
X139206826Y-123124238D02*
X139254445Y-123171857D01*
X139587779Y-123076619D02*
X140206826Y-123076619D01*
X140206826Y-123076619D02*
X139873493Y-123457571D01*
X139873493Y-123457571D02*
X140016350Y-123457571D01*
X140016350Y-123457571D02*
X140111588Y-123505190D01*
X140111588Y-123505190D02*
X140159207Y-123552809D01*
X140159207Y-123552809D02*
X140206826Y-123648047D01*
X140206826Y-123648047D02*
X140206826Y-123886142D01*
X140206826Y-123886142D02*
X140159207Y-123981380D01*
X140159207Y-123981380D02*
X140111588Y-124029000D01*
X140111588Y-124029000D02*
X140016350Y-124076619D01*
X140016350Y-124076619D02*
X139730636Y-124076619D01*
X139730636Y-124076619D02*
X139635398Y-124029000D01*
X139635398Y-124029000D02*
X139587779Y-123981380D01*
X131317017Y-62396119D02*
X131317017Y-61396119D01*
X131317017Y-61396119D02*
X131555112Y-61396119D01*
X131555112Y-61396119D02*
X131697969Y-61443738D01*
X131697969Y-61443738D02*
X131793207Y-61538976D01*
X131793207Y-61538976D02*
X131840826Y-61634214D01*
X131840826Y-61634214D02*
X131888445Y-61824690D01*
X131888445Y-61824690D02*
X131888445Y-61967547D01*
X131888445Y-61967547D02*
X131840826Y-62158023D01*
X131840826Y-62158023D02*
X131793207Y-62253261D01*
X131793207Y-62253261D02*
X131697969Y-62348500D01*
X131697969Y-62348500D02*
X131555112Y-62396119D01*
X131555112Y-62396119D02*
X131317017Y-62396119D01*
X132840826Y-62396119D02*
X132269398Y-62396119D01*
X132555112Y-62396119D02*
X132555112Y-61396119D01*
X132555112Y-61396119D02*
X132459874Y-61538976D01*
X132459874Y-61538976D02*
X132364636Y-61634214D01*
X132364636Y-61634214D02*
X132269398Y-61681833D01*
X118767779Y-65777500D02*
X118910636Y-65825119D01*
X118910636Y-65825119D02*
X119148731Y-65825119D01*
X119148731Y-65825119D02*
X119243969Y-65777500D01*
X119243969Y-65777500D02*
X119291588Y-65729880D01*
X119291588Y-65729880D02*
X119339207Y-65634642D01*
X119339207Y-65634642D02*
X119339207Y-65539404D01*
X119339207Y-65539404D02*
X119291588Y-65444166D01*
X119291588Y-65444166D02*
X119243969Y-65396547D01*
X119243969Y-65396547D02*
X119148731Y-65348928D01*
X119148731Y-65348928D02*
X118958255Y-65301309D01*
X118958255Y-65301309D02*
X118863017Y-65253690D01*
X118863017Y-65253690D02*
X118815398Y-65206071D01*
X118815398Y-65206071D02*
X118767779Y-65110833D01*
X118767779Y-65110833D02*
X118767779Y-65015595D01*
X118767779Y-65015595D02*
X118815398Y-64920357D01*
X118815398Y-64920357D02*
X118863017Y-64872738D01*
X118863017Y-64872738D02*
X118958255Y-64825119D01*
X118958255Y-64825119D02*
X119196350Y-64825119D01*
X119196350Y-64825119D02*
X119339207Y-64872738D01*
X119672541Y-64825119D02*
X119910636Y-65825119D01*
X119910636Y-65825119D02*
X120101112Y-65110833D01*
X120101112Y-65110833D02*
X120291588Y-65825119D01*
X120291588Y-65825119D02*
X120529684Y-64825119D01*
X120863017Y-64920357D02*
X120910636Y-64872738D01*
X120910636Y-64872738D02*
X121005874Y-64825119D01*
X121005874Y-64825119D02*
X121243969Y-64825119D01*
X121243969Y-64825119D02*
X121339207Y-64872738D01*
X121339207Y-64872738D02*
X121386826Y-64920357D01*
X121386826Y-64920357D02*
X121434445Y-65015595D01*
X121434445Y-65015595D02*
X121434445Y-65110833D01*
X121434445Y-65110833D02*
X121386826Y-65253690D01*
X121386826Y-65253690D02*
X120815398Y-65825119D01*
X120815398Y-65825119D02*
X121434445Y-65825119D01*
X145294778Y-60842619D02*
X145294778Y-61556904D01*
X145294778Y-61556904D02*
X145247159Y-61699761D01*
X145247159Y-61699761D02*
X145151921Y-61795000D01*
X145151921Y-61795000D02*
X145009064Y-61842619D01*
X145009064Y-61842619D02*
X144913826Y-61842619D01*
X145675731Y-60842619D02*
X146294778Y-60842619D01*
X146294778Y-60842619D02*
X145961445Y-61223571D01*
X145961445Y-61223571D02*
X146104302Y-61223571D01*
X146104302Y-61223571D02*
X146199540Y-61271190D01*
X146199540Y-61271190D02*
X146247159Y-61318809D01*
X146247159Y-61318809D02*
X146294778Y-61414047D01*
X146294778Y-61414047D02*
X146294778Y-61652142D01*
X146294778Y-61652142D02*
X146247159Y-61747380D01*
X146247159Y-61747380D02*
X146199540Y-61795000D01*
X146199540Y-61795000D02*
X146104302Y-61842619D01*
X146104302Y-61842619D02*
X145818588Y-61842619D01*
X145818588Y-61842619D02*
X145723350Y-61795000D01*
X145723350Y-61795000D02*
X145675731Y-61747380D01*
X121077445Y-116021880D02*
X121029826Y-116069500D01*
X121029826Y-116069500D02*
X120886969Y-116117119D01*
X120886969Y-116117119D02*
X120791731Y-116117119D01*
X120791731Y-116117119D02*
X120648874Y-116069500D01*
X120648874Y-116069500D02*
X120553636Y-115974261D01*
X120553636Y-115974261D02*
X120506017Y-115879023D01*
X120506017Y-115879023D02*
X120458398Y-115688547D01*
X120458398Y-115688547D02*
X120458398Y-115545690D01*
X120458398Y-115545690D02*
X120506017Y-115355214D01*
X120506017Y-115355214D02*
X120553636Y-115259976D01*
X120553636Y-115259976D02*
X120648874Y-115164738D01*
X120648874Y-115164738D02*
X120791731Y-115117119D01*
X120791731Y-115117119D02*
X120886969Y-115117119D01*
X120886969Y-115117119D02*
X121029826Y-115164738D01*
X121029826Y-115164738D02*
X121077445Y-115212357D01*
X122029826Y-116117119D02*
X121458398Y-116117119D01*
X121744112Y-116117119D02*
X121744112Y-115117119D01*
X121744112Y-115117119D02*
X121648874Y-115259976D01*
X121648874Y-115259976D02*
X121553636Y-115355214D01*
X121553636Y-115355214D02*
X121458398Y-115402833D01*
X136306931Y-84695704D02*
X137116454Y-84695704D01*
X137116454Y-84695704D02*
X137211692Y-84648085D01*
X137211692Y-84648085D02*
X137259312Y-84600466D01*
X137259312Y-84600466D02*
X137306931Y-84505228D01*
X137306931Y-84505228D02*
X137306931Y-84314752D01*
X137306931Y-84314752D02*
X137259312Y-84219514D01*
X137259312Y-84219514D02*
X137211692Y-84171895D01*
X137211692Y-84171895D02*
X137116454Y-84124276D01*
X137116454Y-84124276D02*
X136306931Y-84124276D01*
X136402169Y-83695704D02*
X136354550Y-83648085D01*
X136354550Y-83648085D02*
X136306931Y-83552847D01*
X136306931Y-83552847D02*
X136306931Y-83314752D01*
X136306931Y-83314752D02*
X136354550Y-83219514D01*
X136354550Y-83219514D02*
X136402169Y-83171895D01*
X136402169Y-83171895D02*
X136497407Y-83124276D01*
X136497407Y-83124276D02*
X136592645Y-83124276D01*
X136592645Y-83124276D02*
X136735502Y-83171895D01*
X136735502Y-83171895D02*
X137306931Y-83743323D01*
X137306931Y-83743323D02*
X137306931Y-83124276D01*
X144066931Y-99436276D02*
X143590740Y-99769609D01*
X144066931Y-100007704D02*
X143066931Y-100007704D01*
X143066931Y-100007704D02*
X143066931Y-99626752D01*
X143066931Y-99626752D02*
X143114550Y-99531514D01*
X143114550Y-99531514D02*
X143162169Y-99483895D01*
X143162169Y-99483895D02*
X143257407Y-99436276D01*
X143257407Y-99436276D02*
X143400264Y-99436276D01*
X143400264Y-99436276D02*
X143495502Y-99483895D01*
X143495502Y-99483895D02*
X143543121Y-99531514D01*
X143543121Y-99531514D02*
X143590740Y-99626752D01*
X143590740Y-99626752D02*
X143590740Y-100007704D01*
X148362931Y-86494657D02*
X148362931Y-86970847D01*
X148362931Y-86970847D02*
X147362931Y-86970847D01*
X147839121Y-86161323D02*
X147839121Y-85827990D01*
X148362931Y-85685133D02*
X148362931Y-86161323D01*
X148362931Y-86161323D02*
X147362931Y-86161323D01*
X147362931Y-86161323D02*
X147362931Y-85685133D01*
X148362931Y-85256561D02*
X147362931Y-85256561D01*
X147362931Y-85256561D02*
X147362931Y-85018466D01*
X147362931Y-85018466D02*
X147410550Y-84875609D01*
X147410550Y-84875609D02*
X147505788Y-84780371D01*
X147505788Y-84780371D02*
X147601026Y-84732752D01*
X147601026Y-84732752D02*
X147791502Y-84685133D01*
X147791502Y-84685133D02*
X147934359Y-84685133D01*
X147934359Y-84685133D02*
X148124835Y-84732752D01*
X148124835Y-84732752D02*
X148220073Y-84780371D01*
X148220073Y-84780371D02*
X148315312Y-84875609D01*
X148315312Y-84875609D02*
X148362931Y-85018466D01*
X148362931Y-85018466D02*
X148362931Y-85256561D01*
X145654550Y-100507704D02*
X145606931Y-100602942D01*
X145606931Y-100602942D02*
X145606931Y-100745799D01*
X145606931Y-100745799D02*
X145654550Y-100888656D01*
X145654550Y-100888656D02*
X145749788Y-100983894D01*
X145749788Y-100983894D02*
X145845026Y-101031513D01*
X145845026Y-101031513D02*
X146035502Y-101079132D01*
X146035502Y-101079132D02*
X146178359Y-101079132D01*
X146178359Y-101079132D02*
X146368835Y-101031513D01*
X146368835Y-101031513D02*
X146464073Y-100983894D01*
X146464073Y-100983894D02*
X146559312Y-100888656D01*
X146559312Y-100888656D02*
X146606931Y-100745799D01*
X146606931Y-100745799D02*
X146606931Y-100650561D01*
X146606931Y-100650561D02*
X146559312Y-100507704D01*
X146559312Y-100507704D02*
X146511692Y-100460085D01*
X146511692Y-100460085D02*
X146178359Y-100460085D01*
X146178359Y-100460085D02*
X146178359Y-100650561D01*
X146606931Y-100031513D02*
X145606931Y-100031513D01*
X145606931Y-100031513D02*
X146606931Y-99460085D01*
X146606931Y-99460085D02*
X145606931Y-99460085D01*
X146606931Y-98983894D02*
X145606931Y-98983894D01*
X145606931Y-98983894D02*
X145606931Y-98745799D01*
X145606931Y-98745799D02*
X145654550Y-98602942D01*
X145654550Y-98602942D02*
X145749788Y-98507704D01*
X145749788Y-98507704D02*
X145845026Y-98460085D01*
X145845026Y-98460085D02*
X146035502Y-98412466D01*
X146035502Y-98412466D02*
X146178359Y-98412466D01*
X146178359Y-98412466D02*
X146368835Y-98460085D01*
X146368835Y-98460085D02*
X146464073Y-98507704D01*
X146464073Y-98507704D02*
X146559312Y-98602942D01*
X146559312Y-98602942D02*
X146606931Y-98745799D01*
X146606931Y-98745799D02*
X146606931Y-98983894D01*
X140574550Y-100507704D02*
X140526931Y-100602942D01*
X140526931Y-100602942D02*
X140526931Y-100745799D01*
X140526931Y-100745799D02*
X140574550Y-100888656D01*
X140574550Y-100888656D02*
X140669788Y-100983894D01*
X140669788Y-100983894D02*
X140765026Y-101031513D01*
X140765026Y-101031513D02*
X140955502Y-101079132D01*
X140955502Y-101079132D02*
X141098359Y-101079132D01*
X141098359Y-101079132D02*
X141288835Y-101031513D01*
X141288835Y-101031513D02*
X141384073Y-100983894D01*
X141384073Y-100983894D02*
X141479312Y-100888656D01*
X141479312Y-100888656D02*
X141526931Y-100745799D01*
X141526931Y-100745799D02*
X141526931Y-100650561D01*
X141526931Y-100650561D02*
X141479312Y-100507704D01*
X141479312Y-100507704D02*
X141431692Y-100460085D01*
X141431692Y-100460085D02*
X141098359Y-100460085D01*
X141098359Y-100460085D02*
X141098359Y-100650561D01*
X141526931Y-100031513D02*
X140526931Y-100031513D01*
X140526931Y-100031513D02*
X141526931Y-99460085D01*
X141526931Y-99460085D02*
X140526931Y-99460085D01*
X141526931Y-98983894D02*
X140526931Y-98983894D01*
X140526931Y-98983894D02*
X140526931Y-98745799D01*
X140526931Y-98745799D02*
X140574550Y-98602942D01*
X140574550Y-98602942D02*
X140669788Y-98507704D01*
X140669788Y-98507704D02*
X140765026Y-98460085D01*
X140765026Y-98460085D02*
X140955502Y-98412466D01*
X140955502Y-98412466D02*
X141098359Y-98412466D01*
X141098359Y-98412466D02*
X141288835Y-98460085D01*
X141288835Y-98460085D02*
X141384073Y-98507704D01*
X141384073Y-98507704D02*
X141479312Y-98602942D01*
X141479312Y-98602942D02*
X141526931Y-98745799D01*
X141526931Y-98745799D02*
X141526931Y-98983894D01*
X148641216Y-70006656D02*
X148641216Y-69530466D01*
X148926931Y-70101894D02*
X147926931Y-69768561D01*
X147926931Y-69768561D02*
X148926931Y-69435228D01*
X148926931Y-69101894D02*
X147926931Y-69101894D01*
X147926931Y-69101894D02*
X148926931Y-68530466D01*
X148926931Y-68530466D02*
X147926931Y-68530466D01*
X147926931Y-68197132D02*
X147926931Y-67625704D01*
X148926931Y-67911418D02*
X147926931Y-67911418D01*
X148194550Y-100507704D02*
X148146931Y-100602942D01*
X148146931Y-100602942D02*
X148146931Y-100745799D01*
X148146931Y-100745799D02*
X148194550Y-100888656D01*
X148194550Y-100888656D02*
X148289788Y-100983894D01*
X148289788Y-100983894D02*
X148385026Y-101031513D01*
X148385026Y-101031513D02*
X148575502Y-101079132D01*
X148575502Y-101079132D02*
X148718359Y-101079132D01*
X148718359Y-101079132D02*
X148908835Y-101031513D01*
X148908835Y-101031513D02*
X149004073Y-100983894D01*
X149004073Y-100983894D02*
X149099312Y-100888656D01*
X149099312Y-100888656D02*
X149146931Y-100745799D01*
X149146931Y-100745799D02*
X149146931Y-100650561D01*
X149146931Y-100650561D02*
X149099312Y-100507704D01*
X149099312Y-100507704D02*
X149051692Y-100460085D01*
X149051692Y-100460085D02*
X148718359Y-100460085D01*
X148718359Y-100460085D02*
X148718359Y-100650561D01*
X149146931Y-100031513D02*
X148146931Y-100031513D01*
X148146931Y-100031513D02*
X149146931Y-99460085D01*
X149146931Y-99460085D02*
X148146931Y-99460085D01*
X149146931Y-98983894D02*
X148146931Y-98983894D01*
X148146931Y-98983894D02*
X148146931Y-98745799D01*
X148146931Y-98745799D02*
X148194550Y-98602942D01*
X148194550Y-98602942D02*
X148289788Y-98507704D01*
X148289788Y-98507704D02*
X148385026Y-98460085D01*
X148385026Y-98460085D02*
X148575502Y-98412466D01*
X148575502Y-98412466D02*
X148718359Y-98412466D01*
X148718359Y-98412466D02*
X148908835Y-98460085D01*
X148908835Y-98460085D02*
X149004073Y-98507704D01*
X149004073Y-98507704D02*
X149099312Y-98602942D01*
X149099312Y-98602942D02*
X149146931Y-98745799D01*
X149146931Y-98745799D02*
X149146931Y-98983894D01*
X151305978Y-101031513D02*
X151305978Y-100269609D01*
X151686931Y-100650561D02*
X150925026Y-100650561D01*
X150686931Y-99317228D02*
X150686931Y-99793418D01*
X150686931Y-99793418D02*
X151163121Y-99841037D01*
X151163121Y-99841037D02*
X151115502Y-99793418D01*
X151115502Y-99793418D02*
X151067883Y-99698180D01*
X151067883Y-99698180D02*
X151067883Y-99460085D01*
X151067883Y-99460085D02*
X151115502Y-99364847D01*
X151115502Y-99364847D02*
X151163121Y-99317228D01*
X151163121Y-99317228D02*
X151258359Y-99269609D01*
X151258359Y-99269609D02*
X151496454Y-99269609D01*
X151496454Y-99269609D02*
X151591692Y-99317228D01*
X151591692Y-99317228D02*
X151639312Y-99364847D01*
X151639312Y-99364847D02*
X151686931Y-99460085D01*
X151686931Y-99460085D02*
X151686931Y-99698180D01*
X151686931Y-99698180D02*
X151639312Y-99793418D01*
X151639312Y-99793418D02*
X151591692Y-99841037D01*
X150686931Y-98983894D02*
X151686931Y-98650561D01*
X151686931Y-98650561D02*
X150686931Y-98317228D01*
X138986931Y-99436276D02*
X138986931Y-99912466D01*
X138986931Y-99912466D02*
X137986931Y-99912466D01*
D11*
%TO.C,J2*%
X131353112Y-100375800D02*
X131353112Y-102975800D01*
X128693112Y-102975800D02*
X131353112Y-102975800D01*
X128693112Y-100375800D02*
X131353112Y-100375800D01*
X128693112Y-100375800D02*
X128693112Y-102975800D01*
X128693112Y-99105800D02*
X128693112Y-97775800D01*
X128693112Y-97775800D02*
X130023112Y-97775800D01*
%TO.C,C2*%
X131119112Y-119704800D02*
G75*
G03*
X125879112Y-119704800I-2620000J0D01*
G01*
X125879112Y-119704800D02*
G75*
G03*
X131119112Y-119704800I2620000J0D01*
G01*
X128783112Y-122305800D02*
X128215112Y-122305800D01*
X129017112Y-122265800D02*
X127981112Y-122265800D01*
X129176112Y-122225800D02*
X127822112Y-122225800D01*
X129304112Y-122185800D02*
X127694112Y-122185800D01*
X129414112Y-122145800D02*
X127584112Y-122145800D01*
X129510112Y-122105800D02*
X127488112Y-122105800D01*
X129597112Y-122065800D02*
X127401112Y-122065800D01*
X129677112Y-122025800D02*
X127321112Y-122025800D01*
X127459112Y-121985800D02*
X127248112Y-121985800D01*
X129750112Y-121985800D02*
X129539112Y-121985800D01*
X127459112Y-121945800D02*
X127180112Y-121945800D01*
X129818112Y-121945800D02*
X129539112Y-121945800D01*
X127459112Y-121905800D02*
X127116112Y-121905800D01*
X129882112Y-121905800D02*
X129539112Y-121905800D01*
X127459112Y-121865800D02*
X127056112Y-121865800D01*
X129942112Y-121865800D02*
X129539112Y-121865800D01*
X127459112Y-121825800D02*
X126999112Y-121825800D01*
X129999112Y-121825800D02*
X129539112Y-121825800D01*
X127459112Y-121785800D02*
X126945112Y-121785800D01*
X130053112Y-121785800D02*
X129539112Y-121785800D01*
X127459112Y-121745800D02*
X126894112Y-121745800D01*
X130104112Y-121745800D02*
X129539112Y-121745800D01*
X127459112Y-121705800D02*
X126846112Y-121705800D01*
X130152112Y-121705800D02*
X129539112Y-121705800D01*
X127459112Y-121665800D02*
X126800112Y-121665800D01*
X130198112Y-121665800D02*
X129539112Y-121665800D01*
X127459112Y-121625800D02*
X126756112Y-121625800D01*
X130242112Y-121625800D02*
X129539112Y-121625800D01*
X127459112Y-121585800D02*
X126714112Y-121585800D01*
X130284112Y-121585800D02*
X129539112Y-121585800D01*
X127459112Y-121545800D02*
X126673112Y-121545800D01*
X130325112Y-121545800D02*
X129539112Y-121545800D01*
X127459112Y-121505800D02*
X126635112Y-121505800D01*
X130363112Y-121505800D02*
X129539112Y-121505800D01*
X127459112Y-121465800D02*
X126598112Y-121465800D01*
X130400112Y-121465800D02*
X129539112Y-121465800D01*
X127459112Y-121425800D02*
X126562112Y-121425800D01*
X130436112Y-121425800D02*
X129539112Y-121425800D01*
X127459112Y-121385800D02*
X126528112Y-121385800D01*
X130470112Y-121385800D02*
X129539112Y-121385800D01*
X127459112Y-121345800D02*
X126495112Y-121345800D01*
X130503112Y-121345800D02*
X129539112Y-121345800D01*
X127459112Y-121305800D02*
X126464112Y-121305800D01*
X130534112Y-121305800D02*
X129539112Y-121305800D01*
X127459112Y-121265800D02*
X126434112Y-121265800D01*
X130564112Y-121265800D02*
X129539112Y-121265800D01*
X127459112Y-121225800D02*
X126404112Y-121225800D01*
X130594112Y-121225800D02*
X129539112Y-121225800D01*
X127459112Y-121185800D02*
X126377112Y-121185800D01*
X130621112Y-121185800D02*
X129539112Y-121185800D01*
X127459112Y-121145800D02*
X126350112Y-121145800D01*
X130648112Y-121145800D02*
X129539112Y-121145800D01*
X127459112Y-121105800D02*
X126324112Y-121105800D01*
X130674112Y-121105800D02*
X129539112Y-121105800D01*
X127459112Y-121065800D02*
X126299112Y-121065800D01*
X130699112Y-121065800D02*
X129539112Y-121065800D01*
X127459112Y-121025800D02*
X126275112Y-121025800D01*
X130723112Y-121025800D02*
X129539112Y-121025800D01*
X127459112Y-120985800D02*
X126252112Y-120985800D01*
X130746112Y-120985800D02*
X129539112Y-120985800D01*
X127459112Y-120945800D02*
X126231112Y-120945800D01*
X130767112Y-120945800D02*
X129539112Y-120945800D01*
X127459112Y-120905800D02*
X126209112Y-120905800D01*
X130789112Y-120905800D02*
X129539112Y-120905800D01*
X127459112Y-120865800D02*
X126189112Y-120865800D01*
X130809112Y-120865800D02*
X129539112Y-120865800D01*
X127459112Y-120825800D02*
X126170112Y-120825800D01*
X130828112Y-120825800D02*
X129539112Y-120825800D01*
X127459112Y-120785800D02*
X126151112Y-120785800D01*
X130847112Y-120785800D02*
X129539112Y-120785800D01*
X127459112Y-120745800D02*
X126134112Y-120745800D01*
X130864112Y-120745800D02*
X129539112Y-120745800D01*
X127459112Y-120705800D02*
X126117112Y-120705800D01*
X130881112Y-120705800D02*
X129539112Y-120705800D01*
X127459112Y-120665800D02*
X126101112Y-120665800D01*
X130897112Y-120665800D02*
X129539112Y-120665800D01*
X127459112Y-120625800D02*
X126085112Y-120625800D01*
X130913112Y-120625800D02*
X129539112Y-120625800D01*
X127459112Y-120585800D02*
X126071112Y-120585800D01*
X130927112Y-120585800D02*
X129539112Y-120585800D01*
X127459112Y-120545800D02*
X126057112Y-120545800D01*
X130941112Y-120545800D02*
X129539112Y-120545800D01*
X127459112Y-120505800D02*
X126044112Y-120505800D01*
X130954112Y-120505800D02*
X129539112Y-120505800D01*
X127459112Y-120465800D02*
X126031112Y-120465800D01*
X130967112Y-120465800D02*
X129539112Y-120465800D01*
X127459112Y-120425800D02*
X126019112Y-120425800D01*
X130979112Y-120425800D02*
X129539112Y-120425800D01*
X127459112Y-120384800D02*
X126008112Y-120384800D01*
X130990112Y-120384800D02*
X129539112Y-120384800D01*
X127459112Y-120344800D02*
X125998112Y-120344800D01*
X131000112Y-120344800D02*
X129539112Y-120344800D01*
X127459112Y-120304800D02*
X125988112Y-120304800D01*
X131010112Y-120304800D02*
X129539112Y-120304800D01*
X127459112Y-120264800D02*
X125979112Y-120264800D01*
X131019112Y-120264800D02*
X129539112Y-120264800D01*
X127459112Y-120224800D02*
X125971112Y-120224800D01*
X131027112Y-120224800D02*
X129539112Y-120224800D01*
X127459112Y-120184800D02*
X125963112Y-120184800D01*
X131035112Y-120184800D02*
X129539112Y-120184800D01*
X127459112Y-120144800D02*
X125956112Y-120144800D01*
X131042112Y-120144800D02*
X129539112Y-120144800D01*
X127459112Y-120104800D02*
X125949112Y-120104800D01*
X131049112Y-120104800D02*
X129539112Y-120104800D01*
X127459112Y-120064800D02*
X125943112Y-120064800D01*
X131055112Y-120064800D02*
X129539112Y-120064800D01*
X127459112Y-120024800D02*
X125938112Y-120024800D01*
X131060112Y-120024800D02*
X129539112Y-120024800D01*
X127459112Y-119984800D02*
X125934112Y-119984800D01*
X131064112Y-119984800D02*
X129539112Y-119984800D01*
X127459112Y-119944800D02*
X125930112Y-119944800D01*
X131068112Y-119944800D02*
X129539112Y-119944800D01*
X131072112Y-119904800D02*
X125926112Y-119904800D01*
X131075112Y-119864800D02*
X125923112Y-119864800D01*
X131077112Y-119824800D02*
X125921112Y-119824800D01*
X131078112Y-119784800D02*
X125920112Y-119784800D01*
X131079112Y-119744800D02*
X125919112Y-119744800D01*
X131079112Y-119704800D02*
X125919112Y-119704800D01*
X130224112Y-117150025D02*
X129724112Y-117150025D01*
X129974112Y-116900025D02*
X129974112Y-117400025D01*
%TO.C,J1*%
X126784112Y-125890300D02*
X126784112Y-124890300D01*
X126784112Y-124890300D02*
X126284112Y-125390300D01*
X126284112Y-125390300D02*
X126784112Y-125890300D01*
X125984112Y-134690300D02*
X125984112Y-123290300D01*
X125984112Y-134690300D02*
X125684112Y-134690300D01*
X125984112Y-123290300D02*
X121384112Y-123290300D01*
X125684112Y-134690300D02*
X125684112Y-137490300D01*
X119884112Y-137490300D02*
X125684112Y-137490300D01*
X119884112Y-134690300D02*
X119884112Y-137490300D01*
X119884112Y-134690300D02*
X118684112Y-134690300D01*
X118684112Y-134690300D02*
X118684112Y-123290300D01*
X118684112Y-123290300D02*
X119784112Y-123290300D01*
%TO.C,SW1*%
X133379112Y-129449800D02*
X141979112Y-129449800D01*
X133379112Y-134049800D02*
X135579112Y-134049800D01*
X139679112Y-134049800D02*
X141979112Y-134049800D01*
%TO.C,L1*%
X140344852Y-113959800D02*
G75*
G03*
X146053372Y-113959800I2854260J1260000D01*
G01*
X146053372Y-111439800D02*
G75*
G03*
X140344852Y-111439800I-2854260J-1260000D01*
G01*
D10*
%TO.C,U1*%
X156127612Y-133683300D02*
X156127612Y-135303300D01*
D11*
X156107612Y-128743300D02*
X156107612Y-131973300D01*
D10*
X146907612Y-135303300D02*
X156097612Y-135303300D01*
X146907612Y-135303300D02*
X146907612Y-133693300D01*
D11*
X146907612Y-128743300D02*
X146907612Y-131963300D01*
%TO.C,C4*%
X148944000Y-119684800D02*
G75*
G03*
X143704000Y-119684800I-2620000J0D01*
G01*
X143704000Y-119684800D02*
G75*
G03*
X148944000Y-119684800I2620000J0D01*
G01*
X148925000Y-119400800D02*
X148925000Y-119968800D01*
X148885000Y-119166800D02*
X148885000Y-120202800D01*
X148845000Y-119007800D02*
X148845000Y-120361800D01*
X148805000Y-118879800D02*
X148805000Y-120489800D01*
X148765000Y-118769800D02*
X148765000Y-120599800D01*
X148725000Y-118673800D02*
X148725000Y-120695800D01*
X148685000Y-118586800D02*
X148685000Y-120782800D01*
X148645000Y-118506800D02*
X148645000Y-120862800D01*
X148605000Y-120724800D02*
X148605000Y-120935800D01*
X148605000Y-118433800D02*
X148605000Y-118644800D01*
X148565000Y-120724800D02*
X148565000Y-121003800D01*
X148565000Y-118365800D02*
X148565000Y-118644800D01*
X148525000Y-120724800D02*
X148525000Y-121067800D01*
X148525000Y-118301800D02*
X148525000Y-118644800D01*
X148485000Y-120724800D02*
X148485000Y-121127800D01*
X148485000Y-118241800D02*
X148485000Y-118644800D01*
X148445000Y-120724800D02*
X148445000Y-121184800D01*
X148445000Y-118184800D02*
X148445000Y-118644800D01*
X148405000Y-120724800D02*
X148405000Y-121238800D01*
X148405000Y-118130800D02*
X148405000Y-118644800D01*
X148365000Y-120724800D02*
X148365000Y-121289800D01*
X148365000Y-118079800D02*
X148365000Y-118644800D01*
X148325000Y-120724800D02*
X148325000Y-121337800D01*
X148325000Y-118031800D02*
X148325000Y-118644800D01*
X148285000Y-120724800D02*
X148285000Y-121383800D01*
X148285000Y-117985800D02*
X148285000Y-118644800D01*
X148245000Y-120724800D02*
X148245000Y-121427800D01*
X148245000Y-117941800D02*
X148245000Y-118644800D01*
X148205000Y-120724800D02*
X148205000Y-121469800D01*
X148205000Y-117899800D02*
X148205000Y-118644800D01*
X148165000Y-120724800D02*
X148165000Y-121510800D01*
X148165000Y-117858800D02*
X148165000Y-118644800D01*
X148125000Y-120724800D02*
X148125000Y-121548800D01*
X148125000Y-117820800D02*
X148125000Y-118644800D01*
X148085000Y-120724800D02*
X148085000Y-121585800D01*
X148085000Y-117783800D02*
X148085000Y-118644800D01*
X148045000Y-120724800D02*
X148045000Y-121621800D01*
X148045000Y-117747800D02*
X148045000Y-118644800D01*
X148005000Y-120724800D02*
X148005000Y-121655800D01*
X148005000Y-117713800D02*
X148005000Y-118644800D01*
X147965000Y-120724800D02*
X147965000Y-121688800D01*
X147965000Y-117680800D02*
X147965000Y-118644800D01*
X147925000Y-120724800D02*
X147925000Y-121719800D01*
X147925000Y-117649800D02*
X147925000Y-118644800D01*
X147885000Y-120724800D02*
X147885000Y-121749800D01*
X147885000Y-117619800D02*
X147885000Y-118644800D01*
X147845000Y-120724800D02*
X147845000Y-121779800D01*
X147845000Y-117589800D02*
X147845000Y-118644800D01*
X147805000Y-120724800D02*
X147805000Y-121806800D01*
X147805000Y-117562800D02*
X147805000Y-118644800D01*
X147765000Y-120724800D02*
X147765000Y-121833800D01*
X147765000Y-117535800D02*
X147765000Y-118644800D01*
X147725000Y-120724800D02*
X147725000Y-121859800D01*
X147725000Y-117509800D02*
X147725000Y-118644800D01*
X147685000Y-120724800D02*
X147685000Y-121884800D01*
X147685000Y-117484800D02*
X147685000Y-118644800D01*
X147645000Y-120724800D02*
X147645000Y-121908800D01*
X147645000Y-117460800D02*
X147645000Y-118644800D01*
X147605000Y-120724800D02*
X147605000Y-121931800D01*
X147605000Y-117437800D02*
X147605000Y-118644800D01*
X147565000Y-120724800D02*
X147565000Y-121952800D01*
X147565000Y-117416800D02*
X147565000Y-118644800D01*
X147525000Y-120724800D02*
X147525000Y-121974800D01*
X147525000Y-117394800D02*
X147525000Y-118644800D01*
X147485000Y-120724800D02*
X147485000Y-121994800D01*
X147485000Y-117374800D02*
X147485000Y-118644800D01*
X147445000Y-120724800D02*
X147445000Y-122013800D01*
X147445000Y-117355800D02*
X147445000Y-118644800D01*
X147405000Y-120724800D02*
X147405000Y-122032800D01*
X147405000Y-117336800D02*
X147405000Y-118644800D01*
X147365000Y-120724800D02*
X147365000Y-122049800D01*
X147365000Y-117319800D02*
X147365000Y-118644800D01*
X147325000Y-120724800D02*
X147325000Y-122066800D01*
X147325000Y-117302800D02*
X147325000Y-118644800D01*
X147285000Y-120724800D02*
X147285000Y-122082800D01*
X147285000Y-117286800D02*
X147285000Y-118644800D01*
X147245000Y-120724800D02*
X147245000Y-122098800D01*
X147245000Y-117270800D02*
X147245000Y-118644800D01*
X147205000Y-120724800D02*
X147205000Y-122112800D01*
X147205000Y-117256800D02*
X147205000Y-118644800D01*
X147165000Y-120724800D02*
X147165000Y-122126800D01*
X147165000Y-117242800D02*
X147165000Y-118644800D01*
X147125000Y-120724800D02*
X147125000Y-122139800D01*
X147125000Y-117229800D02*
X147125000Y-118644800D01*
X147085000Y-120724800D02*
X147085000Y-122152800D01*
X147085000Y-117216800D02*
X147085000Y-118644800D01*
X147045000Y-120724800D02*
X147045000Y-122164800D01*
X147045000Y-117204800D02*
X147045000Y-118644800D01*
X147004000Y-120724800D02*
X147004000Y-122175800D01*
X147004000Y-117193800D02*
X147004000Y-118644800D01*
X146964000Y-120724800D02*
X146964000Y-122185800D01*
X146964000Y-117183800D02*
X146964000Y-118644800D01*
X146924000Y-120724800D02*
X146924000Y-122195800D01*
X146924000Y-117173800D02*
X146924000Y-118644800D01*
X146884000Y-120724800D02*
X146884000Y-122204800D01*
X146884000Y-117164800D02*
X146884000Y-118644800D01*
X146844000Y-120724800D02*
X146844000Y-122212800D01*
X146844000Y-117156800D02*
X146844000Y-118644800D01*
X146804000Y-120724800D02*
X146804000Y-122220800D01*
X146804000Y-117148800D02*
X146804000Y-118644800D01*
X146764000Y-120724800D02*
X146764000Y-122227800D01*
X146764000Y-117141800D02*
X146764000Y-118644800D01*
X146724000Y-120724800D02*
X146724000Y-122234800D01*
X146724000Y-117134800D02*
X146724000Y-118644800D01*
X146684000Y-120724800D02*
X146684000Y-122240800D01*
X146684000Y-117128800D02*
X146684000Y-118644800D01*
X146644000Y-120724800D02*
X146644000Y-122245800D01*
X146644000Y-117123800D02*
X146644000Y-118644800D01*
X146604000Y-120724800D02*
X146604000Y-122249800D01*
X146604000Y-117119800D02*
X146604000Y-118644800D01*
X146564000Y-120724800D02*
X146564000Y-122253800D01*
X146564000Y-117115800D02*
X146564000Y-118644800D01*
X146524000Y-117111800D02*
X146524000Y-122257800D01*
X146484000Y-117108800D02*
X146484000Y-122260800D01*
X146444000Y-117106800D02*
X146444000Y-122262800D01*
X146404000Y-117105800D02*
X146404000Y-122263800D01*
X146364000Y-117104800D02*
X146364000Y-122264800D01*
X146324000Y-117104800D02*
X146324000Y-122264800D01*
X143769225Y-117959800D02*
X143769225Y-118459800D01*
X143519225Y-118209800D02*
X144019225Y-118209800D01*
%TO.C,C3*%
X142529112Y-119684800D02*
G75*
G03*
X137289112Y-119684800I-2620000J0D01*
G01*
X137289112Y-119684800D02*
G75*
G03*
X142529112Y-119684800I2620000J0D01*
G01*
X137308112Y-119968800D02*
X137308112Y-119400800D01*
X137348112Y-120202800D02*
X137348112Y-119166800D01*
X137388112Y-120361800D02*
X137388112Y-119007800D01*
X137428112Y-120489800D02*
X137428112Y-118879800D01*
X137468112Y-120599800D02*
X137468112Y-118769800D01*
X137508112Y-120695800D02*
X137508112Y-118673800D01*
X137548112Y-120782800D02*
X137548112Y-118586800D01*
X137588112Y-120862800D02*
X137588112Y-118506800D01*
X137628112Y-118644800D02*
X137628112Y-118433800D01*
X137628112Y-120935800D02*
X137628112Y-120724800D01*
X137668112Y-118644800D02*
X137668112Y-118365800D01*
X137668112Y-121003800D02*
X137668112Y-120724800D01*
X137708112Y-118644800D02*
X137708112Y-118301800D01*
X137708112Y-121067800D02*
X137708112Y-120724800D01*
X137748112Y-118644800D02*
X137748112Y-118241800D01*
X137748112Y-121127800D02*
X137748112Y-120724800D01*
X137788112Y-118644800D02*
X137788112Y-118184800D01*
X137788112Y-121184800D02*
X137788112Y-120724800D01*
X137828112Y-118644800D02*
X137828112Y-118130800D01*
X137828112Y-121238800D02*
X137828112Y-120724800D01*
X137868112Y-118644800D02*
X137868112Y-118079800D01*
X137868112Y-121289800D02*
X137868112Y-120724800D01*
X137908112Y-118644800D02*
X137908112Y-118031800D01*
X137908112Y-121337800D02*
X137908112Y-120724800D01*
X137948112Y-118644800D02*
X137948112Y-117985800D01*
X137948112Y-121383800D02*
X137948112Y-120724800D01*
X137988112Y-118644800D02*
X137988112Y-117941800D01*
X137988112Y-121427800D02*
X137988112Y-120724800D01*
X138028112Y-118644800D02*
X138028112Y-117899800D01*
X138028112Y-121469800D02*
X138028112Y-120724800D01*
X138068112Y-118644800D02*
X138068112Y-117858800D01*
X138068112Y-121510800D02*
X138068112Y-120724800D01*
X138108112Y-118644800D02*
X138108112Y-117820800D01*
X138108112Y-121548800D02*
X138108112Y-120724800D01*
X138148112Y-118644800D02*
X138148112Y-117783800D01*
X138148112Y-121585800D02*
X138148112Y-120724800D01*
X138188112Y-118644800D02*
X138188112Y-117747800D01*
X138188112Y-121621800D02*
X138188112Y-120724800D01*
X138228112Y-118644800D02*
X138228112Y-117713800D01*
X138228112Y-121655800D02*
X138228112Y-120724800D01*
X138268112Y-118644800D02*
X138268112Y-117680800D01*
X138268112Y-121688800D02*
X138268112Y-120724800D01*
X138308112Y-118644800D02*
X138308112Y-117649800D01*
X138308112Y-121719800D02*
X138308112Y-120724800D01*
X138348112Y-118644800D02*
X138348112Y-117619800D01*
X138348112Y-121749800D02*
X138348112Y-120724800D01*
X138388112Y-118644800D02*
X138388112Y-117589800D01*
X138388112Y-121779800D02*
X138388112Y-120724800D01*
X138428112Y-118644800D02*
X138428112Y-117562800D01*
X138428112Y-121806800D02*
X138428112Y-120724800D01*
X138468112Y-118644800D02*
X138468112Y-117535800D01*
X138468112Y-121833800D02*
X138468112Y-120724800D01*
X138508112Y-118644800D02*
X138508112Y-117509800D01*
X138508112Y-121859800D02*
X138508112Y-120724800D01*
X138548112Y-118644800D02*
X138548112Y-117484800D01*
X138548112Y-121884800D02*
X138548112Y-120724800D01*
X138588112Y-118644800D02*
X138588112Y-117460800D01*
X138588112Y-121908800D02*
X138588112Y-120724800D01*
X138628112Y-118644800D02*
X138628112Y-117437800D01*
X138628112Y-121931800D02*
X138628112Y-120724800D01*
X138668112Y-118644800D02*
X138668112Y-117416800D01*
X138668112Y-121952800D02*
X138668112Y-120724800D01*
X138708112Y-118644800D02*
X138708112Y-117394800D01*
X138708112Y-121974800D02*
X138708112Y-120724800D01*
X138748112Y-118644800D02*
X138748112Y-117374800D01*
X138748112Y-121994800D02*
X138748112Y-120724800D01*
X138788112Y-118644800D02*
X138788112Y-117355800D01*
X138788112Y-122013800D02*
X138788112Y-120724800D01*
X138828112Y-118644800D02*
X138828112Y-117336800D01*
X138828112Y-122032800D02*
X138828112Y-120724800D01*
X138868112Y-118644800D02*
X138868112Y-117319800D01*
X138868112Y-122049800D02*
X138868112Y-120724800D01*
X138908112Y-118644800D02*
X138908112Y-117302800D01*
X138908112Y-122066800D02*
X138908112Y-120724800D01*
X138948112Y-118644800D02*
X138948112Y-117286800D01*
X138948112Y-122082800D02*
X138948112Y-120724800D01*
X138988112Y-118644800D02*
X138988112Y-117270800D01*
X138988112Y-122098800D02*
X138988112Y-120724800D01*
X139028112Y-118644800D02*
X139028112Y-117256800D01*
X139028112Y-122112800D02*
X139028112Y-120724800D01*
X139068112Y-118644800D02*
X139068112Y-117242800D01*
X139068112Y-122126800D02*
X139068112Y-120724800D01*
X139108112Y-118644800D02*
X139108112Y-117229800D01*
X139108112Y-122139800D02*
X139108112Y-120724800D01*
X139148112Y-118644800D02*
X139148112Y-117216800D01*
X139148112Y-122152800D02*
X139148112Y-120724800D01*
X139188112Y-118644800D02*
X139188112Y-117204800D01*
X139188112Y-122164800D02*
X139188112Y-120724800D01*
X139229112Y-118644800D02*
X139229112Y-117193800D01*
X139229112Y-122175800D02*
X139229112Y-120724800D01*
X139269112Y-118644800D02*
X139269112Y-117183800D01*
X139269112Y-122185800D02*
X139269112Y-120724800D01*
X139309112Y-118644800D02*
X139309112Y-117173800D01*
X139309112Y-122195800D02*
X139309112Y-120724800D01*
X139349112Y-118644800D02*
X139349112Y-117164800D01*
X139349112Y-122204800D02*
X139349112Y-120724800D01*
X139389112Y-118644800D02*
X139389112Y-117156800D01*
X139389112Y-122212800D02*
X139389112Y-120724800D01*
X139429112Y-118644800D02*
X139429112Y-117148800D01*
X139429112Y-122220800D02*
X139429112Y-120724800D01*
X139469112Y-118644800D02*
X139469112Y-117141800D01*
X139469112Y-122227800D02*
X139469112Y-120724800D01*
X139509112Y-118644800D02*
X139509112Y-117134800D01*
X139509112Y-122234800D02*
X139509112Y-120724800D01*
X139549112Y-118644800D02*
X139549112Y-117128800D01*
X139549112Y-122240800D02*
X139549112Y-120724800D01*
X139589112Y-118644800D02*
X139589112Y-117123800D01*
X139589112Y-122245800D02*
X139589112Y-120724800D01*
X139629112Y-118644800D02*
X139629112Y-117119800D01*
X139629112Y-122249800D02*
X139629112Y-120724800D01*
X139669112Y-118644800D02*
X139669112Y-117115800D01*
X139669112Y-122253800D02*
X139669112Y-120724800D01*
X139709112Y-122257800D02*
X139709112Y-117111800D01*
X139749112Y-122260800D02*
X139749112Y-117108800D01*
X139789112Y-122262800D02*
X139789112Y-117106800D01*
X139829112Y-122263800D02*
X139829112Y-117105800D01*
X139869112Y-122264800D02*
X139869112Y-117104800D01*
X139909112Y-122264800D02*
X139909112Y-117104800D01*
X142463887Y-121409800D02*
X142463887Y-120909800D01*
X142713887Y-121159800D02*
X142213887Y-121159800D01*
%TO.C,D1*%
X130549112Y-57277300D02*
X130549112Y-57457300D01*
X130549112Y-57277300D02*
X133969112Y-57277300D01*
X130549112Y-59617300D02*
X130549112Y-59797300D01*
X130549112Y-59797300D02*
X133969112Y-59797300D01*
X130669112Y-57277300D02*
X130669112Y-57457300D01*
X130669112Y-59617300D02*
X130669112Y-59797300D01*
X130789112Y-57277300D02*
X130789112Y-57457300D01*
X130789112Y-59617300D02*
X130789112Y-59797300D01*
X133969112Y-57277300D02*
X133969112Y-57442300D01*
X133969112Y-59632300D02*
X133969112Y-59797300D01*
%TO.C,SW2*%
X126944112Y-62574800D02*
X126944112Y-63084800D01*
X126944112Y-57874800D02*
X126944112Y-59974800D01*
X126424112Y-63084800D02*
X126944112Y-63084800D01*
X126424112Y-62574800D02*
X126424112Y-63084800D01*
X126424112Y-59744800D02*
X126424112Y-59974800D01*
X125884112Y-59744800D02*
X126424112Y-59744800D01*
X121384112Y-59744800D02*
X124784112Y-59744800D01*
X119744112Y-62574800D02*
X119744112Y-63084800D01*
X119744112Y-59744800D02*
X120284112Y-59744800D01*
X119744112Y-59744800D02*
X119744112Y-59974800D01*
X119224112Y-63084800D02*
X119744112Y-63084800D01*
X119224112Y-62574800D02*
X119224112Y-63084800D01*
X119224112Y-57874800D02*
X119224112Y-59974800D01*
%TO.C,J3*%
X155586112Y-56611300D02*
X155586112Y-64811300D01*
X147886112Y-60711300D02*
X147386112Y-60211300D01*
X147386112Y-64811300D02*
X155586112Y-64811300D01*
X147386112Y-61211300D02*
X147886112Y-60711300D01*
X147386112Y-56611300D02*
X155586112Y-56611300D01*
X147386112Y-56611300D02*
X147386112Y-64811300D01*
%TO.C,C1*%
X124134112Y-119704800D02*
G75*
G03*
X118894112Y-119704800I-2620000J0D01*
G01*
X118894112Y-119704800D02*
G75*
G03*
X124134112Y-119704800I2620000J0D01*
G01*
X121798112Y-122305800D02*
X121230112Y-122305800D01*
X122032112Y-122265800D02*
X120996112Y-122265800D01*
X122191112Y-122225800D02*
X120837112Y-122225800D01*
X122319112Y-122185800D02*
X120709112Y-122185800D01*
X122429112Y-122145800D02*
X120599112Y-122145800D01*
X122525112Y-122105800D02*
X120503112Y-122105800D01*
X122612112Y-122065800D02*
X120416112Y-122065800D01*
X122692112Y-122025800D02*
X120336112Y-122025800D01*
X120474112Y-121985800D02*
X120263112Y-121985800D01*
X122765112Y-121985800D02*
X122554112Y-121985800D01*
X120474112Y-121945800D02*
X120195112Y-121945800D01*
X122833112Y-121945800D02*
X122554112Y-121945800D01*
X120474112Y-121905800D02*
X120131112Y-121905800D01*
X122897112Y-121905800D02*
X122554112Y-121905800D01*
X120474112Y-121865800D02*
X120071112Y-121865800D01*
X122957112Y-121865800D02*
X122554112Y-121865800D01*
X120474112Y-121825800D02*
X120014112Y-121825800D01*
X123014112Y-121825800D02*
X122554112Y-121825800D01*
X120474112Y-121785800D02*
X119960112Y-121785800D01*
X123068112Y-121785800D02*
X122554112Y-121785800D01*
X120474112Y-121745800D02*
X119909112Y-121745800D01*
X123119112Y-121745800D02*
X122554112Y-121745800D01*
X120474112Y-121705800D02*
X119861112Y-121705800D01*
X123167112Y-121705800D02*
X122554112Y-121705800D01*
X120474112Y-121665800D02*
X119815112Y-121665800D01*
X123213112Y-121665800D02*
X122554112Y-121665800D01*
X120474112Y-121625800D02*
X119771112Y-121625800D01*
X123257112Y-121625800D02*
X122554112Y-121625800D01*
X120474112Y-121585800D02*
X119729112Y-121585800D01*
X123299112Y-121585800D02*
X122554112Y-121585800D01*
X120474112Y-121545800D02*
X119688112Y-121545800D01*
X123340112Y-121545800D02*
X122554112Y-121545800D01*
X120474112Y-121505800D02*
X119650112Y-121505800D01*
X123378112Y-121505800D02*
X122554112Y-121505800D01*
X120474112Y-121465800D02*
X119613112Y-121465800D01*
X123415112Y-121465800D02*
X122554112Y-121465800D01*
X120474112Y-121425800D02*
X119577112Y-121425800D01*
X123451112Y-121425800D02*
X122554112Y-121425800D01*
X120474112Y-121385800D02*
X119543112Y-121385800D01*
X123485112Y-121385800D02*
X122554112Y-121385800D01*
X120474112Y-121345800D02*
X119510112Y-121345800D01*
X123518112Y-121345800D02*
X122554112Y-121345800D01*
X120474112Y-121305800D02*
X119479112Y-121305800D01*
X123549112Y-121305800D02*
X122554112Y-121305800D01*
X120474112Y-121265800D02*
X119449112Y-121265800D01*
X123579112Y-121265800D02*
X122554112Y-121265800D01*
X120474112Y-121225800D02*
X119419112Y-121225800D01*
X123609112Y-121225800D02*
X122554112Y-121225800D01*
X120474112Y-121185800D02*
X119392112Y-121185800D01*
X123636112Y-121185800D02*
X122554112Y-121185800D01*
X120474112Y-121145800D02*
X119365112Y-121145800D01*
X123663112Y-121145800D02*
X122554112Y-121145800D01*
X120474112Y-121105800D02*
X119339112Y-121105800D01*
X123689112Y-121105800D02*
X122554112Y-121105800D01*
X120474112Y-121065800D02*
X119314112Y-121065800D01*
X123714112Y-121065800D02*
X122554112Y-121065800D01*
X120474112Y-121025800D02*
X119290112Y-121025800D01*
X123738112Y-121025800D02*
X122554112Y-121025800D01*
X120474112Y-120985800D02*
X119267112Y-120985800D01*
X123761112Y-120985800D02*
X122554112Y-120985800D01*
X120474112Y-120945800D02*
X119246112Y-120945800D01*
X123782112Y-120945800D02*
X122554112Y-120945800D01*
X120474112Y-120905800D02*
X119224112Y-120905800D01*
X123804112Y-120905800D02*
X122554112Y-120905800D01*
X120474112Y-120865800D02*
X119204112Y-120865800D01*
X123824112Y-120865800D02*
X122554112Y-120865800D01*
X120474112Y-120825800D02*
X119185112Y-120825800D01*
X123843112Y-120825800D02*
X122554112Y-120825800D01*
X120474112Y-120785800D02*
X119166112Y-120785800D01*
X123862112Y-120785800D02*
X122554112Y-120785800D01*
X120474112Y-120745800D02*
X119149112Y-120745800D01*
X123879112Y-120745800D02*
X122554112Y-120745800D01*
X120474112Y-120705800D02*
X119132112Y-120705800D01*
X123896112Y-120705800D02*
X122554112Y-120705800D01*
X120474112Y-120665800D02*
X119116112Y-120665800D01*
X123912112Y-120665800D02*
X122554112Y-120665800D01*
X120474112Y-120625800D02*
X119100112Y-120625800D01*
X123928112Y-120625800D02*
X122554112Y-120625800D01*
X120474112Y-120585800D02*
X119086112Y-120585800D01*
X123942112Y-120585800D02*
X122554112Y-120585800D01*
X120474112Y-120545800D02*
X119072112Y-120545800D01*
X123956112Y-120545800D02*
X122554112Y-120545800D01*
X120474112Y-120505800D02*
X119059112Y-120505800D01*
X123969112Y-120505800D02*
X122554112Y-120505800D01*
X120474112Y-120465800D02*
X119046112Y-120465800D01*
X123982112Y-120465800D02*
X122554112Y-120465800D01*
X120474112Y-120425800D02*
X119034112Y-120425800D01*
X123994112Y-120425800D02*
X122554112Y-120425800D01*
X120474112Y-120384800D02*
X119023112Y-120384800D01*
X124005112Y-120384800D02*
X122554112Y-120384800D01*
X120474112Y-120344800D02*
X119013112Y-120344800D01*
X124015112Y-120344800D02*
X122554112Y-120344800D01*
X120474112Y-120304800D02*
X119003112Y-120304800D01*
X124025112Y-120304800D02*
X122554112Y-120304800D01*
X120474112Y-120264800D02*
X118994112Y-120264800D01*
X124034112Y-120264800D02*
X122554112Y-120264800D01*
X120474112Y-120224800D02*
X118986112Y-120224800D01*
X124042112Y-120224800D02*
X122554112Y-120224800D01*
X120474112Y-120184800D02*
X118978112Y-120184800D01*
X124050112Y-120184800D02*
X122554112Y-120184800D01*
X120474112Y-120144800D02*
X118971112Y-120144800D01*
X124057112Y-120144800D02*
X122554112Y-120144800D01*
X120474112Y-120104800D02*
X118964112Y-120104800D01*
X124064112Y-120104800D02*
X122554112Y-120104800D01*
X120474112Y-120064800D02*
X118958112Y-120064800D01*
X124070112Y-120064800D02*
X122554112Y-120064800D01*
X120474112Y-120024800D02*
X118953112Y-120024800D01*
X124075112Y-120024800D02*
X122554112Y-120024800D01*
X120474112Y-119984800D02*
X118949112Y-119984800D01*
X124079112Y-119984800D02*
X122554112Y-119984800D01*
X120474112Y-119944800D02*
X118945112Y-119944800D01*
X124083112Y-119944800D02*
X122554112Y-119944800D01*
X124087112Y-119904800D02*
X118941112Y-119904800D01*
X124090112Y-119864800D02*
X118938112Y-119864800D01*
X124092112Y-119824800D02*
X118936112Y-119824800D01*
X124093112Y-119784800D02*
X118935112Y-119784800D01*
X124094112Y-119744800D02*
X118934112Y-119744800D01*
X124094112Y-119704800D02*
X118934112Y-119704800D01*
X123239112Y-117150025D02*
X122739112Y-117150025D01*
X122989112Y-116900025D02*
X122989112Y-117400025D01*
%TO.C,U2*%
X139802112Y-104377800D02*
X152562112Y-104377800D01*
X139802112Y-104377800D02*
X139802112Y-101717800D01*
X152562112Y-104377800D02*
X152562112Y-101717800D01*
X137202112Y-103047800D02*
X137202112Y-101717800D01*
X137202112Y-101717800D02*
X138532112Y-101717800D01*
X139802112Y-101717800D02*
X152562112Y-101717800D01*
X133042112Y-104507800D02*
X153568112Y-104507800D01*
X153568112Y-104507800D02*
X153568112Y-65691800D01*
X153568112Y-65691800D02*
X133042112Y-65691800D01*
X133042112Y-65691800D02*
X133042112Y-104507800D01*
%TD*%
M02*
