%TF.GenerationSoftware,KiCad,Pcbnew,7.0.11+dfsg-1build4*%
%TF.CreationDate,2024-05-02T22:23:34+02:00*%
%TF.ProjectId,X1-01M-carrier,58312d30-314d-42d6-9361-72726965722e,rev?*%
%TF.SameCoordinates,Original*%
%TF.FileFunction,Copper,L2,Bot*%
%TF.FilePolarity,Positive*%
%FSLAX46Y46*%
G04 Gerber Fmt 4.6, Leading zero omitted, Abs format (unit mm)*
G04 Created by KiCad (PCBNEW 7.0.11+dfsg-1build4) date 2024-05-02 22:23:34*
%MOMM*%
%LPD*%
G01*
G04 APERTURE LIST*
G04 Aperture macros list*
%AMRoundRect*
0 Rectangle with rounded corners*
0 $1 Rounding radius*
0 $2 $3 $4 $5 $6 $7 $8 $9 X,Y pos of 4 corners*
0 Add a 4 corners polygon primitive as box body*
4,1,4,$2,$3,$4,$5,$6,$7,$8,$9,$2,$3,0*
0 Add four circle primitives for the rounded corners*
1,1,$1+$1,$2,$3*
1,1,$1+$1,$4,$5*
1,1,$1+$1,$6,$7*
1,1,$1+$1,$8,$9*
0 Add four rect primitives between the rounded corners*
20,1,$1+$1,$2,$3,$4,$5,0*
20,1,$1+$1,$4,$5,$6,$7,0*
20,1,$1+$1,$6,$7,$8,$9,0*
20,1,$1+$1,$8,$9,$2,$3,0*%
G04 Aperture macros list end*
%TA.AperFunction,ComponentPad*%
%ADD10O,1.700000X1.700000*%
%TD*%
%TA.AperFunction,ComponentPad*%
%ADD11R,1.700000X1.700000*%
%TD*%
%TA.AperFunction,ComponentPad*%
%ADD12C,1.600000*%
%TD*%
%TA.AperFunction,ComponentPad*%
%ADD13R,1.600000X1.600000*%
%TD*%
%TA.AperFunction,ComponentPad*%
%ADD14O,1.400000X2.000000*%
%TD*%
%TA.AperFunction,ComponentPad*%
%ADD15R,1.400000X2.000000*%
%TD*%
%TA.AperFunction,ComponentPad*%
%ADD16O,2.200000X3.500000*%
%TD*%
%TA.AperFunction,ComponentPad*%
%ADD17R,1.500000X2.500000*%
%TD*%
%TA.AperFunction,ComponentPad*%
%ADD18O,1.500000X2.500000*%
%TD*%
%TA.AperFunction,ComponentPad*%
%ADD19C,2.000000*%
%TD*%
%TA.AperFunction,ComponentPad*%
%ADD20O,1.100000X1.700000*%
%TD*%
%TA.AperFunction,ComponentPad*%
%ADD21O,1.600000X1.200000*%
%TD*%
%TA.AperFunction,ComponentPad*%
%ADD22R,1.800000X1.800000*%
%TD*%
%TA.AperFunction,ComponentPad*%
%ADD23C,1.800000*%
%TD*%
%TA.AperFunction,ComponentPad*%
%ADD24C,1.750000*%
%TD*%
%TA.AperFunction,ComponentPad*%
%ADD25C,2.100000*%
%TD*%
%TA.AperFunction,ComponentPad*%
%ADD26C,2.500000*%
%TD*%
%TA.AperFunction,ComponentPad*%
%ADD27RoundRect,0.200100X-0.949900X-0.949900X0.949900X-0.949900X0.949900X0.949900X-0.949900X0.949900X0*%
%TD*%
%TA.AperFunction,ViaPad*%
%ADD28C,0.800000*%
%TD*%
%TA.AperFunction,Conductor*%
%ADD29C,1.250000*%
%TD*%
%TA.AperFunction,Conductor*%
%ADD30C,0.500000*%
%TD*%
%TA.AperFunction,Conductor*%
%ADD31C,0.250000*%
%TD*%
G04 APERTURE END LIST*
D10*
%TO.P,J2,2,Pin_2*%
%TO.N,Net-(J2-Pin_2)*%
X130023112Y-101645800D03*
D11*
%TO.P,J2,1,Pin_1*%
%TO.N,Net-(J2-Pin_1)*%
X130023112Y-99105800D03*
%TD*%
D12*
%TO.P,C2,2*%
%TO.N,Net-(C2-Pad2)*%
X128499112Y-120954800D03*
D13*
%TO.P,C2,1*%
%TO.N,Net-(U2-Right_Channel)*%
X128499112Y-118454800D03*
%TD*%
D14*
%TO.P,J1,*%
%TO.N,*%
X119584112Y-132390300D03*
%TO.P,J1,R1*%
%TO.N,Net-(C2-Pad2)*%
X125084112Y-129390300D03*
%TO.P,J1,R2*%
%TO.N,unconnected-(J1-PadR2)*%
X125084112Y-132390300D03*
%TO.P,J1,S*%
%TO.N,GND*%
X120584112Y-123890300D03*
D15*
%TO.P,J1,T*%
%TO.N,Net-(C1-Pad2)*%
X125084112Y-125390300D03*
%TD*%
D16*
%TO.P,SW1,*%
%TO.N,*%
X133579112Y-131749800D03*
X141779112Y-131749800D03*
D17*
%TO.P,SW1,1,A*%
%TO.N,Net-(SW1-A)*%
X135679112Y-131749800D03*
D18*
%TO.P,SW1,2,B*%
%TO.N,Net-(SW1-B)*%
X137679112Y-131749800D03*
%TO.P,SW1,3,C*%
%TO.N,unconnected-(SW1-C-Pad3)*%
X139679112Y-131749800D03*
%TD*%
D19*
%TO.P,L1,2,2*%
%TO.N,+5V*%
X145199112Y-112699800D03*
%TO.P,L1,1,1*%
%TO.N,Net-(SW1-A)*%
X141199112Y-112699800D03*
%TD*%
D20*
%TO.P,U1,S1,SHIELD*%
%TO.N,unconnected-(U1-SHIELD-PadS1)*%
X155847612Y-132823300D03*
X147157612Y-132823300D03*
D21*
%TO.P,U1,2,VBUS*%
%TO.N,Net-(SW1-B)*%
X149697612Y-128743300D03*
%TO.P,U1,1,GND*%
%TO.N,GND*%
X153317612Y-128743300D03*
%TD*%
D12*
%TO.P,C4,2*%
%TO.N,GND*%
X147574000Y-119684800D03*
D13*
%TO.P,C4,1*%
%TO.N,+5V*%
X145074000Y-119684800D03*
%TD*%
D12*
%TO.P,C3,2*%
%TO.N,GND*%
X138659112Y-119684800D03*
D13*
%TO.P,C3,1*%
%TO.N,Net-(SW1-A)*%
X141159112Y-119684800D03*
%TD*%
D22*
%TO.P,D1,1,K*%
%TO.N,GND*%
X130989112Y-58537300D03*
D23*
%TO.P,D1,2,A*%
%TO.N,Net-(D1-A)*%
X133529112Y-58537300D03*
%TD*%
D24*
%TO.P,SW2,2,2*%
%TO.N,Net-(J2-Pin_1)*%
X125334112Y-58774800D03*
%TO.P,SW2,1,1*%
%TO.N,Net-(J2-Pin_2)*%
X120834112Y-58774800D03*
D25*
%TO.P,SW2,*%
%TO.N,*%
X126594112Y-61264800D03*
X119584112Y-61264800D03*
%TD*%
D26*
%TO.P,J3,2,Ext*%
%TO.N,GND*%
X154026112Y-63251300D03*
X154026112Y-58171300D03*
X148946112Y-63251300D03*
X148946112Y-58171300D03*
D27*
%TO.P,J3,1,In*%
%TO.N,Net-(J3-In)*%
X151486112Y-60711300D03*
%TD*%
D12*
%TO.P,C1,2*%
%TO.N,Net-(C1-Pad2)*%
X121514112Y-120954800D03*
D13*
%TO.P,C1,1*%
%TO.N,Net-(U2-Left_Channel)*%
X121514112Y-118454800D03*
%TD*%
D11*
%TO.P,U2,1,Left_Channel*%
%TO.N,Net-(U2-Left_Channel)*%
X138532112Y-103047800D03*
D10*
%TO.P,U2,2,GND*%
%TO.N,GND*%
X141072112Y-103047800D03*
%TO.P,U2,3,Right_Channel*%
%TO.N,Net-(U2-Right_Channel)*%
X143612112Y-103047800D03*
%TO.P,U2,4,GND*%
%TO.N,GND*%
X146152112Y-103047800D03*
%TO.P,U2,5,GND*%
X148692112Y-103047800D03*
%TO.P,U2,6,+5V*%
%TO.N,+5V*%
X151232112Y-103047800D03*
D22*
%TO.P,U2,7,GND*%
%TO.N,GND*%
X150992112Y-86757800D03*
D23*
%TO.P,U2,8,LED*%
%TO.N,Net-(D1-A)*%
X150992112Y-84217800D03*
D11*
%TO.P,U2,9,Antenna*%
%TO.N,Net-(J3-In)*%
X151542112Y-68587800D03*
D10*
%TO.P,U2,10,GND*%
%TO.N,GND*%
X135892112Y-68547800D03*
D11*
%TO.P,U2,11,GND*%
X135892112Y-71087800D03*
%TD*%
D28*
%TO.N,GND*%
X158659112Y-132506300D03*
X158659112Y-129966300D03*
X158659112Y-127426300D03*
X158659112Y-124886300D03*
X158659112Y-122346300D03*
X158659112Y-119806300D03*
X158659112Y-117266300D03*
X158659112Y-114726300D03*
X158659112Y-112186300D03*
X158659112Y-109646300D03*
X158659112Y-107106300D03*
X158659112Y-104566300D03*
X158659112Y-102026300D03*
X158659112Y-99486300D03*
X158659112Y-96946300D03*
X158659112Y-94406300D03*
X158659112Y-91866300D03*
X158659112Y-89326300D03*
X158659112Y-86786300D03*
X158659112Y-84246300D03*
X158659112Y-81706300D03*
X158659112Y-79166300D03*
X158659112Y-76626300D03*
X158659112Y-74086300D03*
X158659112Y-71546300D03*
X158659112Y-69006300D03*
X158659112Y-66466300D03*
X158659112Y-63926300D03*
X158659112Y-61386300D03*
X158659112Y-58846300D03*
X156119112Y-129966300D03*
X156119112Y-127426300D03*
X156119112Y-124886300D03*
X156119112Y-122346300D03*
X156119112Y-119806300D03*
X156119112Y-117266300D03*
X156119112Y-114726300D03*
X156119112Y-112186300D03*
X156119112Y-109646300D03*
X156119112Y-107106300D03*
X156119112Y-104566300D03*
X156119112Y-102026300D03*
X156119112Y-99486300D03*
X156119112Y-96946300D03*
X156119112Y-94406300D03*
X156119112Y-91866300D03*
X156119112Y-89326300D03*
X156119112Y-86786300D03*
X156119112Y-84246300D03*
X156119112Y-81706300D03*
X156119112Y-79166300D03*
X156119112Y-76626300D03*
X156119112Y-74086300D03*
X156119112Y-71546300D03*
X156119112Y-69006300D03*
X156119112Y-66466300D03*
X156119112Y-61386300D03*
X153579112Y-132506300D03*
X153579112Y-124886300D03*
X153579112Y-122346300D03*
X153579112Y-119806300D03*
X153579112Y-117266300D03*
X153579112Y-114726300D03*
X153579112Y-112186300D03*
X153579112Y-109646300D03*
X153579112Y-107106300D03*
X153579112Y-104566300D03*
X153579112Y-102026300D03*
X153579112Y-99486300D03*
X153579112Y-96946300D03*
X153579112Y-94406300D03*
X153579112Y-91866300D03*
X153579112Y-89326300D03*
X153579112Y-86786300D03*
X153579112Y-84246300D03*
X153579112Y-81706300D03*
X153579112Y-79166300D03*
X153579112Y-76626300D03*
X153579112Y-74086300D03*
X153579112Y-71546300D03*
X153579112Y-69006300D03*
X153579112Y-66466300D03*
X151039112Y-132506300D03*
X151039112Y-124886300D03*
X151039112Y-122346300D03*
X151039112Y-119806300D03*
X151039112Y-117266300D03*
X151039112Y-114726300D03*
X151039112Y-99486300D03*
X151039112Y-96946300D03*
X151039112Y-94406300D03*
X151039112Y-91866300D03*
X151039112Y-89326300D03*
X151039112Y-81706300D03*
X151039112Y-79166300D03*
X151039112Y-76626300D03*
X151039112Y-74086300D03*
X151039112Y-71546300D03*
X148499112Y-124886300D03*
X148499112Y-122346300D03*
X148499112Y-117266300D03*
X148499112Y-114726300D03*
X148499112Y-109646300D03*
X148499112Y-107106300D03*
X148499112Y-99486300D03*
X148499112Y-96946300D03*
X148499112Y-94406300D03*
X148499112Y-91866300D03*
X148499112Y-89326300D03*
X148499112Y-86786300D03*
X148499112Y-81706300D03*
X148499112Y-79166300D03*
X148499112Y-76626300D03*
X148499112Y-74086300D03*
X148499112Y-71546300D03*
X148499112Y-69006300D03*
X148499112Y-66466300D03*
X145959112Y-129966300D03*
X145959112Y-124886300D03*
X145959112Y-122346300D03*
X145959112Y-109646300D03*
X145959112Y-107106300D03*
X145959112Y-99486300D03*
X145959112Y-96946300D03*
X145959112Y-94406300D03*
X145959112Y-91866300D03*
X145959112Y-89326300D03*
X145959112Y-86786300D03*
X145959112Y-81706300D03*
X145959112Y-79166300D03*
X145959112Y-76626300D03*
X145959112Y-74086300D03*
X145959112Y-71546300D03*
X145959112Y-69006300D03*
X145959112Y-66466300D03*
X145959112Y-63926300D03*
X145959112Y-61386300D03*
X145959112Y-58846300D03*
X143419112Y-124886300D03*
X143419112Y-122346300D03*
X143419112Y-117266300D03*
X143419112Y-114726300D03*
X143419112Y-109646300D03*
X143419112Y-107106300D03*
X143419112Y-99486300D03*
X143419112Y-96946300D03*
X143419112Y-94406300D03*
X143419112Y-91866300D03*
X143419112Y-89326300D03*
X143419112Y-86786300D03*
X143419112Y-79166300D03*
X143419112Y-76626300D03*
X143419112Y-74086300D03*
X143419112Y-71546300D03*
X143419112Y-69006300D03*
X143419112Y-66466300D03*
X143419112Y-63926300D03*
X143419112Y-61386300D03*
X143419112Y-58846300D03*
X140879112Y-124886300D03*
X140879112Y-109646300D03*
X140879112Y-99486300D03*
X140879112Y-96946300D03*
X140879112Y-94406300D03*
X140879112Y-91866300D03*
X140879112Y-89326300D03*
X140879112Y-86786300D03*
X140879112Y-84246300D03*
X140879112Y-61386300D03*
X140879112Y-58846300D03*
X138339112Y-117266300D03*
X138339112Y-114726300D03*
X138339112Y-112186300D03*
X138339112Y-109646300D03*
X138339112Y-99486300D03*
X138339112Y-96946300D03*
X138339112Y-94406300D03*
X138339112Y-91866300D03*
X138339112Y-89326300D03*
X138339112Y-86786300D03*
X138339112Y-84246300D03*
X138339112Y-81706300D03*
X138339112Y-79166300D03*
X138339112Y-76626300D03*
X138339112Y-74086300D03*
X138339112Y-71546300D03*
X138339112Y-69006300D03*
X138339112Y-66466300D03*
X138339112Y-61386300D03*
X138339112Y-58846300D03*
X135799112Y-119806300D03*
X135799112Y-117266300D03*
X135799112Y-114726300D03*
X135799112Y-112186300D03*
X135799112Y-109646300D03*
X135799112Y-102026300D03*
X135799112Y-99486300D03*
X135799112Y-96946300D03*
X135799112Y-94406300D03*
X135799112Y-91866300D03*
X135799112Y-89326300D03*
X135799112Y-86786300D03*
X135799112Y-84246300D03*
X135799112Y-81706300D03*
X135799112Y-79166300D03*
X135799112Y-76626300D03*
X135799112Y-74086300D03*
X135799112Y-66466300D03*
X135799112Y-61386300D03*
X135799112Y-58846300D03*
X133259112Y-127426300D03*
X133259112Y-124886300D03*
X133259112Y-122346300D03*
X133259112Y-119806300D03*
X133259112Y-117266300D03*
X133259112Y-114726300D03*
X133259112Y-112186300D03*
X133259112Y-109646300D03*
X133259112Y-102026300D03*
X133259112Y-99486300D03*
X133259112Y-96946300D03*
X133259112Y-94406300D03*
X133259112Y-91866300D03*
X133259112Y-89326300D03*
X133259112Y-86786300D03*
X133259112Y-84246300D03*
X133259112Y-81706300D03*
X133259112Y-79166300D03*
X133259112Y-76626300D03*
X133259112Y-74086300D03*
X133259112Y-71546300D03*
X133259112Y-69006300D03*
X133259112Y-66466300D03*
X130719112Y-132506300D03*
X130719112Y-129966300D03*
X130719112Y-127426300D03*
X130719112Y-124886300D03*
X130719112Y-122346300D03*
X130719112Y-119806300D03*
X130719112Y-117266300D03*
X130719112Y-114726300D03*
X130719112Y-112186300D03*
X130719112Y-107106300D03*
X130719112Y-96946300D03*
X130719112Y-94406300D03*
X130719112Y-91866300D03*
X130719112Y-89326300D03*
X130719112Y-86786300D03*
X130719112Y-84246300D03*
X130719112Y-81706300D03*
X130719112Y-79166300D03*
X130719112Y-76626300D03*
X130719112Y-74086300D03*
X130719112Y-71546300D03*
X130719112Y-69006300D03*
X130719112Y-66466300D03*
X130719112Y-63926300D03*
X130719112Y-61386300D03*
X128179112Y-132506300D03*
X128179112Y-129966300D03*
X128179112Y-109646300D03*
X128179112Y-96946300D03*
X128179112Y-94406300D03*
X128179112Y-91866300D03*
X128179112Y-89326300D03*
X128179112Y-86786300D03*
X128179112Y-84246300D03*
X128179112Y-81706300D03*
X128179112Y-79166300D03*
X128179112Y-76626300D03*
X128179112Y-74086300D03*
X128179112Y-71546300D03*
X128179112Y-69006300D03*
X128179112Y-66466300D03*
X128179112Y-63926300D03*
X128179112Y-58846300D03*
X125639112Y-119806300D03*
X125639112Y-117266300D03*
X125639112Y-114726300D03*
X125639112Y-112186300D03*
X125639112Y-104566300D03*
X125639112Y-102026300D03*
X125639112Y-94406300D03*
X125639112Y-91866300D03*
X125639112Y-89326300D03*
X125639112Y-86786300D03*
X125639112Y-84246300D03*
X125639112Y-81706300D03*
X125639112Y-79166300D03*
X125639112Y-76626300D03*
X125639112Y-74086300D03*
X125639112Y-71546300D03*
X125639112Y-69006300D03*
X125639112Y-66466300D03*
X125639112Y-63926300D03*
X123099112Y-127426300D03*
X123099112Y-114726300D03*
X123099112Y-107106300D03*
X123099112Y-104566300D03*
X123099112Y-102026300D03*
X123099112Y-99486300D03*
X120559112Y-129966300D03*
X120559112Y-127426300D03*
X120559112Y-109646300D03*
X120559112Y-107106300D03*
X120559112Y-104566300D03*
X120559112Y-102026300D03*
X120559112Y-99486300D03*
X120559112Y-96946300D03*
X120559112Y-94406300D03*
X120559112Y-91866300D03*
X120559112Y-89326300D03*
X120559112Y-86786300D03*
X120559112Y-84246300D03*
X120559112Y-81706300D03*
X120559112Y-79166300D03*
X120559112Y-76626300D03*
X120559112Y-74086300D03*
X120559112Y-71546300D03*
X120559112Y-69006300D03*
X120559112Y-66466300D03*
X120559112Y-63926300D03*
X118019112Y-129966300D03*
X118019112Y-127426300D03*
X118019112Y-124886300D03*
X118019112Y-122346300D03*
X118019112Y-119806300D03*
X118019112Y-117266300D03*
X118019112Y-114726300D03*
X118019112Y-112186300D03*
X118019112Y-109646300D03*
X118019112Y-107106300D03*
X118019112Y-104566300D03*
X118019112Y-102026300D03*
X118019112Y-99486300D03*
X118019112Y-96946300D03*
X118019112Y-94406300D03*
X118019112Y-91866300D03*
X118019112Y-89326300D03*
X118019112Y-86786300D03*
X118019112Y-84246300D03*
X118019112Y-81706300D03*
X118019112Y-79166300D03*
X118019112Y-76626300D03*
X118019112Y-74086300D03*
X118019112Y-71546300D03*
X118019112Y-69006300D03*
X118019112Y-66466300D03*
X118019112Y-63926300D03*
X118019112Y-58846300D03*
X115479112Y-132506300D03*
X115479112Y-129966300D03*
X115479112Y-127426300D03*
X115479112Y-124886300D03*
X115479112Y-122346300D03*
X115479112Y-119806300D03*
X115479112Y-117266300D03*
X115479112Y-114726300D03*
X115479112Y-112186300D03*
X115479112Y-109646300D03*
X115479112Y-107106300D03*
X115479112Y-104566300D03*
X115479112Y-102026300D03*
X115479112Y-99486300D03*
X115479112Y-96946300D03*
X115479112Y-94406300D03*
X115479112Y-91866300D03*
X115479112Y-89326300D03*
X115479112Y-86786300D03*
X115479112Y-84246300D03*
X115479112Y-81706300D03*
X115479112Y-79166300D03*
X115479112Y-76626300D03*
X115479112Y-74086300D03*
X115479112Y-71546300D03*
X115479112Y-69006300D03*
X115479112Y-66466300D03*
X115479112Y-63926300D03*
X115479112Y-61386300D03*
X115479112Y-58846300D03*
%TD*%
D29*
%TO.N,Net-(SW1-B)*%
X137775612Y-126965300D02*
X149692112Y-126965300D01*
X149692112Y-126965300D02*
X149692112Y-128737800D01*
X149692112Y-128737800D02*
X149697612Y-128743300D01*
X150221612Y-128721800D02*
X150200112Y-128743300D01*
D30*
%TO.N,Net-(D1-A)*%
X141183112Y-65878300D02*
X141183112Y-81245300D01*
X134960112Y-63719300D02*
X139024112Y-63719300D01*
X133529112Y-58537300D02*
X133529112Y-62288300D01*
X141183112Y-81245300D02*
X144155612Y-84217800D01*
X144155612Y-84217800D02*
X150992112Y-84217800D01*
X133529112Y-62288300D02*
X134960112Y-63719300D01*
X139024112Y-63719300D02*
X141183112Y-65878300D01*
%TO.N,Net-(C1-Pad2)*%
X125084112Y-123254800D02*
X125084112Y-125390300D01*
%TO.N,Net-(C2-Pad2)*%
X125084112Y-129390300D02*
X125758612Y-129390300D01*
X125758612Y-129390300D02*
X128499112Y-126649800D01*
%TO.N,Net-(J2-Pin_1)*%
X125334112Y-58774800D02*
X125299612Y-58774800D01*
X123530112Y-60544300D02*
X123530112Y-95723300D01*
X126912612Y-99105800D02*
X130023112Y-99105800D01*
X125299612Y-58774800D02*
X123530112Y-60544300D01*
X123530112Y-95723300D02*
X126912612Y-99105800D01*
%TO.N,Net-(J2-Pin_2)*%
X130023112Y-101645800D02*
X127605112Y-101645800D01*
X127605112Y-101645800D02*
X122514112Y-96554800D01*
X122514112Y-96554800D02*
X122514112Y-60499550D01*
X122514112Y-60499550D02*
X120834112Y-58819550D01*
X120834112Y-58819550D02*
X120834112Y-58774800D01*
D29*
%TO.N,Net-(SW1-B)*%
X137775612Y-126965300D02*
X137775612Y-131653300D01*
X137775612Y-131653300D02*
X137679112Y-131749800D01*
D30*
%TO.N,Net-(U2-Left_Channel)*%
X121514112Y-118454800D02*
X121514112Y-113207800D01*
X121514112Y-113207800D02*
X130489612Y-104232300D01*
X137347612Y-104232300D02*
X138532112Y-103047800D01*
X130489612Y-104232300D02*
X137347612Y-104232300D01*
%TO.N,Net-(U2-Right_Channel)*%
X128499112Y-111963300D02*
X133436112Y-107026300D01*
X139633612Y-107026300D02*
X143612112Y-103047800D01*
X128499112Y-118454800D02*
X128499112Y-111963300D01*
X133436112Y-107026300D02*
X139633612Y-107026300D01*
D29*
%TO.N,+5V*%
X145199112Y-112699800D02*
X150876612Y-112699800D01*
X150876612Y-112699800D02*
X151232112Y-112344300D01*
X151232112Y-112344300D02*
X151232112Y-103047800D01*
X145199112Y-112699800D02*
X145199112Y-119559688D01*
D30*
X145074000Y-119684800D02*
X145074000Y-119114688D01*
D29*
X145199112Y-119559688D02*
X145074000Y-119684800D01*
D30*
%TO.N,Net-(C1-Pad2)*%
X122784112Y-120954800D02*
X125084112Y-123254800D01*
X121514112Y-120954800D02*
X122784112Y-120954800D01*
%TO.N,Net-(C2-Pad2)*%
X128499112Y-120954800D02*
X128499112Y-126649800D01*
D31*
%TO.N,Net-(J2-Pin_2)*%
X121519112Y-59249800D02*
X121519112Y-59437300D01*
D29*
%TO.N,Net-(SW1-A)*%
X141199112Y-119644800D02*
X141199112Y-112699800D01*
X141159112Y-119684800D02*
X141199112Y-119644800D01*
X135679112Y-125164800D02*
X141159112Y-119684800D01*
X135679112Y-131749800D02*
X135679112Y-125164800D01*
%TD*%
%TA.AperFunction,Conductor*%
%TO.N,GND*%
G36*
X148232619Y-102837956D02*
G01*
X148192112Y-102975911D01*
X148192112Y-103119689D01*
X148232619Y-103257644D01*
X148260996Y-103301800D01*
X146583228Y-103301800D01*
X146611605Y-103257644D01*
X146652112Y-103119689D01*
X146652112Y-102975911D01*
X146611605Y-102837956D01*
X146583228Y-102793800D01*
X148260996Y-102793800D01*
X148232619Y-102837956D01*
G37*
%TD.AperFunction*%
%TA.AperFunction,Conductor*%
G36*
X136146112Y-70654125D02*
G01*
X136034427Y-70603120D01*
X135927875Y-70587800D01*
X135856349Y-70587800D01*
X135749797Y-70603120D01*
X135638112Y-70654125D01*
X135638112Y-68981474D01*
X135749797Y-69032480D01*
X135856349Y-69047800D01*
X135927875Y-69047800D01*
X136034427Y-69032480D01*
X136146112Y-68981474D01*
X136146112Y-70654125D01*
G37*
%TD.AperFunction*%
%TA.AperFunction,Conductor*%
G36*
X160251433Y-56093902D02*
G01*
X160297926Y-56147558D01*
X160309312Y-56199900D01*
X160309312Y-134484700D01*
X160289310Y-134552821D01*
X160235654Y-134599314D01*
X160183312Y-134610700D01*
X113216712Y-134610700D01*
X113148591Y-134590698D01*
X113102098Y-134537042D01*
X113090712Y-134484700D01*
X113090712Y-132744576D01*
X118375612Y-132744576D01*
X118380517Y-132799070D01*
X118390227Y-132906959D01*
X118390229Y-132906970D01*
X118448096Y-133116644D01*
X118448101Y-133116658D01*
X118542480Y-133312639D01*
X118542485Y-133312647D01*
X118670346Y-133488633D01*
X118670347Y-133488634D01*
X118827576Y-133638961D01*
X118941584Y-133714217D01*
X119009127Y-133758801D01*
X119209155Y-133844298D01*
X119209156Y-133844298D01*
X119209158Y-133844299D01*
X119270666Y-133858337D01*
X119421235Y-133892704D01*
X119638550Y-133902463D01*
X119854116Y-133873263D01*
X120061003Y-133806041D01*
X120252562Y-133702959D01*
X120422637Y-133567328D01*
X120565761Y-133403510D01*
X120590258Y-133362510D01*
X120677327Y-133216780D01*
X120677327Y-133216778D01*
X120677334Y-133216768D01*
X120753770Y-133013105D01*
X120773033Y-132906958D01*
X120792612Y-132799070D01*
X120792612Y-132036030D01*
X120792612Y-132036024D01*
X120777997Y-131873642D01*
X120777995Y-131873635D01*
X120777994Y-131873629D01*
X120720127Y-131663955D01*
X120720125Y-131663947D01*
X120636851Y-131491026D01*
X120625743Y-131467960D01*
X120625738Y-131467952D01*
X120517647Y-131319177D01*
X120497878Y-131291967D01*
X120431722Y-131228715D01*
X120340647Y-131141638D01*
X120192705Y-131043983D01*
X121929852Y-131043983D01*
X121939866Y-131228704D01*
X121939868Y-131228715D01*
X121989355Y-131406951D01*
X121989358Y-131406959D01*
X122076011Y-131570404D01*
X122138653Y-131644151D01*
X122195775Y-131711400D01*
X122274666Y-131771371D01*
X122343051Y-131823356D01*
X122510945Y-131901032D01*
X122691615Y-131940800D01*
X122691618Y-131940800D01*
X122830217Y-131940800D01*
X122830225Y-131940800D01*
X122841477Y-131939576D01*
X122968015Y-131925815D01*
X122968017Y-131925814D01*
X122968022Y-131925814D01*
X123143333Y-131866744D01*
X123301848Y-131771370D01*
X123436153Y-131644149D01*
X123539970Y-131491030D01*
X123549164Y-131467956D01*
X123608442Y-131319177D01*
X123608443Y-131319174D01*
X123638372Y-131136617D01*
X123628357Y-130951893D01*
X123624028Y-130936302D01*
X123578868Y-130773648D01*
X123578867Y-130773647D01*
X123578866Y-130773641D01*
X123538153Y-130696849D01*
X123492212Y-130610195D01*
X123372454Y-130469206D01*
X123372449Y-130469200D01*
X123225176Y-130357246D01*
X123225175Y-130357245D01*
X123225172Y-130357243D01*
X123057278Y-130279567D01*
X122876615Y-130239801D01*
X122876612Y-130239800D01*
X122876609Y-130239800D01*
X122737999Y-130239800D01*
X122737989Y-130239800D01*
X122600208Y-130254784D01*
X122600199Y-130254786D01*
X122424891Y-130313855D01*
X122424888Y-130313857D01*
X122266378Y-130409228D01*
X122266377Y-130409229D01*
X122132073Y-130536448D01*
X122028251Y-130689573D01*
X121959781Y-130861422D01*
X121959780Y-130861425D01*
X121929852Y-131043982D01*
X121929852Y-131043983D01*
X120192705Y-131043983D01*
X120159101Y-131021801D01*
X120159098Y-131021800D01*
X120159097Y-131021799D01*
X120005653Y-130956213D01*
X119959065Y-130936300D01*
X119746989Y-130887896D01*
X119529677Y-130878137D01*
X119529676Y-130878137D01*
X119529674Y-130878137D01*
X119437288Y-130890651D01*
X119314104Y-130907337D01*
X119107215Y-130974561D01*
X118915667Y-131077637D01*
X118915660Y-131077641D01*
X118745585Y-131213273D01*
X118602461Y-131377090D01*
X118490896Y-131563819D01*
X118490891Y-131563829D01*
X118414452Y-131767499D01*
X118375612Y-131981529D01*
X118375612Y-131981533D01*
X118375612Y-132744576D01*
X113090712Y-132744576D01*
X113090712Y-124244546D01*
X119376112Y-124244546D01*
X119390721Y-124406870D01*
X119390723Y-124406881D01*
X119448566Y-124616468D01*
X119448571Y-124616482D01*
X119542911Y-124812382D01*
X119542916Y-124812390D01*
X119670724Y-124988303D01*
X119670725Y-124988304D01*
X119827889Y-125138568D01*
X120009361Y-125258357D01*
X120009373Y-125258363D01*
X120209298Y-125343815D01*
X120209315Y-125343821D01*
X120330111Y-125371391D01*
X120330112Y-125371391D01*
X120330112Y-124349950D01*
X120358569Y-124395910D01*
X120448074Y-124463501D01*
X120555952Y-124494195D01*
X120667633Y-124483846D01*
X120768034Y-124433852D01*
X120838112Y-124356981D01*
X120838112Y-125374924D01*
X120838113Y-125374925D01*
X120853992Y-125372775D01*
X120854011Y-125372770D01*
X121060802Y-125305581D01*
X121060803Y-125305581D01*
X121252280Y-125202543D01*
X121252287Y-125202539D01*
X121422291Y-125066964D01*
X121565356Y-124903214D01*
X121676875Y-124716562D01*
X121676880Y-124716552D01*
X121753287Y-124512966D01*
X121762878Y-124460115D01*
X121794721Y-124396660D01*
X121855815Y-124360494D01*
X121926764Y-124363099D01*
X121985041Y-124403648D01*
X121998175Y-124423591D01*
X122076011Y-124570403D01*
X122169809Y-124680830D01*
X122195775Y-124711400D01*
X122343048Y-124823354D01*
X122343051Y-124823356D01*
X122436833Y-124866744D01*
X122510945Y-124901032D01*
X122691615Y-124940800D01*
X122691618Y-124940800D01*
X122830217Y-124940800D01*
X122830225Y-124940800D01*
X122841477Y-124939576D01*
X122968015Y-124925815D01*
X122968017Y-124925814D01*
X122968022Y-124925814D01*
X123143333Y-124866744D01*
X123301848Y-124771370D01*
X123436153Y-124644149D01*
X123539970Y-124491030D01*
X123542833Y-124483846D01*
X123608442Y-124319177D01*
X123608443Y-124319174D01*
X123613401Y-124288933D01*
X123638372Y-124136617D01*
X123628357Y-123951893D01*
X123624891Y-123939411D01*
X123578868Y-123773648D01*
X123578867Y-123773647D01*
X123578866Y-123773641D01*
X123506052Y-123636300D01*
X123492212Y-123610195D01*
X123372454Y-123469206D01*
X123372449Y-123469200D01*
X123225176Y-123357246D01*
X123225175Y-123357245D01*
X123225172Y-123357243D01*
X123057278Y-123279567D01*
X122876615Y-123239801D01*
X122876612Y-123239800D01*
X122876609Y-123239800D01*
X122737999Y-123239800D01*
X122737989Y-123239800D01*
X122600208Y-123254784D01*
X122600199Y-123254786D01*
X122424891Y-123313855D01*
X122424888Y-123313857D01*
X122266378Y-123409228D01*
X122266377Y-123409229D01*
X122132073Y-123536448D01*
X122132071Y-123536451D01*
X122082072Y-123610195D01*
X122024420Y-123695225D01*
X122022809Y-123694133D01*
X121979851Y-123738160D01*
X121910668Y-123754103D01*
X121843848Y-123730111D01*
X121800606Y-123673802D01*
X121792112Y-123628323D01*
X121792112Y-123536053D01*
X121777502Y-123373729D01*
X121777500Y-123373718D01*
X121719657Y-123164131D01*
X121719652Y-123164117D01*
X121625312Y-122968217D01*
X121625307Y-122968209D01*
X121497499Y-122792296D01*
X121497498Y-122792295D01*
X121340334Y-122642031D01*
X121158862Y-122522242D01*
X121158860Y-122522241D01*
X120958907Y-122436778D01*
X120838112Y-122409207D01*
X120838112Y-123430649D01*
X120809655Y-123384690D01*
X120720150Y-123317099D01*
X120612272Y-123286405D01*
X120500591Y-123296754D01*
X120400190Y-123346748D01*
X120330112Y-123423618D01*
X120330112Y-122405673D01*
X120330111Y-122405673D01*
X120314219Y-122407826D01*
X120107419Y-122475019D01*
X119915943Y-122578056D01*
X119915936Y-122578060D01*
X119745932Y-122713635D01*
X119602867Y-122877385D01*
X119491348Y-123064037D01*
X119491343Y-123064047D01*
X119414936Y-123267632D01*
X119376112Y-123481574D01*
X119376112Y-123636300D01*
X120284112Y-123636300D01*
X120284112Y-124144300D01*
X119376112Y-124144300D01*
X119376112Y-124244546D01*
X113090712Y-124244546D01*
X113090712Y-120954800D01*
X120200614Y-120954800D01*
X120220569Y-121182887D01*
X120279828Y-121404043D01*
X120376589Y-121611549D01*
X120507914Y-121799100D01*
X120669812Y-121960998D01*
X120857363Y-122092323D01*
X121064869Y-122189084D01*
X121286025Y-122248343D01*
X121514112Y-122268298D01*
X121742199Y-122248343D01*
X121963355Y-122189084D01*
X122170861Y-122092323D01*
X122358412Y-121960998D01*
X122448928Y-121870481D01*
X122511236Y-121836459D01*
X122582052Y-121841523D01*
X122627115Y-121870484D01*
X124288707Y-123532076D01*
X124322733Y-123594388D01*
X124325612Y-123621171D01*
X124325612Y-123781917D01*
X124305610Y-123850038D01*
X124251954Y-123896531D01*
X124243645Y-123899972D01*
X124137909Y-123939410D01*
X124137904Y-123939412D01*
X124020850Y-124027038D01*
X123933224Y-124144092D01*
X123933222Y-124144097D01*
X123882123Y-124281095D01*
X123882121Y-124281103D01*
X123875612Y-124341650D01*
X123875612Y-126438949D01*
X123882121Y-126499496D01*
X123882123Y-126499504D01*
X123933222Y-126636502D01*
X123933224Y-126636507D01*
X124020850Y-126753561D01*
X124137904Y-126841187D01*
X124137906Y-126841188D01*
X124137908Y-126841189D01*
X124196987Y-126863224D01*
X124274907Y-126892288D01*
X124274915Y-126892290D01*
X124335462Y-126898799D01*
X124335467Y-126898799D01*
X124335474Y-126898800D01*
X124335480Y-126898800D01*
X125832744Y-126898800D01*
X125832750Y-126898800D01*
X125832757Y-126898799D01*
X125832761Y-126898799D01*
X125893308Y-126892290D01*
X125893311Y-126892289D01*
X125893313Y-126892289D01*
X125899456Y-126889998D01*
X125922467Y-126881415D01*
X126030316Y-126841189D01*
X126147373Y-126753561D01*
X126150185Y-126749805D01*
X126234999Y-126636507D01*
X126234999Y-126636506D01*
X126235001Y-126636504D01*
X126286101Y-126499501D01*
X126288999Y-126472551D01*
X126292611Y-126438949D01*
X126292612Y-126438932D01*
X126292612Y-124341667D01*
X126292611Y-124341650D01*
X126286102Y-124281103D01*
X126286100Y-124281095D01*
X126235001Y-124144097D01*
X126234999Y-124144092D01*
X126147373Y-124027038D01*
X126030319Y-123939412D01*
X126030314Y-123939410D01*
X125924579Y-123899972D01*
X125867743Y-123857425D01*
X125842933Y-123790905D01*
X125842612Y-123781917D01*
X125842612Y-123319235D01*
X125843943Y-123300972D01*
X125847078Y-123279568D01*
X125847453Y-123277011D01*
X125843091Y-123227151D01*
X125842612Y-123216171D01*
X125842612Y-123210625D01*
X125842612Y-123210620D01*
X125838975Y-123179512D01*
X125838604Y-123175880D01*
X125831999Y-123100373D01*
X125831998Y-123100369D01*
X125830515Y-123093187D01*
X125830581Y-123093173D01*
X125828951Y-123085819D01*
X125828885Y-123085835D01*
X125827191Y-123078690D01*
X125827191Y-123078687D01*
X125801249Y-123007412D01*
X125800075Y-123004034D01*
X125776227Y-122932064D01*
X125773126Y-122925415D01*
X125773188Y-122925386D01*
X125769903Y-122918600D01*
X125769843Y-122918631D01*
X125766546Y-122912067D01*
X125724887Y-122848725D01*
X125722919Y-122845636D01*
X125683143Y-122781151D01*
X125683142Y-122781149D01*
X125683139Y-122781146D01*
X125678589Y-122775391D01*
X125678642Y-122775348D01*
X125673878Y-122769500D01*
X125673827Y-122769544D01*
X125669110Y-122763922D01*
X125613938Y-122711870D01*
X125611309Y-122709316D01*
X123366020Y-120464027D01*
X123354048Y-120450175D01*
X123339581Y-120430742D01*
X123331308Y-120423800D01*
X123301241Y-120398570D01*
X123293139Y-120391145D01*
X123289218Y-120387224D01*
X123264640Y-120367789D01*
X123261803Y-120365478D01*
X123203747Y-120316764D01*
X123197618Y-120312733D01*
X123197653Y-120312678D01*
X123191299Y-120308629D01*
X123191265Y-120308686D01*
X123185018Y-120304833D01*
X123116317Y-120272796D01*
X123113021Y-120271201D01*
X123045300Y-120237191D01*
X123045298Y-120237190D01*
X123045295Y-120237189D01*
X123038401Y-120234680D01*
X123038423Y-120234617D01*
X123031301Y-120232141D01*
X123031281Y-120232204D01*
X123024323Y-120229898D01*
X122950054Y-120214562D01*
X122946479Y-120213769D01*
X122872768Y-120196300D01*
X122865479Y-120195448D01*
X122865486Y-120195380D01*
X122857989Y-120194614D01*
X122857984Y-120194681D01*
X122850671Y-120194041D01*
X122850670Y-120194041D01*
X122804651Y-120195380D01*
X122774853Y-120196247D01*
X122771189Y-120196300D01*
X122645980Y-120196300D01*
X122577859Y-120176298D01*
X122542768Y-120142572D01*
X122520314Y-120110506D01*
X122520312Y-120110503D01*
X122520310Y-120110500D01*
X122374972Y-119965162D01*
X122340946Y-119902850D01*
X122346011Y-119832035D01*
X122388558Y-119775199D01*
X122420034Y-119758011D01*
X122423309Y-119756789D01*
X122423313Y-119756789D01*
X122560316Y-119705689D01*
X122677373Y-119618061D01*
X122765001Y-119501004D01*
X122816101Y-119364001D01*
X122820231Y-119325590D01*
X122822611Y-119303449D01*
X122822612Y-119303432D01*
X122822612Y-117606167D01*
X122822611Y-117606150D01*
X122816102Y-117545603D01*
X122816100Y-117545595D01*
X122765001Y-117408597D01*
X122764999Y-117408592D01*
X122677373Y-117291538D01*
X122560319Y-117203912D01*
X122560314Y-117203910D01*
X122423316Y-117152811D01*
X122423308Y-117152809D01*
X122385144Y-117148707D01*
X122319551Y-117121538D01*
X122279060Y-117063220D01*
X122272612Y-117023429D01*
X122272612Y-113574171D01*
X122292614Y-113506050D01*
X122309517Y-113485076D01*
X130766888Y-105027705D01*
X130829200Y-104993679D01*
X130855983Y-104990800D01*
X137283171Y-104990800D01*
X137301431Y-104992130D01*
X137307101Y-104992960D01*
X137325401Y-104995641D01*
X137375258Y-104991278D01*
X137386239Y-104990800D01*
X137391787Y-104990800D01*
X137391792Y-104990800D01*
X137422899Y-104987163D01*
X137426501Y-104986795D01*
X137502038Y-104980187D01*
X137502042Y-104980185D01*
X137509230Y-104978702D01*
X137509243Y-104978768D01*
X137516599Y-104977136D01*
X137516584Y-104977071D01*
X137523714Y-104975380D01*
X137523725Y-104975379D01*
X137595012Y-104949432D01*
X137598381Y-104948261D01*
X137670350Y-104924414D01*
X137670359Y-104924408D01*
X137677001Y-104921312D01*
X137677030Y-104921374D01*
X137683815Y-104918089D01*
X137683785Y-104918029D01*
X137690336Y-104914737D01*
X137690344Y-104914735D01*
X137753703Y-104873061D01*
X137756773Y-104871106D01*
X137821263Y-104831330D01*
X137821271Y-104831321D01*
X137827020Y-104826777D01*
X137827063Y-104826831D01*
X137832905Y-104822072D01*
X137832862Y-104822020D01*
X137838480Y-104817305D01*
X137838480Y-104817304D01*
X137838486Y-104817301D01*
X137890558Y-104762106D01*
X137893044Y-104759547D01*
X138209389Y-104443204D01*
X138271701Y-104409179D01*
X138298484Y-104406300D01*
X139430744Y-104406300D01*
X139430750Y-104406300D01*
X139430757Y-104406299D01*
X139430761Y-104406299D01*
X139491308Y-104399790D01*
X139491311Y-104399789D01*
X139491313Y-104399789D01*
X139498161Y-104397235D01*
X139511662Y-104392199D01*
X139628316Y-104348689D01*
X139698511Y-104296142D01*
X139745373Y-104261061D01*
X139832998Y-104144008D01*
X139832997Y-104144008D01*
X139833001Y-104144004D01*
X139877308Y-104025213D01*
X139919853Y-103968381D01*
X139986374Y-103943570D01*
X140055748Y-103958662D01*
X140088064Y-103983912D01*
X140149209Y-104050334D01*
X140326810Y-104188567D01*
X140326811Y-104188568D01*
X140524740Y-104295682D01*
X140524742Y-104295683D01*
X140737595Y-104368755D01*
X140737602Y-104368757D01*
X140908262Y-104397235D01*
X140972161Y-104428177D01*
X141009189Y-104488753D01*
X141007588Y-104559732D01*
X140976618Y-104610612D01*
X139356336Y-106230895D01*
X139294024Y-106264920D01*
X139267241Y-106267800D01*
X133500553Y-106267800D01*
X133482293Y-106266470D01*
X133458324Y-106262959D01*
X133458323Y-106262959D01*
X133418193Y-106266470D01*
X133408466Y-106267321D01*
X133397485Y-106267800D01*
X133391926Y-106267800D01*
X133360821Y-106271435D01*
X133357179Y-106271807D01*
X133281689Y-106278412D01*
X133274498Y-106279897D01*
X133274484Y-106279832D01*
X133267126Y-106281463D01*
X133267142Y-106281528D01*
X133260003Y-106283220D01*
X133260000Y-106283220D01*
X133259999Y-106283221D01*
X133230268Y-106294041D01*
X133188766Y-106309146D01*
X133185310Y-106310347D01*
X133113371Y-106334186D01*
X133106725Y-106337286D01*
X133106697Y-106337226D01*
X133099906Y-106340514D01*
X133099936Y-106340572D01*
X133093380Y-106343864D01*
X133030011Y-106385541D01*
X133026925Y-106387507D01*
X132962461Y-106427270D01*
X132956708Y-106431820D01*
X132956666Y-106431767D01*
X132950816Y-106436533D01*
X132950858Y-106436583D01*
X132945240Y-106441296D01*
X132893182Y-106496474D01*
X132890629Y-106499101D01*
X128008337Y-111381392D01*
X127994488Y-111393362D01*
X127975055Y-111407829D01*
X127942883Y-111446170D01*
X127935472Y-111454258D01*
X127931532Y-111458198D01*
X127931526Y-111458205D01*
X127912109Y-111482760D01*
X127909801Y-111485594D01*
X127861076Y-111543664D01*
X127857047Y-111549791D01*
X127856992Y-111549755D01*
X127852937Y-111556120D01*
X127852994Y-111556155D01*
X127849142Y-111562398D01*
X127817108Y-111631094D01*
X127815513Y-111634387D01*
X127781506Y-111702105D01*
X127778994Y-111709007D01*
X127778932Y-111708984D01*
X127776455Y-111716110D01*
X127776516Y-111716131D01*
X127774208Y-111723095D01*
X127758871Y-111797364D01*
X127758079Y-111800937D01*
X127740612Y-111874640D01*
X127739760Y-111881934D01*
X127739693Y-111881926D01*
X127738926Y-111889426D01*
X127738993Y-111889432D01*
X127738353Y-111896742D01*
X127740559Y-111972558D01*
X127740612Y-111976222D01*
X127740612Y-117023429D01*
X127720610Y-117091550D01*
X127666954Y-117138043D01*
X127628080Y-117148707D01*
X127589915Y-117152809D01*
X127589907Y-117152811D01*
X127452909Y-117203910D01*
X127452904Y-117203912D01*
X127335850Y-117291538D01*
X127248224Y-117408592D01*
X127248222Y-117408597D01*
X127197123Y-117545595D01*
X127197121Y-117545603D01*
X127190612Y-117606150D01*
X127190612Y-119303449D01*
X127197121Y-119363996D01*
X127197123Y-119364004D01*
X127248222Y-119501002D01*
X127248224Y-119501007D01*
X127335850Y-119618061D01*
X127452904Y-119705687D01*
X127452908Y-119705689D01*
X127593189Y-119758012D01*
X127650025Y-119800558D01*
X127674835Y-119867079D01*
X127659743Y-119936453D01*
X127638252Y-119965162D01*
X127492911Y-120110503D01*
X127361589Y-120298050D01*
X127264829Y-120505553D01*
X127264827Y-120505559D01*
X127205569Y-120726713D01*
X127185614Y-120954800D01*
X127205569Y-121182887D01*
X127264828Y-121404043D01*
X127361589Y-121611549D01*
X127492914Y-121799100D01*
X127654812Y-121960998D01*
X127686882Y-121983453D01*
X127731211Y-122038910D01*
X127740612Y-122086667D01*
X127740612Y-126283428D01*
X127720610Y-126351549D01*
X127703707Y-126372523D01*
X125969938Y-128106291D01*
X125907626Y-128140317D01*
X125836810Y-128135252D01*
X125811430Y-128122352D01*
X125659101Y-128021801D01*
X125659098Y-128021800D01*
X125659097Y-128021799D01*
X125539971Y-127970881D01*
X125459065Y-127936300D01*
X125246989Y-127887896D01*
X125029677Y-127878137D01*
X125029676Y-127878137D01*
X125029674Y-127878137D01*
X124937288Y-127890651D01*
X124814104Y-127907337D01*
X124607215Y-127974561D01*
X124415667Y-128077637D01*
X124415660Y-128077641D01*
X124245585Y-128213273D01*
X124102461Y-128377090D01*
X123990896Y-128563819D01*
X123990891Y-128563829D01*
X123914452Y-128767499D01*
X123875612Y-128981529D01*
X123875612Y-128981533D01*
X123875612Y-129744576D01*
X123885263Y-129851800D01*
X123890227Y-129906959D01*
X123890229Y-129906970D01*
X123948096Y-130116644D01*
X123948101Y-130116658D01*
X124042480Y-130312639D01*
X124042485Y-130312647D01*
X124170346Y-130488633D01*
X124170347Y-130488634D01*
X124327576Y-130638961D01*
X124509122Y-130758798D01*
X124509127Y-130758801D01*
X124546668Y-130774847D01*
X124601445Y-130820013D01*
X124623108Y-130887624D01*
X124604779Y-130956213D01*
X124556854Y-131001662D01*
X124415663Y-131077640D01*
X124415660Y-131077641D01*
X124245585Y-131213273D01*
X124102461Y-131377090D01*
X123990896Y-131563819D01*
X123990891Y-131563829D01*
X123914452Y-131767499D01*
X123875612Y-131981529D01*
X123875612Y-131981533D01*
X123875612Y-132744576D01*
X123880517Y-132799070D01*
X123890227Y-132906959D01*
X123890229Y-132906970D01*
X123948096Y-133116644D01*
X123948101Y-133116658D01*
X124042480Y-133312639D01*
X124042485Y-133312647D01*
X124170346Y-133488633D01*
X124170347Y-133488634D01*
X124327576Y-133638961D01*
X124441584Y-133714217D01*
X124509127Y-133758801D01*
X124709155Y-133844298D01*
X124709156Y-133844298D01*
X124709158Y-133844299D01*
X124770666Y-133858337D01*
X124921235Y-133892704D01*
X125138550Y-133902463D01*
X125354116Y-133873263D01*
X125561003Y-133806041D01*
X125752562Y-133702959D01*
X125922637Y-133567328D01*
X126065761Y-133403510D01*
X126090258Y-133362510D01*
X126177327Y-133216780D01*
X126177327Y-133216778D01*
X126177334Y-133216768D01*
X126253770Y-133013105D01*
X126273033Y-132906958D01*
X126292612Y-132799070D01*
X126292612Y-132462996D01*
X131970612Y-132462996D01*
X131985503Y-132652202D01*
X132044606Y-132898389D01*
X132139065Y-133126432D01*
X132141496Y-133132302D01*
X132273784Y-133348176D01*
X132438214Y-133540698D01*
X132630736Y-133705128D01*
X132846610Y-133837416D01*
X133080521Y-133934305D01*
X133326709Y-133993409D01*
X133579112Y-134013274D01*
X133831515Y-133993409D01*
X134077703Y-133934305D01*
X134311614Y-133837416D01*
X134527488Y-133705128D01*
X134720010Y-133540698D01*
X134720021Y-133540684D01*
X134722196Y-133538510D01*
X134723238Y-133537940D01*
X134723774Y-133537483D01*
X134723870Y-133537595D01*
X134784502Y-133504474D01*
X134824776Y-133502312D01*
X134880464Y-133508299D01*
X134880465Y-133508299D01*
X134880474Y-133508300D01*
X134880480Y-133508300D01*
X136477744Y-133508300D01*
X136477750Y-133508300D01*
X136477757Y-133508299D01*
X136477761Y-133508299D01*
X136538308Y-133501790D01*
X136538311Y-133501789D01*
X136538313Y-133501789D01*
X136675316Y-133450689D01*
X136792373Y-133363061D01*
X136816716Y-133330541D01*
X136873550Y-133287996D01*
X136944366Y-133282930D01*
X136986995Y-133300894D01*
X137080338Y-133362509D01*
X137288642Y-133451543D01*
X137509497Y-133501951D01*
X137735803Y-133512115D01*
X137960287Y-133481706D01*
X138175733Y-133411703D01*
X138375218Y-133304356D01*
X138552330Y-133163114D01*
X138584379Y-133126429D01*
X138644258Y-133088291D01*
X138715254Y-133088579D01*
X138766339Y-133118258D01*
X138891278Y-133237712D01*
X139075179Y-133359104D01*
X139080338Y-133362509D01*
X139288642Y-133451543D01*
X139509497Y-133501951D01*
X139735803Y-133512115D01*
X139960287Y-133481706D01*
X140175733Y-133411703D01*
X140327601Y-133329979D01*
X140397064Y-133315313D01*
X140463432Y-133340531D01*
X140483115Y-133359101D01*
X140638214Y-133540698D01*
X140830736Y-133705128D01*
X141046610Y-133837416D01*
X141280521Y-133934305D01*
X141526709Y-133993409D01*
X141779112Y-134013274D01*
X142031515Y-133993409D01*
X142277703Y-133934305D01*
X142511614Y-133837416D01*
X142727488Y-133705128D01*
X142920010Y-133540698D01*
X143084440Y-133348176D01*
X143190371Y-133175313D01*
X146099112Y-133175313D01*
X146114425Y-133330794D01*
X146114426Y-133330799D01*
X146114427Y-133330802D01*
X146174953Y-133530331D01*
X146273243Y-133714217D01*
X146405518Y-133875394D01*
X146566695Y-134007669D01*
X146750581Y-134105959D01*
X146950110Y-134166485D01*
X146950114Y-134166485D01*
X146950116Y-134166486D01*
X147157609Y-134186922D01*
X147157612Y-134186922D01*
X147157615Y-134186922D01*
X147365107Y-134166486D01*
X147365108Y-134166485D01*
X147365114Y-134166485D01*
X147564643Y-134105959D01*
X147748529Y-134007669D01*
X147909706Y-133875394D01*
X148041981Y-133714217D01*
X148140271Y-133530331D01*
X148200797Y-133330802D01*
X148202586Y-133312644D01*
X148216111Y-133175313D01*
X154789112Y-133175313D01*
X154804425Y-133330794D01*
X154804426Y-133330799D01*
X154804427Y-133330802D01*
X154864953Y-133530331D01*
X154963243Y-133714217D01*
X155095518Y-133875394D01*
X155256695Y-134007669D01*
X155440581Y-134105959D01*
X155640110Y-134166485D01*
X155640114Y-134166485D01*
X155640116Y-134166486D01*
X155847609Y-134186922D01*
X155847612Y-134186922D01*
X155847615Y-134186922D01*
X156055107Y-134166486D01*
X156055108Y-134166485D01*
X156055114Y-134166485D01*
X156254643Y-134105959D01*
X156438529Y-134007669D01*
X156599706Y-133875394D01*
X156731981Y-133714217D01*
X156830271Y-133530331D01*
X156890797Y-133330802D01*
X156892586Y-133312644D01*
X156906111Y-133175313D01*
X156906112Y-133175305D01*
X156906112Y-132471295D01*
X156890797Y-132315798D01*
X156830271Y-132116269D01*
X156731981Y-131932383D01*
X156599706Y-131771206D01*
X156438529Y-131638931D01*
X156254643Y-131540641D01*
X156055114Y-131480115D01*
X156055113Y-131480114D01*
X156055107Y-131480113D01*
X155847615Y-131459678D01*
X155847609Y-131459678D01*
X155640116Y-131480113D01*
X155440580Y-131540641D01*
X155256694Y-131638931D01*
X155095518Y-131771206D01*
X154963243Y-131932382D01*
X154864953Y-132116268D01*
X154804425Y-132315805D01*
X154789112Y-132471286D01*
X154789112Y-133175313D01*
X148216111Y-133175313D01*
X148216112Y-133175305D01*
X148216112Y-132471295D01*
X148200797Y-132315798D01*
X148140271Y-132116269D01*
X148041981Y-131932383D01*
X147909706Y-131771206D01*
X147748529Y-131638931D01*
X147564643Y-131540641D01*
X147365114Y-131480115D01*
X147365113Y-131480114D01*
X147365107Y-131480113D01*
X147157615Y-131459678D01*
X147157609Y-131459678D01*
X146950116Y-131480113D01*
X146750580Y-131540641D01*
X146566694Y-131638931D01*
X146405518Y-131771206D01*
X146273243Y-131932382D01*
X146174953Y-132116268D01*
X146114425Y-132315805D01*
X146099112Y-132471286D01*
X146099112Y-133175313D01*
X143190371Y-133175313D01*
X143216728Y-133132302D01*
X143313617Y-132898391D01*
X143372721Y-132652203D01*
X143387612Y-132462999D01*
X143387612Y-131036601D01*
X143372721Y-130847397D01*
X143313617Y-130601209D01*
X143216728Y-130367298D01*
X143084440Y-130151424D01*
X142920010Y-129958902D01*
X142727488Y-129794472D01*
X142511614Y-129662184D01*
X142413011Y-129621341D01*
X142277701Y-129565294D01*
X142109289Y-129524862D01*
X142031515Y-129506191D01*
X141779112Y-129486326D01*
X141526709Y-129506191D01*
X141280522Y-129565294D01*
X141046611Y-129662183D01*
X140830737Y-129794471D01*
X140638214Y-129958902D01*
X140483293Y-130140290D01*
X140423842Y-130179099D01*
X140352847Y-130179605D01*
X140318069Y-130163615D01*
X140277890Y-130137093D01*
X140277882Y-130137089D01*
X140069582Y-130048057D01*
X140069580Y-130048056D01*
X139848727Y-129997649D01*
X139622425Y-129987485D01*
X139622424Y-129987485D01*
X139622421Y-129987485D01*
X139510179Y-130002689D01*
X139397933Y-130017894D01*
X139182485Y-130087899D01*
X139094819Y-130135074D01*
X139025353Y-130149741D01*
X138958986Y-130124523D01*
X138916789Y-130067427D01*
X138909112Y-130024119D01*
X138909112Y-128224800D01*
X138929114Y-128156679D01*
X138982770Y-128110186D01*
X139035112Y-128098800D01*
X148371718Y-128098800D01*
X148439839Y-128118802D01*
X148486332Y-128172458D01*
X148496436Y-128242732D01*
X148486335Y-128277136D01*
X148484698Y-128280719D01*
X148415460Y-128480769D01*
X148415457Y-128480780D01*
X148385330Y-128690314D01*
X148395402Y-128901763D01*
X148395404Y-128901776D01*
X148445312Y-129107498D01*
X148445314Y-129107504D01*
X148533256Y-129300071D01*
X148533260Y-129300078D01*
X148656047Y-129472508D01*
X148656051Y-129472513D01*
X148656053Y-129472515D01*
X148809266Y-129618603D01*
X148987358Y-129733056D01*
X149183891Y-129811736D01*
X149391763Y-129851800D01*
X149423025Y-129851800D01*
X149449811Y-129854680D01*
X149455563Y-129855930D01*
X149455573Y-129855934D01*
X149670515Y-129881634D01*
X149886436Y-129866190D01*
X149920091Y-129857171D01*
X149973596Y-129854623D01*
X150068595Y-129870598D01*
X150118879Y-129879055D01*
X150118880Y-129879054D01*
X150118881Y-129879055D01*
X150335292Y-129873903D01*
X150546818Y-129827889D01*
X150745812Y-129742674D01*
X150925083Y-129621340D01*
X151061299Y-129485124D01*
X151164589Y-129360025D01*
X151268334Y-129170032D01*
X151334246Y-128963838D01*
X151359946Y-128748897D01*
X151344503Y-128532976D01*
X151332800Y-128489300D01*
X152034738Y-128489300D01*
X152907961Y-128489300D01*
X152862002Y-128517757D01*
X152794411Y-128607262D01*
X152763717Y-128715140D01*
X152774066Y-128826821D01*
X152824060Y-128927222D01*
X152900930Y-128997300D01*
X152039092Y-128997300D01*
X152065787Y-129107338D01*
X152065789Y-129107345D01*
X152153689Y-129299815D01*
X152153691Y-129299819D01*
X152276433Y-129472187D01*
X152276434Y-129472188D01*
X152429576Y-129618209D01*
X152429577Y-129618210D01*
X152607587Y-129732608D01*
X152607592Y-129732611D01*
X152804026Y-129811252D01*
X152804032Y-129811253D01*
X153011806Y-129851299D01*
X153011815Y-129851300D01*
X153063612Y-129851300D01*
X153063612Y-129043300D01*
X153571612Y-129043300D01*
X153571612Y-129851182D01*
X153571613Y-129851183D01*
X153728245Y-129836227D01*
X153728260Y-129836224D01*
X153931289Y-129776610D01*
X154119366Y-129679649D01*
X154285697Y-129548844D01*
X154285703Y-129548839D01*
X154424268Y-129388925D01*
X154424269Y-129388924D01*
X154530066Y-129205677D01*
X154530070Y-129205668D01*
X154599274Y-129005715D01*
X154599276Y-129005709D01*
X154600485Y-128997300D01*
X153727263Y-128997300D01*
X153773222Y-128968843D01*
X153840813Y-128879338D01*
X153871507Y-128771460D01*
X153861158Y-128659779D01*
X153811164Y-128559378D01*
X153734294Y-128489300D01*
X154596131Y-128489300D01*
X154596131Y-128489299D01*
X154569436Y-128379261D01*
X154569434Y-128379254D01*
X154481534Y-128186784D01*
X154481532Y-128186780D01*
X154358790Y-128014412D01*
X154358789Y-128014411D01*
X154205647Y-127868390D01*
X154205646Y-127868389D01*
X154027636Y-127753991D01*
X154027631Y-127753988D01*
X153831197Y-127675347D01*
X153831191Y-127675346D01*
X153623417Y-127635300D01*
X153571612Y-127635300D01*
X153571612Y-128443300D01*
X153063612Y-128443300D01*
X153063612Y-127635416D01*
X153063611Y-127635415D01*
X152906978Y-127650372D01*
X152906963Y-127650375D01*
X152703934Y-127709989D01*
X152515857Y-127806950D01*
X152349526Y-127937755D01*
X152349520Y-127937760D01*
X152210955Y-128097674D01*
X152210954Y-128097675D01*
X152105157Y-128280922D01*
X152105153Y-128280931D01*
X152035949Y-128480884D01*
X152035947Y-128480890D01*
X152034738Y-128489300D01*
X151332800Y-128489300D01*
X151288476Y-128323880D01*
X151280275Y-128306999D01*
X151193893Y-128129173D01*
X151193890Y-128129169D01*
X151193889Y-128129166D01*
X151064162Y-127955871D01*
X151042635Y-127936302D01*
X150903983Y-127810258D01*
X150886029Y-127799314D01*
X150838275Y-127746778D01*
X150825612Y-127691727D01*
X150825612Y-127055377D01*
X150826895Y-127037442D01*
X150829478Y-127019478D01*
X150825755Y-126941322D01*
X150825612Y-126935326D01*
X150825612Y-126911305D01*
X150825611Y-126911296D01*
X150824418Y-126898800D01*
X150823326Y-126887370D01*
X150822901Y-126881415D01*
X150819179Y-126803261D01*
X150819178Y-126803255D01*
X150819178Y-126803252D01*
X150814895Y-126785601D01*
X150811917Y-126767888D01*
X150810191Y-126749808D01*
X150788143Y-126674720D01*
X150786592Y-126668930D01*
X150778726Y-126636507D01*
X150768143Y-126592882D01*
X150760597Y-126576360D01*
X150754319Y-126559525D01*
X150749204Y-126542104D01*
X150713337Y-126472534D01*
X150710733Y-126467174D01*
X150678217Y-126395972D01*
X150667682Y-126381179D01*
X150658330Y-126365836D01*
X150650010Y-126349696D01*
X150601631Y-126288177D01*
X150598044Y-126283385D01*
X150582410Y-126261430D01*
X150552651Y-126219639D01*
X150539513Y-126207112D01*
X150527422Y-126193812D01*
X150516196Y-126179537D01*
X150471971Y-126141216D01*
X150457044Y-126128281D01*
X150452607Y-126124247D01*
X150395984Y-126070257D01*
X150391131Y-126067138D01*
X150380706Y-126060438D01*
X150366322Y-126049670D01*
X150352597Y-126037778D01*
X150352595Y-126037776D01*
X150284809Y-125998640D01*
X150279712Y-125995533D01*
X150241911Y-125971240D01*
X150213878Y-125953224D01*
X150213875Y-125953223D01*
X150213874Y-125953222D01*
X150197010Y-125946470D01*
X150180855Y-125938622D01*
X150165127Y-125929542D01*
X150091163Y-125903943D01*
X150085545Y-125901847D01*
X150012910Y-125872768D01*
X150012902Y-125872766D01*
X149995080Y-125869331D01*
X149977718Y-125864679D01*
X149960567Y-125858743D01*
X149960563Y-125858742D01*
X149960560Y-125858741D01*
X149959480Y-125858585D01*
X149883105Y-125847604D01*
X149877193Y-125846610D01*
X149800354Y-125831801D01*
X149800352Y-125831800D01*
X149800348Y-125831800D01*
X149800344Y-125831800D01*
X149782194Y-125831800D01*
X149764263Y-125830518D01*
X149746285Y-125827933D01*
X149670923Y-125831524D01*
X149668132Y-125831657D01*
X149662139Y-125831800D01*
X137865694Y-125831800D01*
X137847763Y-125830518D01*
X137829785Y-125827933D01*
X137754423Y-125831524D01*
X137751632Y-125831657D01*
X137745639Y-125831800D01*
X137721616Y-125831800D01*
X137721610Y-125831800D01*
X137721599Y-125831801D01*
X137697696Y-125834082D01*
X137691724Y-125834509D01*
X137613563Y-125838233D01*
X137595916Y-125842514D01*
X137578195Y-125845494D01*
X137560126Y-125847219D01*
X137560119Y-125847221D01*
X137485028Y-125869268D01*
X137479241Y-125870819D01*
X137403193Y-125889269D01*
X137403192Y-125889270D01*
X137386673Y-125896813D01*
X137369842Y-125903090D01*
X137352420Y-125908206D01*
X137352419Y-125908206D01*
X137282843Y-125944074D01*
X137277453Y-125946692D01*
X137206285Y-125979194D01*
X137206278Y-125979198D01*
X137191494Y-125989726D01*
X137176152Y-125999077D01*
X137160020Y-126007394D01*
X137160008Y-126007402D01*
X137098489Y-126055779D01*
X137093692Y-126059370D01*
X137029955Y-126104756D01*
X137029953Y-126104759D01*
X137029951Y-126104760D01*
X137029951Y-126104761D01*
X137029798Y-126104920D01*
X137029703Y-126104975D01*
X137025421Y-126108687D01*
X137024705Y-126107861D01*
X136968314Y-126140416D01*
X136897398Y-126137036D01*
X136839567Y-126095852D01*
X136813182Y-126029940D01*
X136812612Y-126017967D01*
X136812612Y-125686501D01*
X136832614Y-125618380D01*
X136849517Y-125597406D01*
X141416718Y-121030205D01*
X141479030Y-120996179D01*
X141505813Y-120993300D01*
X142007744Y-120993300D01*
X142007750Y-120993300D01*
X142007757Y-120993299D01*
X142007761Y-120993299D01*
X142068308Y-120986790D01*
X142068311Y-120986789D01*
X142068313Y-120986789D01*
X142205316Y-120935689D01*
X142219359Y-120925177D01*
X142322373Y-120848061D01*
X142409999Y-120731007D01*
X142409999Y-120731006D01*
X142410001Y-120731004D01*
X142461101Y-120594001D01*
X142467612Y-120533438D01*
X142467612Y-118836162D01*
X142461102Y-118775604D01*
X142461102Y-118775603D01*
X142461100Y-118775595D01*
X142425667Y-118680599D01*
X142410001Y-118638596D01*
X142410000Y-118638594D01*
X142409999Y-118638592D01*
X142357744Y-118568788D01*
X142332933Y-118502268D01*
X142332612Y-118493279D01*
X142332612Y-113741867D01*
X142352614Y-113673746D01*
X142362801Y-113660036D01*
X142364799Y-113657697D01*
X142423288Y-113589216D01*
X142547352Y-113386763D01*
X142638217Y-113167394D01*
X142693647Y-112936511D01*
X142712277Y-112699800D01*
X142693647Y-112463089D01*
X142638217Y-112232206D01*
X142547352Y-112012837D01*
X142423288Y-111810384D01*
X142423285Y-111810380D01*
X142269081Y-111629830D01*
X142088531Y-111475626D01*
X142088529Y-111475625D01*
X142088528Y-111475624D01*
X141886075Y-111351560D01*
X141666706Y-111260695D01*
X141666704Y-111260694D01*
X141508763Y-111222776D01*
X141435823Y-111205265D01*
X141199112Y-111186635D01*
X140962401Y-111205265D01*
X140731519Y-111260694D01*
X140512150Y-111351559D01*
X140309694Y-111475625D01*
X140309692Y-111475626D01*
X140129142Y-111629830D01*
X139974938Y-111810380D01*
X139974937Y-111810382D01*
X139850871Y-112012838D01*
X139760006Y-112232207D01*
X139726590Y-112371397D01*
X139704577Y-112463089D01*
X139685947Y-112699800D01*
X139704577Y-112936511D01*
X139709609Y-112957471D01*
X139760006Y-113167392D01*
X139781333Y-113218879D01*
X139850872Y-113386763D01*
X139974936Y-113589216D01*
X140033425Y-113657697D01*
X140035423Y-113660036D01*
X140064454Y-113724826D01*
X140065612Y-113741867D01*
X140065612Y-118406245D01*
X140045610Y-118474366D01*
X140015122Y-118507112D01*
X139995851Y-118521538D01*
X139908224Y-118638592D01*
X139908222Y-118638597D01*
X139857123Y-118775595D01*
X139857121Y-118775603D01*
X139850251Y-118839517D01*
X139849215Y-118839405D01*
X139827024Y-118902274D01*
X139770949Y-118945818D01*
X139754992Y-118948127D01*
X139057839Y-119645281D01*
X139044277Y-119559652D01*
X138986753Y-119446755D01*
X138897157Y-119357159D01*
X138784260Y-119299635D01*
X138698629Y-119286072D01*
X139387000Y-118597699D01*
X139387000Y-118597698D01*
X139315613Y-118547713D01*
X139108185Y-118450988D01*
X139108180Y-118450986D01*
X138887112Y-118391751D01*
X138887116Y-118391751D01*
X138659112Y-118371804D01*
X138431109Y-118391751D01*
X138210043Y-118450986D01*
X138210038Y-118450988D01*
X138002612Y-118547713D01*
X137931221Y-118597700D01*
X138619593Y-119286072D01*
X138533964Y-119299635D01*
X138421067Y-119357159D01*
X138331471Y-119446755D01*
X138273947Y-119559652D01*
X138260384Y-119645281D01*
X137572012Y-118956909D01*
X137522025Y-119028300D01*
X137425300Y-119235726D01*
X137425298Y-119235731D01*
X137366063Y-119456797D01*
X137346116Y-119684800D01*
X137366063Y-119912802D01*
X137425298Y-120133868D01*
X137425300Y-120133873D01*
X137522025Y-120341301D01*
X137572011Y-120412688D01*
X138260384Y-119724316D01*
X138273947Y-119809948D01*
X138331471Y-119922845D01*
X138421067Y-120012441D01*
X138533964Y-120069965D01*
X138619594Y-120083527D01*
X137931222Y-120771898D01*
X137931222Y-120771900D01*
X138002610Y-120821886D01*
X138123504Y-120878260D01*
X138176789Y-120925177D01*
X138196250Y-120993455D01*
X138175708Y-121061415D01*
X138159349Y-121081550D01*
X134951966Y-124288933D01*
X134935972Y-124302465D01*
X134933451Y-124304260D01*
X134869111Y-124371737D01*
X134867020Y-124373878D01*
X134839438Y-124401460D01*
X134839416Y-124401485D01*
X134833677Y-124408436D01*
X134827712Y-124415157D01*
X134784069Y-124460928D01*
X134784066Y-124460932D01*
X134766107Y-124488875D01*
X134757274Y-124500971D01*
X134736138Y-124526569D01*
X134736129Y-124526583D01*
X134705819Y-124582090D01*
X134701233Y-124589821D01*
X134667033Y-124643039D01*
X134654692Y-124673865D01*
X134648307Y-124687417D01*
X134632392Y-124716564D01*
X134632389Y-124716570D01*
X134613126Y-124776829D01*
X134610085Y-124785289D01*
X134586578Y-124844009D01*
X134580294Y-124876611D01*
X134576591Y-124891121D01*
X134566478Y-124922758D01*
X134558966Y-124985581D01*
X134557580Y-124994463D01*
X134545612Y-125056562D01*
X134545612Y-125089767D01*
X134544721Y-125104724D01*
X134540778Y-125137703D01*
X134545291Y-125200802D01*
X134545612Y-125209791D01*
X134545612Y-129580589D01*
X134525610Y-129648710D01*
X134471954Y-129695203D01*
X134401680Y-129705307D01*
X134353778Y-129688022D01*
X134311614Y-129662184D01*
X134213011Y-129621341D01*
X134077701Y-129565294D01*
X133909289Y-129524862D01*
X133831515Y-129506191D01*
X133579112Y-129486326D01*
X133326709Y-129506191D01*
X133080522Y-129565294D01*
X132846611Y-129662183D01*
X132630737Y-129794471D01*
X132438214Y-129958902D01*
X132273783Y-130151425D01*
X132141495Y-130367299D01*
X132044606Y-130601210D01*
X131985503Y-130847397D01*
X131970612Y-131036603D01*
X131970612Y-132462996D01*
X126292612Y-132462996D01*
X126292612Y-132036030D01*
X126292612Y-132036024D01*
X126277997Y-131873642D01*
X126277995Y-131873635D01*
X126277994Y-131873629D01*
X126220127Y-131663955D01*
X126220125Y-131663947D01*
X126136851Y-131491026D01*
X126125743Y-131467960D01*
X126125738Y-131467952D01*
X126017647Y-131319177D01*
X125997878Y-131291967D01*
X125931722Y-131228715D01*
X125840647Y-131141638D01*
X125659101Y-131021801D01*
X125659099Y-131021800D01*
X125621554Y-131005752D01*
X125566777Y-130960585D01*
X125545115Y-130892974D01*
X125563445Y-130824384D01*
X125611368Y-130778938D01*
X125694167Y-130734382D01*
X125752557Y-130702962D01*
X125752559Y-130702960D01*
X125752562Y-130702959D01*
X125922637Y-130567328D01*
X126060764Y-130409230D01*
X126065762Y-130403509D01*
X126177327Y-130216780D01*
X126177327Y-130216778D01*
X126177334Y-130216768D01*
X126253770Y-130013105D01*
X126256609Y-129997455D01*
X126288451Y-129934001D01*
X126288680Y-129933755D01*
X126301590Y-129920072D01*
X126304042Y-129917549D01*
X128989890Y-127231701D01*
X129003729Y-127219741D01*
X129023170Y-127205269D01*
X129055339Y-127166930D01*
X129062757Y-127158834D01*
X129066692Y-127154901D01*
X129086156Y-127130283D01*
X129088353Y-127127585D01*
X129137144Y-127069440D01*
X129137146Y-127069434D01*
X129137149Y-127069432D01*
X129141178Y-127063308D01*
X129141234Y-127063345D01*
X129145283Y-127056990D01*
X129145225Y-127056955D01*
X129149075Y-127050712D01*
X129149076Y-127050709D01*
X129149079Y-127050706D01*
X129181130Y-126981970D01*
X129182682Y-126978763D01*
X129216721Y-126910988D01*
X129216722Y-126910981D01*
X129219231Y-126904091D01*
X129219295Y-126904114D01*
X129221770Y-126896993D01*
X129221705Y-126896972D01*
X129224011Y-126890010D01*
X129224014Y-126890006D01*
X129224552Y-126887403D01*
X129239339Y-126815782D01*
X129240133Y-126812199D01*
X129246435Y-126785614D01*
X129257612Y-126738456D01*
X129257612Y-126738455D01*
X129258464Y-126731168D01*
X129258530Y-126731175D01*
X129259296Y-126723677D01*
X129259230Y-126723672D01*
X129259868Y-126716365D01*
X129259870Y-126716358D01*
X129257665Y-126640574D01*
X129257612Y-126636910D01*
X129257612Y-122086667D01*
X129277614Y-122018546D01*
X129311340Y-121983454D01*
X129343412Y-121960998D01*
X129505310Y-121799100D01*
X129636635Y-121611549D01*
X129733396Y-121404043D01*
X129792655Y-121182887D01*
X129812610Y-120954800D01*
X129792655Y-120726713D01*
X129733396Y-120505557D01*
X129636635Y-120298051D01*
X129505310Y-120110500D01*
X129359972Y-119965162D01*
X129325946Y-119902850D01*
X129331011Y-119832035D01*
X129373558Y-119775199D01*
X129405034Y-119758011D01*
X129408309Y-119756789D01*
X129408313Y-119756789D01*
X129545316Y-119705689D01*
X129662373Y-119618061D01*
X129750001Y-119501004D01*
X129801101Y-119364001D01*
X129805231Y-119325590D01*
X129807611Y-119303449D01*
X129807612Y-119303432D01*
X129807612Y-117606167D01*
X129807611Y-117606150D01*
X129801102Y-117545603D01*
X129801100Y-117545595D01*
X129750001Y-117408597D01*
X129749999Y-117408592D01*
X129662373Y-117291538D01*
X129545319Y-117203912D01*
X129545314Y-117203910D01*
X129408316Y-117152811D01*
X129408308Y-117152809D01*
X129370144Y-117148707D01*
X129304551Y-117121538D01*
X129264060Y-117063220D01*
X129257612Y-117023429D01*
X129257612Y-112329671D01*
X129277614Y-112261550D01*
X129294517Y-112240576D01*
X133713388Y-107821705D01*
X133775700Y-107787679D01*
X133802483Y-107784800D01*
X139569171Y-107784800D01*
X139587431Y-107786130D01*
X139593101Y-107786960D01*
X139611401Y-107789641D01*
X139661258Y-107785278D01*
X139672239Y-107784800D01*
X139677787Y-107784800D01*
X139677792Y-107784800D01*
X139708899Y-107781163D01*
X139712501Y-107780795D01*
X139788038Y-107774187D01*
X139788042Y-107774185D01*
X139795230Y-107772702D01*
X139795243Y-107772768D01*
X139802599Y-107771136D01*
X139802584Y-107771071D01*
X139809714Y-107769380D01*
X139809725Y-107769379D01*
X139881012Y-107743432D01*
X139884381Y-107742261D01*
X139956350Y-107718414D01*
X139956359Y-107718408D01*
X139963001Y-107715312D01*
X139963030Y-107715374D01*
X139969815Y-107712089D01*
X139969785Y-107712029D01*
X139976336Y-107708737D01*
X139976344Y-107708735D01*
X140039703Y-107667061D01*
X140042773Y-107665106D01*
X140107263Y-107625330D01*
X140107271Y-107625321D01*
X140113020Y-107620777D01*
X140113062Y-107620831D01*
X140118901Y-107616075D01*
X140118858Y-107616023D01*
X140124476Y-107611307D01*
X140124486Y-107611301D01*
X140176573Y-107556090D01*
X140179060Y-107553531D01*
X143305208Y-104427383D01*
X143367518Y-104393359D01*
X143415040Y-104392199D01*
X143499541Y-104406300D01*
X143499543Y-104406300D01*
X143724677Y-104406300D01*
X143724681Y-104406300D01*
X143946747Y-104369244D01*
X144159686Y-104296142D01*
X144357688Y-104188989D01*
X144535352Y-104050706D01*
X144687834Y-103885068D01*
X144688039Y-103884755D01*
X144721105Y-103834143D01*
X144776928Y-103748698D01*
X144830931Y-103702610D01*
X144901279Y-103693035D01*
X144965636Y-103723012D01*
X144987894Y-103748698D01*
X145076786Y-103884758D01*
X145229209Y-104050334D01*
X145406810Y-104188567D01*
X145406811Y-104188568D01*
X145604740Y-104295682D01*
X145604742Y-104295683D01*
X145817595Y-104368755D01*
X145817604Y-104368757D01*
X145898112Y-104382191D01*
X145898112Y-103481474D01*
X146009797Y-103532480D01*
X146116349Y-103547800D01*
X146187875Y-103547800D01*
X146294427Y-103532480D01*
X146406112Y-103481474D01*
X146406112Y-104382190D01*
X146486619Y-104368757D01*
X146486628Y-104368755D01*
X146699481Y-104295683D01*
X146699483Y-104295682D01*
X146897412Y-104188568D01*
X146897413Y-104188567D01*
X147075014Y-104050334D01*
X147227439Y-103884755D01*
X147316629Y-103748241D01*
X147370633Y-103702152D01*
X147440980Y-103692577D01*
X147505338Y-103722554D01*
X147527595Y-103748241D01*
X147616784Y-103884755D01*
X147769209Y-104050334D01*
X147946810Y-104188567D01*
X147946811Y-104188568D01*
X148144740Y-104295682D01*
X148144742Y-104295683D01*
X148357595Y-104368755D01*
X148357604Y-104368757D01*
X148438112Y-104382191D01*
X148438112Y-103481474D01*
X148549797Y-103532480D01*
X148656349Y-103547800D01*
X148727875Y-103547800D01*
X148834427Y-103532480D01*
X148946112Y-103481474D01*
X148946112Y-104382190D01*
X149026619Y-104368757D01*
X149026628Y-104368755D01*
X149239481Y-104295683D01*
X149239483Y-104295682D01*
X149437412Y-104188568D01*
X149437413Y-104188567D01*
X149615014Y-104050334D01*
X149767439Y-103884755D01*
X149856329Y-103748699D01*
X149910332Y-103702610D01*
X149980680Y-103693035D01*
X150045037Y-103723012D01*
X150067292Y-103748694D01*
X150072969Y-103757383D01*
X150078092Y-103765224D01*
X150098608Y-103833190D01*
X150098612Y-103834143D01*
X150098612Y-111440300D01*
X150078610Y-111508421D01*
X150024954Y-111554914D01*
X149972612Y-111566300D01*
X146241179Y-111566300D01*
X146173058Y-111546298D01*
X146159357Y-111536117D01*
X146088528Y-111475624D01*
X145886075Y-111351560D01*
X145666706Y-111260695D01*
X145666704Y-111260694D01*
X145508763Y-111222776D01*
X145435823Y-111205265D01*
X145199112Y-111186635D01*
X144962401Y-111205265D01*
X144731519Y-111260694D01*
X144512150Y-111351559D01*
X144309694Y-111475625D01*
X144309692Y-111475626D01*
X144129142Y-111629830D01*
X143974938Y-111810380D01*
X143974937Y-111810382D01*
X143850871Y-112012838D01*
X143760006Y-112232207D01*
X143726590Y-112371397D01*
X143704577Y-112463089D01*
X143685947Y-112699800D01*
X143704577Y-112936511D01*
X143709609Y-112957471D01*
X143760006Y-113167392D01*
X143781333Y-113218879D01*
X143850872Y-113386763D01*
X143974936Y-113589216D01*
X144033425Y-113657697D01*
X144035423Y-113660036D01*
X144064454Y-113724826D01*
X144065612Y-113741867D01*
X144065612Y-118342531D01*
X144045610Y-118410652D01*
X144015121Y-118443399D01*
X143910738Y-118521538D01*
X143823112Y-118638592D01*
X143823110Y-118638597D01*
X143772011Y-118775595D01*
X143772009Y-118775603D01*
X143765500Y-118836150D01*
X143765500Y-120533449D01*
X143772009Y-120593996D01*
X143772011Y-120594004D01*
X143823110Y-120731002D01*
X143823112Y-120731007D01*
X143910738Y-120848061D01*
X144027792Y-120935687D01*
X144027794Y-120935688D01*
X144027796Y-120935689D01*
X144079034Y-120954800D01*
X144164795Y-120986788D01*
X144164803Y-120986790D01*
X144225350Y-120993299D01*
X144225355Y-120993299D01*
X144225362Y-120993300D01*
X144225368Y-120993300D01*
X145922632Y-120993300D01*
X145922638Y-120993300D01*
X145922645Y-120993299D01*
X145922649Y-120993299D01*
X145983196Y-120986790D01*
X145983199Y-120986789D01*
X145983201Y-120986789D01*
X146120204Y-120935689D01*
X146134247Y-120925177D01*
X146237261Y-120848061D01*
X146324887Y-120731007D01*
X146324887Y-120731006D01*
X146324889Y-120731004D01*
X146375989Y-120594001D01*
X146382500Y-120533438D01*
X146382861Y-120530083D01*
X146383908Y-120530195D01*
X146406056Y-120467367D01*
X146462113Y-120423800D01*
X146478105Y-120421482D01*
X147175272Y-119724316D01*
X147188835Y-119809948D01*
X147246359Y-119922845D01*
X147335955Y-120012441D01*
X147448852Y-120069965D01*
X147534482Y-120083527D01*
X146846110Y-120771898D01*
X146846110Y-120771900D01*
X146917498Y-120821886D01*
X147124926Y-120918611D01*
X147124931Y-120918613D01*
X147345999Y-120977848D01*
X147345995Y-120977848D01*
X147574000Y-120997795D01*
X147802002Y-120977848D01*
X148023068Y-120918613D01*
X148023073Y-120918611D01*
X148230497Y-120821888D01*
X148301888Y-120771899D01*
X148301888Y-120771897D01*
X147613518Y-120083527D01*
X147699148Y-120069965D01*
X147812045Y-120012441D01*
X147901641Y-119922845D01*
X147959165Y-119809948D01*
X147972727Y-119724318D01*
X148661097Y-120412688D01*
X148661099Y-120412688D01*
X148711088Y-120341297D01*
X148807811Y-120133873D01*
X148807813Y-120133868D01*
X148867048Y-119912802D01*
X148886995Y-119684800D01*
X148867048Y-119456797D01*
X148807813Y-119235731D01*
X148807811Y-119235726D01*
X148711086Y-119028298D01*
X148661100Y-118956910D01*
X148661098Y-118956910D01*
X147972727Y-119645281D01*
X147959165Y-119559652D01*
X147901641Y-119446755D01*
X147812045Y-119357159D01*
X147699148Y-119299635D01*
X147613517Y-119286072D01*
X148301888Y-118597699D01*
X148301888Y-118597698D01*
X148230501Y-118547713D01*
X148023073Y-118450988D01*
X148023068Y-118450986D01*
X147802000Y-118391751D01*
X147802004Y-118391751D01*
X147574000Y-118371804D01*
X147345997Y-118391751D01*
X147124931Y-118450986D01*
X147124926Y-118450988D01*
X146917500Y-118547713D01*
X146846109Y-118597700D01*
X147534481Y-119286072D01*
X147448852Y-119299635D01*
X147335955Y-119357159D01*
X147246359Y-119446755D01*
X147188835Y-119559652D01*
X147175272Y-119645281D01*
X146475219Y-118945228D01*
X146449649Y-118940089D01*
X146398657Y-118890690D01*
X146383666Y-118839430D01*
X146382861Y-118839517D01*
X146375990Y-118775604D01*
X146375989Y-118775600D01*
X146375987Y-118775595D01*
X146340556Y-118680599D01*
X146332612Y-118636567D01*
X146332612Y-113959300D01*
X146352614Y-113891179D01*
X146406270Y-113844686D01*
X146458612Y-113833300D01*
X150771452Y-113833300D01*
X150792345Y-113835044D01*
X150795381Y-113835555D01*
X150888591Y-113833336D01*
X150891590Y-113833300D01*
X150930601Y-113833300D01*
X150930608Y-113833300D01*
X150939588Y-113832442D01*
X150948546Y-113831908D01*
X151011792Y-113830403D01*
X151044255Y-113823340D01*
X151059028Y-113821037D01*
X151092104Y-113817879D01*
X151152805Y-113800054D01*
X151161507Y-113797833D01*
X151223318Y-113784389D01*
X151253843Y-113771316D01*
X151267933Y-113766250D01*
X151299808Y-113756892D01*
X151356037Y-113727902D01*
X151364173Y-113724070D01*
X151384082Y-113715544D01*
X151422312Y-113699174D01*
X151449815Y-113680558D01*
X151462692Y-113672918D01*
X151492216Y-113657698D01*
X151541942Y-113618591D01*
X151549192Y-113613297D01*
X151601583Y-113577840D01*
X151625070Y-113554351D01*
X151636260Y-113544419D01*
X151662375Y-113523884D01*
X151703810Y-113476063D01*
X151709914Y-113469507D01*
X151959264Y-113220158D01*
X151975271Y-113206619D01*
X151977773Y-113204839D01*
X152042172Y-113137297D01*
X152044189Y-113135234D01*
X152071792Y-113107632D01*
X152071792Y-113107631D01*
X152071799Y-113107625D01*
X152077544Y-113100665D01*
X152083506Y-113093947D01*
X152127156Y-113048170D01*
X152145116Y-113020222D01*
X152153935Y-113008144D01*
X152175089Y-112982525D01*
X152205407Y-112927000D01*
X152209983Y-112919286D01*
X152244190Y-112866062D01*
X152256537Y-112835218D01*
X152262909Y-112821693D01*
X152278834Y-112792532D01*
X152298098Y-112732263D01*
X152301141Y-112723801D01*
X152309587Y-112702705D01*
X152324644Y-112665096D01*
X152330930Y-112632475D01*
X152334631Y-112617977D01*
X152344746Y-112586338D01*
X152352258Y-112523507D01*
X152353635Y-112514674D01*
X152365612Y-112452536D01*
X152365612Y-112419331D01*
X152366503Y-112404373D01*
X152370446Y-112371397D01*
X152365933Y-112308295D01*
X152365612Y-112299307D01*
X152365612Y-103834143D01*
X152385614Y-103766022D01*
X152386024Y-103765388D01*
X152430972Y-103696591D01*
X152521408Y-103490416D01*
X152576676Y-103272168D01*
X152595268Y-103047800D01*
X152576676Y-102823432D01*
X152521408Y-102605184D01*
X152430972Y-102399009D01*
X152407713Y-102363409D01*
X152307836Y-102210534D01*
X152307832Y-102210529D01*
X152191682Y-102084359D01*
X152155352Y-102044894D01*
X152155351Y-102044893D01*
X152155349Y-102044891D01*
X152035479Y-101951592D01*
X151977688Y-101906611D01*
X151779686Y-101799458D01*
X151779684Y-101799457D01*
X151779683Y-101799456D01*
X151566751Y-101726357D01*
X151566742Y-101726355D01*
X151489141Y-101713406D01*
X151344681Y-101689300D01*
X151119543Y-101689300D01*
X150975083Y-101713406D01*
X150897481Y-101726355D01*
X150897472Y-101726357D01*
X150684540Y-101799456D01*
X150684538Y-101799458D01*
X150486538Y-101906610D01*
X150486536Y-101906611D01*
X150308874Y-102044891D01*
X150156391Y-102210529D01*
X150067295Y-102346901D01*
X150013291Y-102392989D01*
X149942943Y-102402564D01*
X149878586Y-102372586D01*
X149856329Y-102346900D01*
X149767439Y-102210844D01*
X149615014Y-102045265D01*
X149437413Y-101907032D01*
X149437412Y-101907031D01*
X149239483Y-101799917D01*
X149239481Y-101799916D01*
X149026624Y-101726843D01*
X149026613Y-101726840D01*
X148946112Y-101713406D01*
X148946112Y-102614125D01*
X148834427Y-102563120D01*
X148727875Y-102547800D01*
X148656349Y-102547800D01*
X148549797Y-102563120D01*
X148438112Y-102614125D01*
X148438112Y-101713407D01*
X148438111Y-101713406D01*
X148357610Y-101726840D01*
X148357599Y-101726843D01*
X148144742Y-101799916D01*
X148144740Y-101799917D01*
X147946811Y-101907031D01*
X147946810Y-101907032D01*
X147769209Y-102045265D01*
X147616786Y-102210842D01*
X147527595Y-102347359D01*
X147473591Y-102393447D01*
X147403243Y-102403022D01*
X147338886Y-102373044D01*
X147316629Y-102347359D01*
X147227437Y-102210842D01*
X147075014Y-102045265D01*
X146897413Y-101907032D01*
X146897412Y-101907031D01*
X146699483Y-101799917D01*
X146699481Y-101799916D01*
X146486624Y-101726843D01*
X146486613Y-101726840D01*
X146406112Y-101713406D01*
X146406112Y-102614125D01*
X146294427Y-102563120D01*
X146187875Y-102547800D01*
X146116349Y-102547800D01*
X146009797Y-102563120D01*
X145898112Y-102614125D01*
X145898112Y-101713407D01*
X145898111Y-101713406D01*
X145817610Y-101726840D01*
X145817599Y-101726843D01*
X145604742Y-101799916D01*
X145604740Y-101799917D01*
X145406811Y-101907031D01*
X145406810Y-101907032D01*
X145229209Y-102045265D01*
X145076782Y-102210845D01*
X144987892Y-102346901D01*
X144933888Y-102392989D01*
X144863540Y-102402564D01*
X144799183Y-102372586D01*
X144776928Y-102346901D01*
X144735723Y-102283831D01*
X144687836Y-102210534D01*
X144687832Y-102210529D01*
X144571682Y-102084359D01*
X144535352Y-102044894D01*
X144535351Y-102044893D01*
X144535349Y-102044891D01*
X144415479Y-101951592D01*
X144357688Y-101906611D01*
X144159686Y-101799458D01*
X144159684Y-101799457D01*
X144159683Y-101799456D01*
X143946751Y-101726357D01*
X143946742Y-101726355D01*
X143869141Y-101713406D01*
X143724681Y-101689300D01*
X143499543Y-101689300D01*
X143355083Y-101713406D01*
X143277481Y-101726355D01*
X143277472Y-101726357D01*
X143064540Y-101799456D01*
X143064538Y-101799458D01*
X142866538Y-101906610D01*
X142866536Y-101906611D01*
X142688874Y-102044891D01*
X142536391Y-102210529D01*
X142447295Y-102346901D01*
X142393291Y-102392989D01*
X142322943Y-102402564D01*
X142258586Y-102372586D01*
X142236329Y-102346900D01*
X142147439Y-102210844D01*
X141995014Y-102045265D01*
X141817413Y-101907032D01*
X141817412Y-101907031D01*
X141619483Y-101799917D01*
X141619481Y-101799916D01*
X141406624Y-101726843D01*
X141406613Y-101726840D01*
X141326112Y-101713406D01*
X141326112Y-102614125D01*
X141214427Y-102563120D01*
X141107875Y-102547800D01*
X141036349Y-102547800D01*
X140929797Y-102563120D01*
X140818112Y-102614125D01*
X140818112Y-101713407D01*
X140818111Y-101713406D01*
X140737610Y-101726840D01*
X140737599Y-101726843D01*
X140524742Y-101799916D01*
X140524740Y-101799917D01*
X140326811Y-101907031D01*
X140326810Y-101907032D01*
X140149208Y-102045265D01*
X140088063Y-102111688D01*
X140027210Y-102148259D01*
X139956246Y-102146124D01*
X139897700Y-102105963D01*
X139877307Y-102070383D01*
X139833001Y-101951596D01*
X139832999Y-101951592D01*
X139745373Y-101834538D01*
X139628319Y-101746912D01*
X139628314Y-101746910D01*
X139491316Y-101695811D01*
X139491308Y-101695809D01*
X139430761Y-101689300D01*
X139430750Y-101689300D01*
X137633474Y-101689300D01*
X137633462Y-101689300D01*
X137572915Y-101695809D01*
X137572907Y-101695811D01*
X137435909Y-101746910D01*
X137435904Y-101746912D01*
X137318850Y-101834538D01*
X137231224Y-101951592D01*
X137231222Y-101951597D01*
X137180123Y-102088595D01*
X137180121Y-102088603D01*
X137173612Y-102149150D01*
X137173612Y-103281429D01*
X137153610Y-103349550D01*
X137136707Y-103370524D01*
X137070336Y-103436895D01*
X137008024Y-103470921D01*
X136981241Y-103473800D01*
X130554053Y-103473800D01*
X130535794Y-103472470D01*
X130511824Y-103468959D01*
X130511823Y-103468959D01*
X130489398Y-103470921D01*
X130461966Y-103473321D01*
X130450985Y-103473800D01*
X130445428Y-103473800D01*
X130414325Y-103477435D01*
X130410682Y-103477807D01*
X130335187Y-103484412D01*
X130328001Y-103485896D01*
X130327988Y-103485833D01*
X130320615Y-103487468D01*
X130320630Y-103487531D01*
X130313493Y-103489222D01*
X130242245Y-103515153D01*
X130238788Y-103516355D01*
X130194029Y-103531187D01*
X130166874Y-103540186D01*
X130166872Y-103540186D01*
X130166872Y-103540187D01*
X130160224Y-103543287D01*
X130160195Y-103543226D01*
X130153404Y-103546514D01*
X130153434Y-103546573D01*
X130146881Y-103549863D01*
X130083532Y-103591529D01*
X130080442Y-103593497D01*
X130015963Y-103633268D01*
X130010200Y-103637825D01*
X130010159Y-103637773D01*
X130004316Y-103642533D01*
X130004358Y-103642583D01*
X129998740Y-103647296D01*
X129946699Y-103702456D01*
X129944146Y-103705083D01*
X121023337Y-112625892D01*
X121009488Y-112637862D01*
X120990055Y-112652329D01*
X120957883Y-112690670D01*
X120950472Y-112698758D01*
X120946532Y-112702698D01*
X120946526Y-112702705D01*
X120927109Y-112727260D01*
X120924801Y-112730094D01*
X120876076Y-112788164D01*
X120872047Y-112794291D01*
X120871992Y-112794255D01*
X120867937Y-112800620D01*
X120867994Y-112800655D01*
X120864142Y-112806898D01*
X120832108Y-112875594D01*
X120830513Y-112878887D01*
X120796506Y-112946605D01*
X120793994Y-112953507D01*
X120793932Y-112953484D01*
X120791455Y-112960610D01*
X120791516Y-112960631D01*
X120789208Y-112967595D01*
X120773871Y-113041864D01*
X120773079Y-113045437D01*
X120755612Y-113119140D01*
X120754760Y-113126434D01*
X120754693Y-113126426D01*
X120753926Y-113133926D01*
X120753993Y-113133932D01*
X120753353Y-113141242D01*
X120755559Y-113217058D01*
X120755612Y-113220722D01*
X120755612Y-117023429D01*
X120735610Y-117091550D01*
X120681954Y-117138043D01*
X120643080Y-117148707D01*
X120604915Y-117152809D01*
X120604907Y-117152811D01*
X120467909Y-117203910D01*
X120467904Y-117203912D01*
X120350850Y-117291538D01*
X120263224Y-117408592D01*
X120263222Y-117408597D01*
X120212123Y-117545595D01*
X120212121Y-117545603D01*
X120205612Y-117606150D01*
X120205612Y-119303449D01*
X120212121Y-119363996D01*
X120212123Y-119364004D01*
X120263222Y-119501002D01*
X120263224Y-119501007D01*
X120350850Y-119618061D01*
X120467904Y-119705687D01*
X120467908Y-119705689D01*
X120608189Y-119758012D01*
X120665025Y-119800558D01*
X120689835Y-119867079D01*
X120674743Y-119936453D01*
X120653252Y-119965162D01*
X120507911Y-120110503D01*
X120376589Y-120298050D01*
X120279829Y-120505553D01*
X120279827Y-120505559D01*
X120220569Y-120726713D01*
X120200614Y-120954800D01*
X113090712Y-120954800D01*
X113090712Y-61264800D01*
X118020793Y-61264800D01*
X118040040Y-61509357D01*
X118097307Y-61747892D01*
X118191185Y-61974532D01*
X118191186Y-61974533D01*
X118319357Y-62183692D01*
X118319358Y-62183694D01*
X118319360Y-62183696D01*
X118478679Y-62370233D01*
X118665216Y-62529552D01*
X118665218Y-62529553D01*
X118665219Y-62529554D01*
X118685257Y-62541833D01*
X118874380Y-62657727D01*
X119101020Y-62751605D01*
X119339555Y-62808872D01*
X119584112Y-62828119D01*
X119828669Y-62808872D01*
X120067204Y-62751605D01*
X120293844Y-62657727D01*
X120503008Y-62529552D01*
X120689545Y-62370233D01*
X120848864Y-62183696D01*
X120977039Y-61974532D01*
X121070917Y-61747892D01*
X121128184Y-61509357D01*
X121147431Y-61264800D01*
X121128184Y-61020243D01*
X121070917Y-60781708D01*
X120977039Y-60555068D01*
X120851218Y-60349745D01*
X120832680Y-60281212D01*
X120854137Y-60213535D01*
X120908776Y-60168202D01*
X120943664Y-60159487D01*
X120943610Y-60159158D01*
X120947744Y-60158467D01*
X120948253Y-60158341D01*
X120948742Y-60158300D01*
X120948752Y-60158300D01*
X121014553Y-60147319D01*
X121085034Y-60155835D01*
X121124386Y-60182505D01*
X121718707Y-60776826D01*
X121752733Y-60839138D01*
X121755612Y-60865921D01*
X121755612Y-96490359D01*
X121754282Y-96508619D01*
X121750771Y-96532586D01*
X121750771Y-96532595D01*
X121755132Y-96582433D01*
X121755612Y-96593416D01*
X121755612Y-96598985D01*
X121759247Y-96630089D01*
X121759619Y-96633732D01*
X121766223Y-96709218D01*
X121767708Y-96716406D01*
X121767643Y-96716419D01*
X121769277Y-96723789D01*
X121769341Y-96723775D01*
X121771033Y-96730916D01*
X121796958Y-96802142D01*
X121798161Y-96805604D01*
X121821996Y-96877535D01*
X121825099Y-96884188D01*
X121825038Y-96884216D01*
X121828323Y-96891002D01*
X121828382Y-96890973D01*
X121831675Y-96897530D01*
X121873344Y-96960884D01*
X121875283Y-96963927D01*
X121915082Y-97028451D01*
X121915084Y-97028454D01*
X121919634Y-97034208D01*
X121919580Y-97034250D01*
X121924340Y-97040092D01*
X121924391Y-97040050D01*
X121929109Y-97045672D01*
X121984267Y-97097711D01*
X121986896Y-97100265D01*
X127023204Y-102136573D01*
X127035177Y-102150427D01*
X127049643Y-102169858D01*
X127087986Y-102202031D01*
X127096079Y-102209448D01*
X127100011Y-102213380D01*
X127124564Y-102232794D01*
X127127396Y-102235100D01*
X127185472Y-102283832D01*
X127185478Y-102283835D01*
X127191607Y-102287867D01*
X127191569Y-102287923D01*
X127197923Y-102291971D01*
X127197959Y-102291914D01*
X127204201Y-102295764D01*
X127204203Y-102295765D01*
X127204206Y-102295767D01*
X127272944Y-102327820D01*
X127276142Y-102329368D01*
X127343924Y-102363409D01*
X127343925Y-102363409D01*
X127343929Y-102363411D01*
X127350825Y-102365921D01*
X127350801Y-102365984D01*
X127357918Y-102368458D01*
X127357940Y-102368394D01*
X127364905Y-102370702D01*
X127384266Y-102374699D01*
X127439174Y-102386036D01*
X127442638Y-102386803D01*
X127516456Y-102404300D01*
X127516458Y-102404300D01*
X127523744Y-102405152D01*
X127523736Y-102405218D01*
X127531234Y-102405984D01*
X127531240Y-102405918D01*
X127538547Y-102406556D01*
X127538554Y-102406558D01*
X127613297Y-102404383D01*
X127614336Y-102404353D01*
X127618000Y-102404300D01*
X128827740Y-102404300D01*
X128895861Y-102424302D01*
X128933222Y-102461383D01*
X128947390Y-102483068D01*
X129006981Y-102547800D01*
X129099874Y-102648708D01*
X129154443Y-102691181D01*
X129277536Y-102786989D01*
X129475538Y-102894142D01*
X129475539Y-102894142D01*
X129475540Y-102894143D01*
X129587339Y-102932523D01*
X129688477Y-102967244D01*
X129910543Y-103004300D01*
X129910547Y-103004300D01*
X130135677Y-103004300D01*
X130135681Y-103004300D01*
X130357747Y-102967244D01*
X130570686Y-102894142D01*
X130768688Y-102786989D01*
X130946352Y-102648706D01*
X131098834Y-102483068D01*
X131221972Y-102294591D01*
X131312408Y-102088416D01*
X131367676Y-101870168D01*
X131386268Y-101645800D01*
X131367676Y-101421432D01*
X131312408Y-101203184D01*
X131221972Y-100997009D01*
X131150296Y-100887300D01*
X131098836Y-100808534D01*
X131098831Y-100808529D01*
X130955636Y-100652979D01*
X130924215Y-100589314D01*
X130932202Y-100518768D01*
X130977060Y-100463739D01*
X131004295Y-100449589D01*
X131119316Y-100406689D01*
X131236373Y-100319061D01*
X131324001Y-100202004D01*
X131375101Y-100065001D01*
X131381612Y-100004438D01*
X131381612Y-98207162D01*
X131381611Y-98207150D01*
X131375102Y-98146603D01*
X131375100Y-98146595D01*
X131324001Y-98009597D01*
X131323999Y-98009592D01*
X131236373Y-97892538D01*
X131119319Y-97804912D01*
X131119314Y-97804910D01*
X130982316Y-97753811D01*
X130982308Y-97753809D01*
X130921761Y-97747300D01*
X130921750Y-97747300D01*
X129124474Y-97747300D01*
X129124462Y-97747300D01*
X129063915Y-97753809D01*
X129063907Y-97753811D01*
X128926909Y-97804910D01*
X128926904Y-97804912D01*
X128809850Y-97892538D01*
X128722224Y-98009592D01*
X128722222Y-98009597D01*
X128671123Y-98146595D01*
X128671121Y-98146603D01*
X128664612Y-98207150D01*
X128664612Y-98221300D01*
X128644610Y-98289421D01*
X128590954Y-98335914D01*
X128538612Y-98347300D01*
X127278982Y-98347300D01*
X127210861Y-98327298D01*
X127189887Y-98310395D01*
X124325517Y-95446024D01*
X124291491Y-95383712D01*
X124288612Y-95356929D01*
X124288612Y-71986397D01*
X134534112Y-71986397D01*
X134540617Y-72046893D01*
X134591667Y-72183764D01*
X134591667Y-72183765D01*
X134679207Y-72300704D01*
X134796146Y-72388244D01*
X134933018Y-72439294D01*
X134993514Y-72445799D01*
X134993527Y-72445800D01*
X135638112Y-72445800D01*
X135638112Y-71521474D01*
X135749797Y-71572480D01*
X135856349Y-71587800D01*
X135927875Y-71587800D01*
X136034427Y-71572480D01*
X136146112Y-71521474D01*
X136146112Y-72445800D01*
X136790697Y-72445800D01*
X136790709Y-72445799D01*
X136851205Y-72439294D01*
X136988076Y-72388244D01*
X136988077Y-72388244D01*
X137105016Y-72300704D01*
X137192556Y-72183765D01*
X137192556Y-72183764D01*
X137243606Y-72046893D01*
X137250111Y-71986397D01*
X137250112Y-71986385D01*
X137250112Y-71341800D01*
X136323228Y-71341800D01*
X136351605Y-71297644D01*
X136392112Y-71159689D01*
X136392112Y-71015911D01*
X136351605Y-70877956D01*
X136323228Y-70833800D01*
X137250112Y-70833800D01*
X137250112Y-70189214D01*
X137250111Y-70189202D01*
X137243606Y-70128706D01*
X137192556Y-69991835D01*
X137192556Y-69991834D01*
X137105016Y-69874895D01*
X136988078Y-69787356D01*
X136872433Y-69744223D01*
X136815598Y-69701676D01*
X136790787Y-69635156D01*
X136805878Y-69565782D01*
X136823765Y-69540830D01*
X136967435Y-69384761D01*
X137090531Y-69196348D01*
X137180932Y-68990256D01*
X137180935Y-68990249D01*
X137228656Y-68801800D01*
X136323228Y-68801800D01*
X136351605Y-68757644D01*
X136392112Y-68619689D01*
X136392112Y-68475911D01*
X136351605Y-68337956D01*
X136323228Y-68293800D01*
X137228656Y-68293800D01*
X137228656Y-68293799D01*
X137180935Y-68105350D01*
X137180932Y-68105343D01*
X137090531Y-67899251D01*
X136967437Y-67710841D01*
X136815014Y-67545265D01*
X136637413Y-67407032D01*
X136637412Y-67407031D01*
X136439483Y-67299917D01*
X136439481Y-67299916D01*
X136226624Y-67226843D01*
X136226613Y-67226840D01*
X136146112Y-67213406D01*
X136146112Y-68114125D01*
X136034427Y-68063120D01*
X135927875Y-68047800D01*
X135856349Y-68047800D01*
X135749797Y-68063120D01*
X135638112Y-68114125D01*
X135638112Y-67213407D01*
X135638111Y-67213406D01*
X135557610Y-67226840D01*
X135557599Y-67226843D01*
X135344742Y-67299916D01*
X135344740Y-67299917D01*
X135146811Y-67407031D01*
X135146810Y-67407032D01*
X134969209Y-67545265D01*
X134816786Y-67710841D01*
X134693692Y-67899251D01*
X134603291Y-68105343D01*
X134603288Y-68105350D01*
X134555567Y-68293799D01*
X134555568Y-68293800D01*
X135460996Y-68293800D01*
X135432619Y-68337956D01*
X135392112Y-68475911D01*
X135392112Y-68619689D01*
X135432619Y-68757644D01*
X135460996Y-68801800D01*
X134555567Y-68801800D01*
X134603288Y-68990249D01*
X134603291Y-68990256D01*
X134693692Y-69196348D01*
X134816786Y-69384758D01*
X134960459Y-69540830D01*
X134991879Y-69604495D01*
X134983892Y-69675041D01*
X134939032Y-69730070D01*
X134911790Y-69744223D01*
X134796145Y-69787356D01*
X134679207Y-69874895D01*
X134591667Y-69991834D01*
X134591667Y-69991835D01*
X134540617Y-70128706D01*
X134534112Y-70189202D01*
X134534112Y-70833800D01*
X135460996Y-70833800D01*
X135432619Y-70877956D01*
X135392112Y-71015911D01*
X135392112Y-71159689D01*
X135432619Y-71297644D01*
X135460996Y-71341800D01*
X134534112Y-71341800D01*
X134534112Y-71986397D01*
X124288612Y-71986397D01*
X124288612Y-60910671D01*
X124308614Y-60842550D01*
X124325517Y-60821576D01*
X124975920Y-60171173D01*
X125038232Y-60137147D01*
X125085752Y-60135986D01*
X125219472Y-60158300D01*
X125219477Y-60158300D01*
X125219483Y-60158301D01*
X125224669Y-60158731D01*
X125224577Y-60159839D01*
X125287456Y-60178302D01*
X125333949Y-60231958D01*
X125344053Y-60302232D01*
X125326769Y-60350132D01*
X125244221Y-60484838D01*
X125201184Y-60555069D01*
X125107307Y-60781707D01*
X125093519Y-60839138D01*
X125050040Y-61020243D01*
X125030793Y-61264800D01*
X125050040Y-61509357D01*
X125107307Y-61747892D01*
X125201185Y-61974532D01*
X125201186Y-61974533D01*
X125329357Y-62183692D01*
X125329358Y-62183694D01*
X125329360Y-62183696D01*
X125488679Y-62370233D01*
X125675216Y-62529552D01*
X125675218Y-62529553D01*
X125675219Y-62529554D01*
X125695257Y-62541833D01*
X125884380Y-62657727D01*
X126111020Y-62751605D01*
X126349555Y-62808872D01*
X126594112Y-62828119D01*
X126838669Y-62808872D01*
X127077204Y-62751605D01*
X127303844Y-62657727D01*
X127513008Y-62529552D01*
X127699545Y-62370233D01*
X127858864Y-62183696D01*
X127987039Y-61974532D01*
X128080917Y-61747892D01*
X128138184Y-61509357D01*
X128157431Y-61264800D01*
X128138184Y-61020243D01*
X128080917Y-60781708D01*
X127987039Y-60555068D01*
X127858864Y-60345904D01*
X127699545Y-60159367D01*
X127513008Y-60000048D01*
X127513006Y-60000046D01*
X127513004Y-60000045D01*
X127347382Y-59898553D01*
X127303844Y-59871873D01*
X127077204Y-59777995D01*
X126838669Y-59720728D01*
X126603483Y-59702218D01*
X126537144Y-59676933D01*
X126495004Y-59619795D01*
X126490445Y-59548945D01*
X126507888Y-59507692D01*
X126522127Y-59485897D01*
X129581112Y-59485897D01*
X129587617Y-59546393D01*
X129638667Y-59683264D01*
X129638667Y-59683265D01*
X129726207Y-59800204D01*
X129843146Y-59887744D01*
X129980018Y-59938794D01*
X130040514Y-59945299D01*
X130040527Y-59945300D01*
X130735112Y-59945300D01*
X130735112Y-58908762D01*
X130791659Y-58947316D01*
X130921285Y-58987300D01*
X131022836Y-58987300D01*
X131123250Y-58972165D01*
X131243112Y-58914442D01*
X131243112Y-59945300D01*
X131937697Y-59945300D01*
X131937709Y-59945299D01*
X131998205Y-59938794D01*
X132135076Y-59887744D01*
X132135077Y-59887744D01*
X132252016Y-59800204D01*
X132339556Y-59683265D01*
X132362989Y-59620438D01*
X132405535Y-59563602D01*
X132472055Y-59538791D01*
X132541430Y-59553882D01*
X132567468Y-59574229D01*
X132568058Y-59573589D01*
X132571887Y-59577113D01*
X132571892Y-59577118D01*
X132722004Y-59693956D01*
X132763474Y-59751579D01*
X132770612Y-59793386D01*
X132770612Y-62223859D01*
X132769282Y-62242119D01*
X132765771Y-62266086D01*
X132765771Y-62266095D01*
X132770132Y-62315933D01*
X132770612Y-62326916D01*
X132770612Y-62332485D01*
X132774247Y-62363589D01*
X132774619Y-62367232D01*
X132781223Y-62442718D01*
X132782708Y-62449906D01*
X132782643Y-62449919D01*
X132784277Y-62457289D01*
X132784341Y-62457275D01*
X132786033Y-62464416D01*
X132811958Y-62535642D01*
X132813161Y-62539104D01*
X132836996Y-62611035D01*
X132840099Y-62617688D01*
X132840038Y-62617716D01*
X132843323Y-62624502D01*
X132843382Y-62624473D01*
X132846675Y-62631030D01*
X132888344Y-62694384D01*
X132890283Y-62697427D01*
X132911402Y-62731665D01*
X132930084Y-62761954D01*
X132934634Y-62767708D01*
X132934580Y-62767750D01*
X132939340Y-62773592D01*
X132939391Y-62773550D01*
X132944109Y-62779172D01*
X132999267Y-62831211D01*
X133001896Y-62833765D01*
X134378204Y-64210073D01*
X134390177Y-64223927D01*
X134404643Y-64243358D01*
X134442986Y-64275531D01*
X134451079Y-64282948D01*
X134455012Y-64286881D01*
X134455015Y-64286883D01*
X134479567Y-64306297D01*
X134482407Y-64308611D01*
X134540467Y-64357328D01*
X134540472Y-64357332D01*
X134540476Y-64357334D01*
X134546607Y-64361367D01*
X134546570Y-64361422D01*
X134552923Y-64365469D01*
X134552959Y-64365413D01*
X134559204Y-64369265D01*
X134559207Y-64369267D01*
X134627898Y-64401298D01*
X134631196Y-64402895D01*
X134660214Y-64417468D01*
X134698924Y-64436909D01*
X134698926Y-64436909D01*
X134705825Y-64439421D01*
X134705801Y-64439485D01*
X134712917Y-64441959D01*
X134712939Y-64441895D01*
X134719903Y-64444203D01*
X134794175Y-64459538D01*
X134797742Y-64460329D01*
X134871456Y-64477800D01*
X134871463Y-64477800D01*
X134878745Y-64478652D01*
X134878737Y-64478719D01*
X134886234Y-64479485D01*
X134886240Y-64479419D01*
X134893547Y-64480057D01*
X134893554Y-64480059D01*
X134968301Y-64477884D01*
X134969371Y-64477853D01*
X134973035Y-64477800D01*
X138657741Y-64477800D01*
X138725862Y-64497802D01*
X138746836Y-64514705D01*
X140387707Y-66155576D01*
X140421733Y-66217888D01*
X140424612Y-66244671D01*
X140424612Y-81180859D01*
X140423282Y-81199119D01*
X140419771Y-81223086D01*
X140419771Y-81223095D01*
X140424132Y-81272933D01*
X140424612Y-81283916D01*
X140424612Y-81289485D01*
X140428247Y-81320589D01*
X140428619Y-81324232D01*
X140435223Y-81399718D01*
X140436708Y-81406906D01*
X140436643Y-81406919D01*
X140438277Y-81414289D01*
X140438341Y-81414275D01*
X140440033Y-81421416D01*
X140465958Y-81492642D01*
X140467161Y-81496104D01*
X140490996Y-81568035D01*
X140494099Y-81574688D01*
X140494038Y-81574716D01*
X140497323Y-81581502D01*
X140497382Y-81581473D01*
X140500675Y-81588030D01*
X140542344Y-81651384D01*
X140544283Y-81654427D01*
X140584082Y-81718951D01*
X140584084Y-81718954D01*
X140588634Y-81724708D01*
X140588580Y-81724750D01*
X140593340Y-81730592D01*
X140593391Y-81730550D01*
X140598109Y-81736172D01*
X140653267Y-81788211D01*
X140655896Y-81790765D01*
X143573704Y-84708573D01*
X143585677Y-84722427D01*
X143600143Y-84741858D01*
X143638486Y-84774031D01*
X143646579Y-84781448D01*
X143650512Y-84785381D01*
X143650515Y-84785383D01*
X143675067Y-84804797D01*
X143677907Y-84807111D01*
X143735967Y-84855828D01*
X143735972Y-84855832D01*
X143735976Y-84855834D01*
X143742107Y-84859867D01*
X143742070Y-84859922D01*
X143748423Y-84863969D01*
X143748459Y-84863913D01*
X143754704Y-84867765D01*
X143754707Y-84867767D01*
X143803392Y-84890469D01*
X143823398Y-84899798D01*
X143826696Y-84901395D01*
X143855714Y-84915968D01*
X143894424Y-84935409D01*
X143894426Y-84935409D01*
X143901325Y-84937921D01*
X143901301Y-84937985D01*
X143908417Y-84940459D01*
X143908439Y-84940395D01*
X143915403Y-84942703D01*
X143989675Y-84958038D01*
X143993242Y-84958829D01*
X144066956Y-84976300D01*
X144066963Y-84976300D01*
X144074245Y-84977152D01*
X144074237Y-84977219D01*
X144081734Y-84977985D01*
X144081740Y-84977919D01*
X144089047Y-84978557D01*
X144089054Y-84978559D01*
X144163801Y-84976384D01*
X144164871Y-84976353D01*
X144168535Y-84976300D01*
X149737016Y-84976300D01*
X149805137Y-84996302D01*
X149842499Y-85033385D01*
X149876798Y-85085883D01*
X149962321Y-85178785D01*
X149993741Y-85242448D01*
X149985754Y-85312994D01*
X149940896Y-85368023D01*
X149913653Y-85382176D01*
X149846149Y-85407354D01*
X149846146Y-85407355D01*
X149729207Y-85494895D01*
X149641667Y-85611834D01*
X149641667Y-85611835D01*
X149590617Y-85748706D01*
X149584112Y-85809202D01*
X149584112Y-86503800D01*
X150619144Y-86503800D01*
X150568487Y-86591540D01*
X150538302Y-86723792D01*
X150548439Y-86859065D01*
X150597999Y-86985341D01*
X150619099Y-87011800D01*
X149584112Y-87011800D01*
X149584112Y-87706397D01*
X149590617Y-87766893D01*
X149641667Y-87903764D01*
X149641667Y-87903765D01*
X149729207Y-88020704D01*
X149846146Y-88108244D01*
X149983018Y-88159294D01*
X150043514Y-88165799D01*
X150043527Y-88165800D01*
X150738112Y-88165800D01*
X150738112Y-87129262D01*
X150794659Y-87167816D01*
X150924285Y-87207800D01*
X151025836Y-87207800D01*
X151126250Y-87192665D01*
X151246112Y-87134942D01*
X151246112Y-88165800D01*
X151940697Y-88165800D01*
X151940709Y-88165799D01*
X152001205Y-88159294D01*
X152138076Y-88108244D01*
X152138077Y-88108244D01*
X152255016Y-88020704D01*
X152342556Y-87903765D01*
X152342556Y-87903764D01*
X152393606Y-87766893D01*
X152400111Y-87706397D01*
X152400112Y-87706385D01*
X152400112Y-87011800D01*
X151365080Y-87011800D01*
X151415737Y-86924060D01*
X151445922Y-86791808D01*
X151435785Y-86656535D01*
X151386225Y-86530259D01*
X151365125Y-86503800D01*
X152400112Y-86503800D01*
X152400112Y-85809214D01*
X152400111Y-85809202D01*
X152393606Y-85748706D01*
X152342556Y-85611835D01*
X152342556Y-85611834D01*
X152255016Y-85494895D01*
X152138077Y-85407355D01*
X152138072Y-85407353D01*
X152070571Y-85382176D01*
X152013735Y-85339629D01*
X151988925Y-85273109D01*
X152004017Y-85203735D01*
X152021896Y-85178791D01*
X152107426Y-85085883D01*
X152235096Y-84890469D01*
X152328861Y-84676707D01*
X152386163Y-84450426D01*
X152405439Y-84217800D01*
X152386163Y-83985174D01*
X152328861Y-83758893D01*
X152235096Y-83545131D01*
X152141725Y-83402215D01*
X152107426Y-83349716D01*
X151949337Y-83177986D01*
X151949333Y-83177982D01*
X151857230Y-83106296D01*
X151765129Y-83034610D01*
X151559839Y-82923513D01*
X151559836Y-82923512D01*
X151559835Y-82923511D01*
X151339067Y-82847721D01*
X151339060Y-82847719D01*
X151240523Y-82831276D01*
X151108824Y-82809300D01*
X150875400Y-82809300D01*
X150760178Y-82828527D01*
X150645163Y-82847719D01*
X150645156Y-82847721D01*
X150424388Y-82923511D01*
X150424385Y-82923513D01*
X150219097Y-83034609D01*
X150219095Y-83034610D01*
X150034890Y-83177982D01*
X150034886Y-83177986D01*
X149876797Y-83349716D01*
X149842499Y-83402215D01*
X149788496Y-83448304D01*
X149737016Y-83459300D01*
X144521983Y-83459300D01*
X144453862Y-83439298D01*
X144432888Y-83422395D01*
X141978517Y-80968024D01*
X141944491Y-80905712D01*
X141941612Y-80878929D01*
X141941612Y-69486449D01*
X150183612Y-69486449D01*
X150190121Y-69546996D01*
X150190123Y-69547004D01*
X150241222Y-69684002D01*
X150241224Y-69684007D01*
X150328850Y-69801061D01*
X150445904Y-69888687D01*
X150445906Y-69888688D01*
X150445908Y-69888689D01*
X150504987Y-69910724D01*
X150582907Y-69939788D01*
X150582915Y-69939790D01*
X150643462Y-69946299D01*
X150643467Y-69946299D01*
X150643474Y-69946300D01*
X150643480Y-69946300D01*
X152440744Y-69946300D01*
X152440750Y-69946300D01*
X152440757Y-69946299D01*
X152440761Y-69946299D01*
X152501308Y-69939790D01*
X152501311Y-69939789D01*
X152501313Y-69939789D01*
X152638316Y-69888689D01*
X152755373Y-69801061D01*
X152843001Y-69684004D01*
X152894101Y-69547001D01*
X152894765Y-69540830D01*
X152900611Y-69486449D01*
X152900612Y-69486432D01*
X152900612Y-67689167D01*
X152900611Y-67689150D01*
X152894102Y-67628603D01*
X152894100Y-67628595D01*
X152843001Y-67491597D01*
X152842999Y-67491592D01*
X152755373Y-67374538D01*
X152638319Y-67286912D01*
X152638314Y-67286910D01*
X152501316Y-67235811D01*
X152501308Y-67235809D01*
X152440761Y-67229300D01*
X152440750Y-67229300D01*
X150643474Y-67229300D01*
X150643462Y-67229300D01*
X150582915Y-67235809D01*
X150582907Y-67235811D01*
X150445909Y-67286910D01*
X150445904Y-67286912D01*
X150328850Y-67374538D01*
X150241224Y-67491592D01*
X150241222Y-67491597D01*
X150190123Y-67628595D01*
X150190121Y-67628603D01*
X150183612Y-67689150D01*
X150183612Y-69486449D01*
X141941612Y-69486449D01*
X141941612Y-65942735D01*
X141942943Y-65924472D01*
X141946452Y-65900516D01*
X141946453Y-65900511D01*
X141942091Y-65850651D01*
X141941612Y-65839671D01*
X141941612Y-65834125D01*
X141941612Y-65834120D01*
X141937975Y-65803012D01*
X141937604Y-65799380D01*
X141930999Y-65723873D01*
X141930998Y-65723869D01*
X141929515Y-65716687D01*
X141929581Y-65716673D01*
X141927951Y-65709319D01*
X141927885Y-65709335D01*
X141926191Y-65702190D01*
X141926191Y-65702187D01*
X141900234Y-65630872D01*
X141899085Y-65627564D01*
X141875226Y-65555562D01*
X141875225Y-65555560D01*
X141872126Y-65548914D01*
X141872187Y-65548885D01*
X141868900Y-65542095D01*
X141868840Y-65542126D01*
X141865545Y-65535565D01*
X141823894Y-65472239D01*
X141821924Y-65469146D01*
X141782144Y-65404651D01*
X141777590Y-65398892D01*
X141777643Y-65398849D01*
X141772878Y-65393000D01*
X141772827Y-65393044D01*
X141768110Y-65387422D01*
X141712938Y-65335370D01*
X141710309Y-65332816D01*
X139628793Y-63251300D01*
X147183182Y-63251300D01*
X147202872Y-63514054D01*
X147261504Y-63770934D01*
X147261505Y-63770936D01*
X147357763Y-64016200D01*
X147357765Y-64016204D01*
X147489509Y-64244392D01*
X147489512Y-64244397D01*
X147535782Y-64302417D01*
X147535784Y-64302417D01*
X148192918Y-63645282D01*
X148238428Y-63731122D01*
X148358121Y-63872035D01*
X148505307Y-63983923D01*
X148551381Y-64005239D01*
X147894549Y-64662070D01*
X148064644Y-64778039D01*
X148064644Y-64778040D01*
X148302035Y-64892362D01*
X148553816Y-64970028D01*
X148553824Y-64970029D01*
X148814372Y-65009300D01*
X149077852Y-65009300D01*
X149338399Y-64970029D01*
X149338407Y-64970028D01*
X149590188Y-64892362D01*
X149827579Y-64778040D01*
X149997673Y-64662070D01*
X149341189Y-64005586D01*
X149463543Y-63931969D01*
X149597770Y-63804823D01*
X149701525Y-63651795D01*
X149702747Y-63648726D01*
X150356439Y-64302418D01*
X150402715Y-64244390D01*
X150534458Y-64016204D01*
X150534460Y-64016200D01*
X150630718Y-63770936D01*
X150630719Y-63770934D01*
X150689351Y-63514054D01*
X150709041Y-63251300D01*
X150689351Y-62988545D01*
X150630719Y-62731665D01*
X150630718Y-62731663D01*
X150556216Y-62541833D01*
X150549948Y-62471114D01*
X150582909Y-62408232D01*
X150644634Y-62373153D01*
X150673506Y-62369800D01*
X152298718Y-62369800D01*
X152366839Y-62389802D01*
X152413332Y-62443458D01*
X152423436Y-62513732D01*
X152416008Y-62541833D01*
X152341505Y-62731663D01*
X152341504Y-62731665D01*
X152282872Y-62988545D01*
X152263182Y-63251300D01*
X152282872Y-63514054D01*
X152341504Y-63770934D01*
X152341505Y-63770936D01*
X152437763Y-64016200D01*
X152437765Y-64016204D01*
X152569509Y-64244392D01*
X152569512Y-64244397D01*
X152615782Y-64302417D01*
X152615784Y-64302417D01*
X153272918Y-63645282D01*
X153318428Y-63731122D01*
X153438121Y-63872035D01*
X153585307Y-63983923D01*
X153631381Y-64005239D01*
X152974549Y-64662070D01*
X153144644Y-64778039D01*
X153144644Y-64778040D01*
X153382035Y-64892362D01*
X153633816Y-64970028D01*
X153633824Y-64970029D01*
X153894372Y-65009300D01*
X154157852Y-65009300D01*
X154418399Y-64970029D01*
X154418407Y-64970028D01*
X154670188Y-64892362D01*
X154907579Y-64778040D01*
X155077673Y-64662070D01*
X154421189Y-64005586D01*
X154543543Y-63931969D01*
X154677770Y-63804823D01*
X154781525Y-63651795D01*
X154782747Y-63648726D01*
X155436439Y-64302418D01*
X155482715Y-64244390D01*
X155614458Y-64016204D01*
X155614460Y-64016200D01*
X155710718Y-63770936D01*
X155710719Y-63770934D01*
X155769351Y-63514054D01*
X155789041Y-63251300D01*
X155769351Y-62988545D01*
X155710719Y-62731665D01*
X155710718Y-62731663D01*
X155614460Y-62486399D01*
X155614458Y-62486395D01*
X155482717Y-62258213D01*
X155482712Y-62258205D01*
X155436440Y-62200181D01*
X155436438Y-62200181D01*
X154779304Y-62857315D01*
X154733796Y-62771478D01*
X154614103Y-62630565D01*
X154466917Y-62518677D01*
X154420841Y-62497359D01*
X155077672Y-61840529D01*
X155077672Y-61840528D01*
X154907579Y-61724559D01*
X154670188Y-61610237D01*
X154418407Y-61532571D01*
X154418399Y-61532570D01*
X154157852Y-61493300D01*
X153894372Y-61493300D01*
X153633824Y-61532570D01*
X153633816Y-61532571D01*
X153382032Y-61610238D01*
X153325281Y-61637568D01*
X153255227Y-61649103D01*
X153190059Y-61620933D01*
X153150465Y-61562002D01*
X153144612Y-61524046D01*
X153144612Y-59898553D01*
X153164614Y-59830432D01*
X153218270Y-59783939D01*
X153288544Y-59773835D01*
X153325282Y-59785031D01*
X153382035Y-59812362D01*
X153633816Y-59890028D01*
X153633824Y-59890029D01*
X153894372Y-59929300D01*
X154157852Y-59929300D01*
X154418399Y-59890029D01*
X154418407Y-59890028D01*
X154670188Y-59812362D01*
X154907579Y-59698040D01*
X155077673Y-59582070D01*
X154421189Y-58925586D01*
X154543543Y-58851969D01*
X154677770Y-58724823D01*
X154781525Y-58571795D01*
X154782747Y-58568726D01*
X155436439Y-59222418D01*
X155482715Y-59164390D01*
X155614458Y-58936204D01*
X155614460Y-58936200D01*
X155710718Y-58690936D01*
X155710719Y-58690934D01*
X155769351Y-58434054D01*
X155789041Y-58171300D01*
X155769351Y-57908545D01*
X155710719Y-57651665D01*
X155710718Y-57651663D01*
X155614460Y-57406399D01*
X155614458Y-57406395D01*
X155482717Y-57178213D01*
X155482712Y-57178205D01*
X155436440Y-57120181D01*
X155436438Y-57120181D01*
X154779304Y-57777315D01*
X154733796Y-57691478D01*
X154614103Y-57550565D01*
X154466917Y-57438677D01*
X154420841Y-57417360D01*
X155077672Y-56760529D01*
X155077672Y-56760528D01*
X154907579Y-56644559D01*
X154670188Y-56530237D01*
X154418407Y-56452571D01*
X154418399Y-56452570D01*
X154157852Y-56413300D01*
X153894372Y-56413300D01*
X153633824Y-56452570D01*
X153633816Y-56452571D01*
X153382035Y-56530237D01*
X153144644Y-56644559D01*
X153144637Y-56644563D01*
X152974550Y-56760527D01*
X152974550Y-56760529D01*
X153631034Y-57417013D01*
X153508681Y-57490631D01*
X153374454Y-57617777D01*
X153270699Y-57770805D01*
X153269476Y-57773873D01*
X152615783Y-57120180D01*
X152615782Y-57120181D01*
X152569512Y-57178204D01*
X152569509Y-57178207D01*
X152437765Y-57406395D01*
X152437763Y-57406399D01*
X152341505Y-57651663D01*
X152341504Y-57651665D01*
X152282872Y-57908545D01*
X152263182Y-58171300D01*
X152282872Y-58434054D01*
X152341504Y-58690934D01*
X152341505Y-58690936D01*
X152416008Y-58880767D01*
X152422276Y-58951486D01*
X152389315Y-59014368D01*
X152327590Y-59049447D01*
X152298718Y-59052800D01*
X150673506Y-59052800D01*
X150605385Y-59032798D01*
X150558892Y-58979142D01*
X150548788Y-58908868D01*
X150556216Y-58880767D01*
X150630718Y-58690936D01*
X150630719Y-58690934D01*
X150689351Y-58434054D01*
X150709041Y-58171300D01*
X150689351Y-57908545D01*
X150630719Y-57651665D01*
X150630718Y-57651663D01*
X150534460Y-57406399D01*
X150534458Y-57406395D01*
X150402717Y-57178213D01*
X150402712Y-57178205D01*
X150356439Y-57120181D01*
X149699304Y-57777316D01*
X149653796Y-57691478D01*
X149534103Y-57550565D01*
X149386917Y-57438677D01*
X149340841Y-57417360D01*
X149997672Y-56760529D01*
X149997672Y-56760528D01*
X149827579Y-56644559D01*
X149590188Y-56530237D01*
X149338407Y-56452571D01*
X149338399Y-56452570D01*
X149077852Y-56413300D01*
X148814372Y-56413300D01*
X148553824Y-56452570D01*
X148553816Y-56452571D01*
X148302035Y-56530237D01*
X148064644Y-56644559D01*
X148064637Y-56644563D01*
X147894550Y-56760527D01*
X147894550Y-56760529D01*
X148551034Y-57417013D01*
X148428681Y-57490631D01*
X148294454Y-57617777D01*
X148190699Y-57770805D01*
X148189476Y-57773873D01*
X147535783Y-57120180D01*
X147535782Y-57120181D01*
X147489512Y-57178204D01*
X147489509Y-57178207D01*
X147357765Y-57406395D01*
X147357763Y-57406399D01*
X147261505Y-57651663D01*
X147261504Y-57651665D01*
X147202872Y-57908545D01*
X147183182Y-58171300D01*
X147202872Y-58434054D01*
X147261504Y-58690934D01*
X147261505Y-58690936D01*
X147357763Y-58936200D01*
X147357765Y-58936204D01*
X147489509Y-59164392D01*
X147489512Y-59164397D01*
X147535782Y-59222417D01*
X147535784Y-59222417D01*
X148192918Y-58565282D01*
X148238428Y-58651122D01*
X148358121Y-58792035D01*
X148505307Y-58903923D01*
X148551382Y-58925239D01*
X147894550Y-59582070D01*
X148064644Y-59698039D01*
X148064644Y-59698040D01*
X148302035Y-59812362D01*
X148553816Y-59890028D01*
X148553824Y-59890029D01*
X148814372Y-59929300D01*
X149077852Y-59929300D01*
X149338399Y-59890029D01*
X149338407Y-59890028D01*
X149590188Y-59812362D01*
X149646942Y-59785031D01*
X149716995Y-59773496D01*
X149782164Y-59801665D01*
X149821759Y-59860595D01*
X149827612Y-59898553D01*
X149827612Y-61524046D01*
X149807610Y-61592167D01*
X149753954Y-61638660D01*
X149683680Y-61648764D01*
X149646943Y-61637568D01*
X149590191Y-61610238D01*
X149338407Y-61532571D01*
X149338399Y-61532570D01*
X149077852Y-61493300D01*
X148814372Y-61493300D01*
X148553824Y-61532570D01*
X148553816Y-61532571D01*
X148302035Y-61610237D01*
X148064644Y-61724559D01*
X148064637Y-61724563D01*
X147894550Y-61840527D01*
X147894550Y-61840529D01*
X148551034Y-62497013D01*
X148428681Y-62570631D01*
X148294454Y-62697777D01*
X148190699Y-62850805D01*
X148189476Y-62853873D01*
X147535783Y-62200180D01*
X147535782Y-62200181D01*
X147489512Y-62258204D01*
X147489509Y-62258207D01*
X147357765Y-62486395D01*
X147357763Y-62486399D01*
X147261505Y-62731663D01*
X147261504Y-62731665D01*
X147202872Y-62988545D01*
X147183182Y-63251300D01*
X139628793Y-63251300D01*
X139606020Y-63228527D01*
X139594048Y-63214675D01*
X139579581Y-63195242D01*
X139579579Y-63195240D01*
X139541241Y-63163070D01*
X139533139Y-63155645D01*
X139529218Y-63151724D01*
X139504640Y-63132289D01*
X139501803Y-63129978D01*
X139443747Y-63081264D01*
X139437618Y-63077233D01*
X139437653Y-63077178D01*
X139431299Y-63073129D01*
X139431265Y-63073186D01*
X139425018Y-63069333D01*
X139356317Y-63037296D01*
X139353021Y-63035701D01*
X139285300Y-63001691D01*
X139285298Y-63001690D01*
X139285295Y-63001689D01*
X139278401Y-62999180D01*
X139278423Y-62999117D01*
X139271301Y-62996641D01*
X139271281Y-62996704D01*
X139264323Y-62994398D01*
X139190054Y-62979062D01*
X139186479Y-62978269D01*
X139112768Y-62960800D01*
X139105479Y-62959948D01*
X139105486Y-62959880D01*
X139097989Y-62959114D01*
X139097984Y-62959181D01*
X139090671Y-62958541D01*
X139090670Y-62958541D01*
X139044651Y-62959880D01*
X139014853Y-62960747D01*
X139011189Y-62960800D01*
X135326483Y-62960800D01*
X135258362Y-62940798D01*
X135237388Y-62923895D01*
X134324517Y-62011024D01*
X134290491Y-61948712D01*
X134287612Y-61921929D01*
X134287612Y-59793386D01*
X134307614Y-59725265D01*
X134336218Y-59693957D01*
X134486332Y-59577118D01*
X134498775Y-59563602D01*
X134644426Y-59405383D01*
X134761909Y-59225561D01*
X134772096Y-59209969D01*
X134865861Y-58996207D01*
X134923163Y-58769926D01*
X134942439Y-58537300D01*
X134923163Y-58304674D01*
X134897593Y-58203701D01*
X134865862Y-58078396D01*
X134865859Y-58078389D01*
X134791358Y-57908545D01*
X134772096Y-57864631D01*
X134765691Y-57854827D01*
X134644426Y-57669216D01*
X134486337Y-57497486D01*
X134486333Y-57497482D01*
X134349910Y-57391300D01*
X134302129Y-57354110D01*
X134096839Y-57243013D01*
X134096836Y-57243012D01*
X134096835Y-57243011D01*
X133876067Y-57167221D01*
X133876060Y-57167219D01*
X133777523Y-57150776D01*
X133645824Y-57128800D01*
X133412400Y-57128800D01*
X133297178Y-57148027D01*
X133182163Y-57167219D01*
X133182156Y-57167221D01*
X132961388Y-57243011D01*
X132961385Y-57243013D01*
X132756097Y-57354109D01*
X132756095Y-57354110D01*
X132571890Y-57497482D01*
X132568058Y-57501011D01*
X132566800Y-57499645D01*
X132512875Y-57532042D01*
X132441911Y-57529898D01*
X132383372Y-57489728D01*
X132362989Y-57454161D01*
X132339556Y-57391334D01*
X132252016Y-57274395D01*
X132135077Y-57186855D01*
X131998205Y-57135805D01*
X131937709Y-57129300D01*
X131243112Y-57129300D01*
X131243112Y-58165837D01*
X131186565Y-58127284D01*
X131056939Y-58087300D01*
X130955388Y-58087300D01*
X130854974Y-58102435D01*
X130735112Y-58160157D01*
X130735112Y-57129300D01*
X130040514Y-57129300D01*
X129980018Y-57135805D01*
X129843147Y-57186855D01*
X129843146Y-57186855D01*
X129726207Y-57274395D01*
X129638667Y-57391334D01*
X129638667Y-57391335D01*
X129587617Y-57528206D01*
X129581112Y-57588702D01*
X129581112Y-58283300D01*
X130616144Y-58283300D01*
X130565487Y-58371040D01*
X130535302Y-58503292D01*
X130545439Y-58638565D01*
X130594999Y-58764841D01*
X130616099Y-58791300D01*
X129581112Y-58791300D01*
X129581112Y-59485897D01*
X126522127Y-59485897D01*
X126555034Y-59435530D01*
X126647135Y-59225561D01*
X126703420Y-59003297D01*
X126722354Y-58774800D01*
X126703420Y-58546303D01*
X126647135Y-58324039D01*
X126555034Y-58114070D01*
X126429630Y-57922124D01*
X126274343Y-57753437D01*
X126093408Y-57612610D01*
X126093407Y-57612609D01*
X126000886Y-57562539D01*
X125891762Y-57503485D01*
X125891760Y-57503484D01*
X125891759Y-57503483D01*
X125674909Y-57429039D01*
X125674900Y-57429037D01*
X125629933Y-57421533D01*
X125448752Y-57391300D01*
X125219472Y-57391300D01*
X125068524Y-57416488D01*
X124993323Y-57429037D01*
X124993314Y-57429039D01*
X124776464Y-57503483D01*
X124776462Y-57503485D01*
X124574816Y-57612609D01*
X124574815Y-57612610D01*
X124393878Y-57753439D01*
X124238591Y-57922127D01*
X124113192Y-58114067D01*
X124113185Y-58114079D01*
X124021090Y-58324035D01*
X124021087Y-58324042D01*
X123964805Y-58546295D01*
X123964804Y-58546301D01*
X123964804Y-58546303D01*
X123945870Y-58774800D01*
X123962554Y-58976150D01*
X123948246Y-59045689D01*
X123926080Y-59075649D01*
X123133581Y-59868148D01*
X123071269Y-59902174D01*
X123000454Y-59897109D01*
X122955391Y-59868148D01*
X122231235Y-59143992D01*
X122197209Y-59081680D01*
X122198185Y-59023964D01*
X122203420Y-59003297D01*
X122222354Y-58774800D01*
X122203420Y-58546303D01*
X122147135Y-58324039D01*
X122055034Y-58114070D01*
X121929630Y-57922124D01*
X121774343Y-57753437D01*
X121593408Y-57612610D01*
X121593407Y-57612609D01*
X121500886Y-57562539D01*
X121391762Y-57503485D01*
X121391760Y-57503484D01*
X121391759Y-57503483D01*
X121174909Y-57429039D01*
X121174900Y-57429037D01*
X121129933Y-57421533D01*
X120948752Y-57391300D01*
X120719472Y-57391300D01*
X120568524Y-57416488D01*
X120493323Y-57429037D01*
X120493314Y-57429039D01*
X120276464Y-57503483D01*
X120276462Y-57503485D01*
X120074816Y-57612609D01*
X120074815Y-57612610D01*
X119893878Y-57753439D01*
X119738591Y-57922127D01*
X119613192Y-58114067D01*
X119613185Y-58114079D01*
X119521090Y-58324035D01*
X119521087Y-58324042D01*
X119464805Y-58546295D01*
X119464804Y-58546301D01*
X119464804Y-58546303D01*
X119445870Y-58774800D01*
X119464216Y-58996207D01*
X119464805Y-59003304D01*
X119521087Y-59225557D01*
X119521090Y-59225564D01*
X119613185Y-59435520D01*
X119613186Y-59435522D01*
X119613190Y-59435530D01*
X119660825Y-59508442D01*
X119681337Y-59576409D01*
X119661847Y-59644678D01*
X119608542Y-59691572D01*
X119565227Y-59702967D01*
X119339555Y-59720728D01*
X119101019Y-59777995D01*
X119018051Y-59812362D01*
X118901608Y-59860595D01*
X118874378Y-59871874D01*
X118665219Y-60000045D01*
X118478679Y-60159367D01*
X118319357Y-60345907D01*
X118191186Y-60555066D01*
X118097307Y-60781707D01*
X118083519Y-60839138D01*
X118040040Y-61020243D01*
X118020793Y-61264800D01*
X113090712Y-61264800D01*
X113090712Y-56199900D01*
X113110714Y-56131779D01*
X113164370Y-56085286D01*
X113216712Y-56073900D01*
X160183312Y-56073900D01*
X160251433Y-56093902D01*
G37*
%TD.AperFunction*%
%TD*%
M02*
