M48
; DRILL file {KiCad 7.0.11+dfsg-1build4} date Do 02 Mai 2024 22:23:52
; FORMAT={3:3/ absolute / metric / suppress leading zeros}
; #@! TF.CreationDate,2024-05-02T22:23:52+02:00
; #@! TF.GenerationSoftware,Kicad,Pcbnew,7.0.11+dfsg-1build4
; #@! TF.FileFunction,Plated,1,2,PTH
FMAT,2
METRIC,TZ
; #@! TA.AperFunction,Plated,PTH,ViaDrill
T1C0.400
; #@! TA.AperFunction,Plated,PTH,ComponentDrill
T2C0.600
; #@! TA.AperFunction,Plated,PTH,ComponentDrill
T3C0.700
; #@! TA.AperFunction,Plated,PTH,ComponentDrill
T4C0.800
; #@! TA.AperFunction,Plated,PTH,ComponentDrill
T5C0.900
; #@! TA.AperFunction,Plated,PTH,ComponentDrill
T6C0.990
; #@! TA.AperFunction,Plated,PTH,ComponentDrill
T7C1.000
; #@! TA.AperFunction,Plated,PTH,ComponentDrill
T8C1.300
; #@! TA.AperFunction,Plated,PTH,ComponentDrill
T9C1.500
; #@! TA.AperFunction,Plated,PTH,ComponentDrill
T10C1.700
%
G90
G05
T1
X115479Y-58846
X115479Y-61386
X115479Y-63926
X115479Y-66466
X115479Y-69006
X115479Y-71546
X115479Y-74086
X115479Y-76626
X115479Y-79166
X115479Y-81706
X115479Y-84246
X115479Y-86786
X115479Y-89326
X115479Y-91866
X115479Y-94406
X115479Y-96946
X115479Y-99486
X115479Y-102026
X115479Y-104566
X115479Y-107106
X115479Y-109646
X115479Y-112186
X115479Y-114726
X115479Y-117266
X115479Y-119806
X115479Y-122346
X115479Y-124886
X115479Y-127426
X115479Y-129966
X115479Y-132506
X118019Y-58846
X118019Y-63926
X118019Y-66466
X118019Y-69006
X118019Y-71546
X118019Y-74086
X118019Y-76626
X118019Y-79166
X118019Y-81706
X118019Y-84246
X118019Y-86786
X118019Y-89326
X118019Y-91866
X118019Y-94406
X118019Y-96946
X118019Y-99486
X118019Y-102026
X118019Y-104566
X118019Y-107106
X118019Y-109646
X118019Y-112186
X118019Y-114726
X118019Y-117266
X118019Y-119806
X118019Y-122346
X118019Y-124886
X118019Y-127426
X118019Y-129966
X120559Y-63926
X120559Y-66466
X120559Y-69006
X120559Y-71546
X120559Y-74086
X120559Y-76626
X120559Y-79166
X120559Y-81706
X120559Y-84246
X120559Y-86786
X120559Y-89326
X120559Y-91866
X120559Y-94406
X120559Y-96946
X120559Y-99486
X120559Y-102026
X120559Y-104566
X120559Y-107106
X120559Y-109646
X120559Y-127426
X120559Y-129966
X123099Y-99486
X123099Y-102026
X123099Y-104566
X123099Y-107106
X123099Y-114726
X123099Y-127426
X125639Y-63926
X125639Y-66466
X125639Y-69006
X125639Y-71546
X125639Y-74086
X125639Y-76626
X125639Y-79166
X125639Y-81706
X125639Y-84246
X125639Y-86786
X125639Y-89326
X125639Y-91866
X125639Y-94406
X125639Y-102026
X125639Y-104566
X125639Y-112186
X125639Y-114726
X125639Y-117266
X125639Y-119806
X128179Y-58846
X128179Y-63926
X128179Y-66466
X128179Y-69006
X128179Y-71546
X128179Y-74086
X128179Y-76626
X128179Y-79166
X128179Y-81706
X128179Y-84246
X128179Y-86786
X128179Y-89326
X128179Y-91866
X128179Y-94406
X128179Y-96946
X128179Y-109646
X128179Y-129966
X128179Y-132506
X130719Y-61386
X130719Y-63926
X130719Y-66466
X130719Y-69006
X130719Y-71546
X130719Y-74086
X130719Y-76626
X130719Y-79166
X130719Y-81706
X130719Y-84246
X130719Y-86786
X130719Y-89326
X130719Y-91866
X130719Y-94406
X130719Y-96946
X130719Y-107106
X130719Y-112186
X130719Y-114726
X130719Y-117266
X130719Y-119806
X130719Y-122346
X130719Y-124886
X130719Y-127426
X130719Y-129966
X130719Y-132506
X133259Y-66466
X133259Y-69006
X133259Y-71546
X133259Y-74086
X133259Y-76626
X133259Y-79166
X133259Y-81706
X133259Y-84246
X133259Y-86786
X133259Y-89326
X133259Y-91866
X133259Y-94406
X133259Y-96946
X133259Y-99486
X133259Y-102026
X133259Y-109646
X133259Y-112186
X133259Y-114726
X133259Y-117266
X133259Y-119806
X133259Y-122346
X133259Y-124886
X133259Y-127426
X135799Y-58846
X135799Y-61386
X135799Y-66466
X135799Y-74086
X135799Y-76626
X135799Y-79166
X135799Y-81706
X135799Y-84246
X135799Y-86786
X135799Y-89326
X135799Y-91866
X135799Y-94406
X135799Y-96946
X135799Y-99486
X135799Y-102026
X135799Y-109646
X135799Y-112186
X135799Y-114726
X135799Y-117266
X135799Y-119806
X138339Y-58846
X138339Y-61386
X138339Y-66466
X138339Y-69006
X138339Y-71546
X138339Y-74086
X138339Y-76626
X138339Y-79166
X138339Y-81706
X138339Y-84246
X138339Y-86786
X138339Y-89326
X138339Y-91866
X138339Y-94406
X138339Y-96946
X138339Y-99486
X138339Y-109646
X138339Y-112186
X138339Y-114726
X138339Y-117266
X140879Y-58846
X140879Y-61386
X140879Y-84246
X140879Y-86786
X140879Y-89326
X140879Y-91866
X140879Y-94406
X140879Y-96946
X140879Y-99486
X140879Y-109646
X140879Y-124886
X143419Y-58846
X143419Y-61386
X143419Y-63926
X143419Y-66466
X143419Y-69006
X143419Y-71546
X143419Y-74086
X143419Y-76626
X143419Y-79166
X143419Y-86786
X143419Y-89326
X143419Y-91866
X143419Y-94406
X143419Y-96946
X143419Y-99486
X143419Y-107106
X143419Y-109646
X143419Y-114726
X143419Y-117266
X143419Y-122346
X143419Y-124886
X145959Y-58846
X145959Y-61386
X145959Y-63926
X145959Y-66466
X145959Y-69006
X145959Y-71546
X145959Y-74086
X145959Y-76626
X145959Y-79166
X145959Y-81706
X145959Y-86786
X145959Y-89326
X145959Y-91866
X145959Y-94406
X145959Y-96946
X145959Y-99486
X145959Y-107106
X145959Y-109646
X145959Y-122346
X145959Y-124886
X145959Y-129966
X148499Y-66466
X148499Y-69006
X148499Y-71546
X148499Y-74086
X148499Y-76626
X148499Y-79166
X148499Y-81706
X148499Y-86786
X148499Y-89326
X148499Y-91866
X148499Y-94406
X148499Y-96946
X148499Y-99486
X148499Y-107106
X148499Y-109646
X148499Y-114726
X148499Y-117266
X148499Y-122346
X148499Y-124886
X151039Y-71546
X151039Y-74086
X151039Y-76626
X151039Y-79166
X151039Y-81706
X151039Y-89326
X151039Y-91866
X151039Y-94406
X151039Y-96946
X151039Y-99486
X151039Y-114726
X151039Y-117266
X151039Y-119806
X151039Y-122346
X151039Y-124886
X151039Y-132506
X153579Y-66466
X153579Y-69006
X153579Y-71546
X153579Y-74086
X153579Y-76626
X153579Y-79166
X153579Y-81706
X153579Y-84246
X153579Y-86786
X153579Y-89326
X153579Y-91866
X153579Y-94406
X153579Y-96946
X153579Y-99486
X153579Y-102026
X153579Y-104566
X153579Y-107106
X153579Y-109646
X153579Y-112186
X153579Y-114726
X153579Y-117266
X153579Y-119806
X153579Y-122346
X153579Y-124886
X153579Y-132506
X156119Y-61386
X156119Y-66466
X156119Y-69006
X156119Y-71546
X156119Y-74086
X156119Y-76626
X156119Y-79166
X156119Y-81706
X156119Y-84246
X156119Y-86786
X156119Y-89326
X156119Y-91866
X156119Y-94406
X156119Y-96946
X156119Y-99486
X156119Y-102026
X156119Y-104566
X156119Y-107106
X156119Y-109646
X156119Y-112186
X156119Y-114726
X156119Y-117266
X156119Y-119806
X156119Y-122346
X156119Y-124886
X156119Y-127426
X156119Y-129966
X158659Y-58846
X158659Y-61386
X158659Y-63926
X158659Y-66466
X158659Y-69006
X158659Y-71546
X158659Y-74086
X158659Y-76626
X158659Y-79166
X158659Y-81706
X158659Y-84246
X158659Y-86786
X158659Y-89326
X158659Y-91866
X158659Y-94406
X158659Y-96946
X158659Y-99486
X158659Y-102026
X158659Y-104566
X158659Y-107106
X158659Y-109646
X158659Y-112186
X158659Y-114726
X158659Y-117266
X158659Y-119806
X158659Y-122346
X158659Y-124886
X158659Y-127426
X158659Y-129966
X158659Y-132506
T4
X121514Y-118455
X121514Y-120955
X128499Y-118455
X128499Y-120955
X138659Y-119685
X141159Y-119685
X145074Y-119685
X147574Y-119685
T5
X130989Y-58537
X133529Y-58537
X135679Y-131750
X137679Y-131750
X139679Y-131750
X150992Y-84218
X150992Y-86758
T6
X120834Y-58775
X125334Y-58775
T7
X130023Y-99106
X130023Y-101646
X135892Y-68548
X135892Y-71088
X138532Y-103048
X141072Y-103048
X141199Y-112700
X143612Y-103048
X145199Y-112700
X146152Y-103048
X148692Y-103048
X151232Y-103048
X151542Y-68588
T8
X119584Y-61265
X126594Y-61265
T9
X133579Y-131750
X141779Y-131750
X151486Y-60711
T10
X148946Y-58171
X148946Y-63251
X154026Y-58171
X154026Y-63251
T2
G00X119584Y-132690
M15
G01X119584Y-132090
M16
G05
G00X120584Y-124190
M15
G01X120584Y-123590
M16
G05
G00X125084Y-125690
M15
G01X125084Y-125090
M16
G05
G00X125084Y-129690
M15
G01X125084Y-129090
M16
G05
G00X125084Y-132690
M15
G01X125084Y-132090
M16
G05
G00X149448Y-128743
M15
G01X149948Y-128743
M16
G05
G00X153068Y-128743
M15
G01X153568Y-128743
M16
G05
T3
G00X147158Y-132553
M15
G01X147158Y-133093
M16
G05
G00X155848Y-132553
M15
G01X155848Y-133093
M16
G05
M30
